<svg xmlns="http://www.w3.org/2000/svg" width="167" height="233" viewBox="0 0 167 233" fill="none">
  <g filter="url(#filter0_i_110_2077)">
    <path fill-rule="evenodd" clip-rule="evenodd" d="M83.5 21.2241C58.604 21.2241 36.2694 44.6953 36.2694 76.4836C36.2694 79.7418 36.2154 83.411 36.1567 87.3979C35.8758 106.475 35.4878 132.83 40.3981 156.273C43.3487 170.36 48.0171 182.238 54.9048 190.442C61.4475 198.234 70.3371 203.172 83.5 203.172C96.6629 203.172 105.552 198.234 112.095 190.442C118.983 182.238 123.651 170.36 126.602 156.273C131.512 132.83 131.124 106.475 130.843 87.3978C130.785 83.4109 130.731 79.7418 130.731 76.4836C130.731 44.6953 108.396 21.2241 83.5 21.2241ZM16.352 76.4836C16.352 36.2338 45.2264 1.30664 83.5 1.30664C121.774 1.30664 150.648 36.2338 150.648 76.4836C150.648 79.3084 150.7 82.6355 150.759 86.3611C151.057 105.28 151.517 134.475 146.096 160.356C142.834 175.929 137.248 191.459 127.349 203.249C117.105 215.45 102.676 223.09 83.5 223.09C64.3236 223.09 49.8949 215.45 39.651 203.249C29.7521 191.459 24.1656 175.929 20.9037 160.356C15.4827 134.475 15.9427 105.28 16.2408 86.3613C16.2995 82.6356 16.352 79.3084 16.352 76.4836Z" fill="#EF4444"/>
  </g>
  <path fill-rule="evenodd" clip-rule="evenodd" d="M83.5 21.2241C58.604 21.2241 36.2694 44.6953 36.2694 76.4836C36.2694 79.7418 36.2154 83.411 36.1567 87.3979C35.8758 106.475 35.4878 132.83 40.3981 156.273C43.3487 170.36 48.0171 182.238 54.9048 190.442C61.4475 198.234 70.3371 203.172 83.5 203.172C96.6629 203.172 105.552 198.234 112.095 190.442C118.983 182.238 123.651 170.36 126.602 156.273C131.512 132.83 131.124 106.475 130.843 87.3978C130.785 83.4109 130.731 79.7418 130.731 76.4836C130.731 44.6953 108.396 21.2241 83.5 21.2241ZM16.352 76.4836C16.352 36.2338 45.2264 1.30664 83.5 1.30664C121.774 1.30664 150.648 36.2338 150.648 76.4836C150.648 79.3084 150.7 82.6355 150.759 86.3611C151.057 105.28 151.517 134.475 146.096 160.356C142.834 175.929 137.248 191.459 127.349 203.249C117.105 215.45 102.676 223.09 83.5 223.09C64.3236 223.09 49.8949 215.45 39.651 203.249C29.7521 191.459 24.1656 175.929 20.9037 160.356C15.4827 134.475 15.9427 105.28 16.2408 86.3613C16.2995 82.6356 16.352 79.3084 16.352 76.4836Z" stroke="#DC2626"/>
  <g filter="url(#filter1_i_110_2077)">
    <path d="M0 110.338C0 97.083 10.7452 86.3379 24 86.3379H142.486C156.025 86.3379 167 97.3131 167 110.852V182.742C167 210.356 144.614 232.742 117 232.742H50C22.3858 232.742 0 210.356 0 182.742V110.338Z" fill="white"/>
  </g>
  <path d="M0.766055 110.338C0.766055 97.5061 11.1682 87.1039 24 87.1039H142.486C155.602 87.1039 166.234 97.7362 166.234 110.852V182.742C166.234 209.933 144.191 231.976 117 231.976H50C22.8088 231.976 0.766055 209.933 0.766055 182.742V110.338Z" stroke="#E2E8F0" stroke-width="1.53211"/>
  <g filter="url(#filter2_i_110_2077)">
    <path d="M89.808 157.711C89.5197 156.738 89.3756 156.252 89.3831 155.854C89.391 155.436 89.4408 155.216 89.612 154.845C89.7749 154.491 90.2103 154.036 91.0812 153.124C93.4861 150.606 94.9903 147.014 94.9903 143.027C94.9903 135.412 89.5027 129.238 82.7334 129.238C75.9642 129.238 70.4766 135.412 70.4766 143.027C70.4766 147.014 71.9808 150.606 74.3857 153.124C75.2566 154.036 75.692 154.491 75.8549 154.845C76.0261 155.216 76.0759 155.436 76.0838 155.854C76.0913 156.252 75.9471 156.738 75.6589 157.711L71.9106 170.362C71.4264 171.996 71.1844 172.813 71.3295 173.463C71.4566 174.032 71.7724 174.525 72.2123 174.841C72.7148 175.202 73.4803 175.202 75.0114 175.202H90.4555C91.9866 175.202 92.7521 175.202 93.2546 174.841C93.6945 174.525 94.0103 174.032 94.1374 173.463C94.2825 172.813 94.0405 171.996 93.5563 170.362L89.808 157.711Z" fill="#F8FAFC"/>
  </g>
  <path d="M89.808 157.711C89.5197 156.738 89.3756 156.252 89.3831 155.854C89.391 155.436 89.4408 155.216 89.612 154.845C89.7749 154.491 90.2103 154.036 91.0812 153.124C93.4861 150.606 94.9903 147.014 94.9903 143.027C94.9903 135.412 89.5027 129.238 82.7334 129.238C75.9642 129.238 70.4766 135.412 70.4766 143.027C70.4766 147.014 71.9808 150.606 74.3857 153.124C75.2566 154.036 75.692 154.491 75.8549 154.845C76.0261 155.216 76.0759 155.436 76.0838 155.854C76.0913 156.252 75.9471 156.738 75.6589 157.711L71.9106 170.362C71.4264 171.996 71.1844 172.813 71.3295 173.463C71.4566 174.032 71.7724 174.525 72.2123 174.841C72.7148 175.202 73.4803 175.202 75.0114 175.202H90.4555C91.9866 175.202 92.7521 175.202 93.2546 174.841C93.6945 174.525 94.0103 174.032 94.1374 173.463C94.2825 172.813 94.0405 171.996 93.5563 170.362L89.808 157.711Z" stroke="#E2E8F0" stroke-width="3.06422" stroke-linecap="round" stroke-linejoin="round"/>
  <defs>
    <filter id="filter0_i_110_2077" x="15.5813" y="0.806641" width="135.837" height="222.783" filterUnits="userSpaceOnUse" color-interpolation-filters="sRGB">
      <feFlood flood-opacity="0" result="BackgroundImageFix"/>
      <feBlend mode="normal" in="SourceGraphic" in2="BackgroundImageFix" result="shape"/>
      <feColorMatrix in="SourceAlpha" type="matrix" values="0 0 0 0 0 0 0 0 0 0 0 0 0 0 0 0 0 0 127 0" result="hardAlpha"/>
      <feOffset dy="-6.12844"/>
      <feComposite in2="hardAlpha" operator="arithmetic" k2="-1" k3="1"/>
      <feColorMatrix type="matrix" values="0 0 0 0 0 0 0 0 0 0 0 0 0 0 0 0 0 0 0.25 0"/>
      <feBlend mode="normal" in2="shape" result="effect1_innerShadow_110_2077"/>
    </filter>
    <filter id="filter1_i_110_2077" x="0" y="86.3379" width="167" height="146.404" filterUnits="userSpaceOnUse" color-interpolation-filters="sRGB">
      <feFlood flood-opacity="0" result="BackgroundImageFix"/>
      <feBlend mode="normal" in="SourceGraphic" in2="BackgroundImageFix" result="shape"/>
      <feColorMatrix in="SourceAlpha" type="matrix" values="0 0 0 0 0 0 0 0 0 0 0 0 0 0 0 0 0 0 127 0" result="hardAlpha"/>
      <feOffset dy="-20"/>
      <feComposite in2="hardAlpha" operator="arithmetic" k2="-1" k3="1"/>
      <feColorMatrix type="matrix" values="0 0 0 0 0.945098 0 0 0 0 0.960784 0 0 0 0 0.976471 0 0 0 1 0"/>
      <feBlend mode="normal" in2="shape" result="effect1_innerShadow_110_2077"/>
    </filter>
    <filter id="filter2_i_110_2077" x="68.9443" y="127.707" width="27.5781" height="49.0273" filterUnits="userSpaceOnUse" color-interpolation-filters="sRGB">
      <feFlood flood-opacity="0" result="BackgroundImageFix"/>
      <feBlend mode="normal" in="SourceGraphic" in2="BackgroundImageFix" result="shape"/>
      <feColorMatrix in="SourceAlpha" type="matrix" values="0 0 0 0 0 0 0 0 0 0 0 0 0 0 0 0 0 0 127 0" result="hardAlpha"/>
      <feOffset dy="-4.59633"/>
      <feComposite in2="hardAlpha" operator="arithmetic" k2="-1" k3="1"/>
      <feColorMatrix type="matrix" values="0 0 0 0 0 0 0 0 0 0 0 0 0 0 0 0 0 0 0.1 0"/>
      <feBlend mode="normal" in2="shape" result="effect1_innerShadow_110_2077"/>
    </filter>
  </defs>
</svg>