<svg width="148" height="163" viewBox="0 0 148 163" fill="none" xmlns="http://www.w3.org/2000/svg">
<g filter="url(#filter0_dddd_104_1086)">
<rect width="85.1078" height="131.7" rx="6" transform="matrix(0.996198 -0.0871163 0.0871952 0.996191 47.4309 22.1074)" fill="white"/>
</g>
<path fill-rule="evenodd" clip-rule="evenodd" d="M125.628 121.3C124.461 120.049 122.947 119.666 121.719 120.057C120.471 120.456 119.608 121.63 119.751 123.266C119.972 125.784 121.625 127.392 123.5 128.497C122.715 129.347 122.146 130.306 121.836 131.215C121.803 131.311 121.773 131.407 121.746 131.503L116.954 131.922C116.718 131.943 116.544 132.151 116.564 132.388C116.585 132.624 116.793 132.799 117.029 132.778L121.579 132.38C121.549 132.719 121.563 133.045 121.629 133.347C121.772 134.004 122.162 134.548 122.832 134.814C123.545 135.096 124.201 135.008 124.762 134.685C125.302 134.373 125.736 133.856 126.078 133.304C126.347 132.87 126.572 132.393 126.757 131.928L136.271 131.096C136.507 131.075 136.682 130.867 136.661 130.63C136.641 130.394 136.432 130.219 136.196 130.239L127.071 131.037C127.188 130.659 127.274 130.321 127.329 130.063C127.467 129.419 127.586 128.199 127.515 126.827C127.605 126.79 127.692 126.756 127.777 126.725C128.348 126.513 128.769 126.445 129.051 126.465C129.322 126.485 129.406 126.576 129.441 126.643C129.49 126.739 129.521 126.948 129.403 127.326C129.251 127.812 129.191 128.25 129.314 128.585C129.383 128.772 129.51 128.93 129.698 129.021C129.876 129.108 130.064 129.113 130.225 129.089C130.538 129.042 130.869 128.864 131.169 128.645C131.479 128.419 131.797 128.12 132.085 127.776C132.343 127.467 132.612 127.183 132.868 126.956C133.13 126.724 133.355 126.573 133.528 126.505C133.612 126.472 133.665 126.466 133.691 126.467C133.709 126.467 133.713 126.47 133.715 126.472C133.735 126.488 133.83 126.596 133.865 126.992C133.929 127.726 134.176 128.285 134.722 128.45C134.969 128.525 135.214 128.493 135.419 128.431C135.625 128.369 135.821 128.268 135.992 128.163C136.194 128.039 136.257 127.774 136.133 127.572C136.009 127.369 135.744 127.306 135.542 127.43C135.406 127.514 135.28 127.576 135.171 127.608C135.061 127.642 134.999 127.636 134.97 127.628C134.96 127.625 134.778 127.57 134.72 126.917C134.68 126.457 134.555 126.045 134.252 125.802C133.919 125.535 133.521 125.584 133.213 125.705C132.904 125.828 132.59 126.054 132.299 126.312C132.002 126.575 131.704 126.892 131.427 127.224C131.178 127.52 130.911 127.77 130.664 127.95C130.39 128.15 130.113 127.945 130.211 127.62C130.215 127.608 130.218 127.595 130.222 127.583C130.369 127.112 130.403 126.639 130.204 126.251C129.991 125.835 129.577 125.641 129.112 125.608C128.658 125.575 128.105 125.687 127.479 125.918C127.466 125.923 127.454 125.928 127.441 125.932C127.257 124.305 126.763 122.516 125.628 121.3ZM126.141 131.119C126.306 130.639 126.422 130.199 126.49 129.883C126.599 129.37 126.704 128.378 126.672 127.225C126.376 127.38 126.06 127.56 125.724 127.767C125.456 127.932 125.202 128.112 124.962 128.304C125.063 128.353 125.164 128.401 125.266 128.448C125.481 128.547 125.576 128.803 125.476 129.018C125.377 129.234 125.122 129.328 124.907 129.228C124.698 129.132 124.488 129.031 124.279 128.924C123.518 129.703 122.969 130.593 122.673 131.422L126.141 131.119ZM122.451 132.304C122.408 132.628 122.415 132.918 122.468 133.164C122.56 133.585 122.783 133.87 123.147 134.014C123.605 134.196 123.987 134.139 124.333 133.94C124.7 133.729 125.042 133.345 125.349 132.851C125.512 132.587 125.659 132.302 125.789 132.012L122.451 132.304ZM125.274 127.034C125.754 126.739 126.201 126.492 126.616 126.291C126.611 126.245 126.607 126.198 126.602 126.152C126.435 124.553 125.974 122.93 125 121.886C124.027 120.843 122.848 120.599 121.98 120.876C121.132 121.147 120.497 121.936 120.607 123.191C120.8 125.396 122.292 126.833 124.139 127.874C124.487 127.568 124.866 127.285 125.274 127.034Z" fill="#4A044E"/>
<path d="M119.305 126.99C119.487 127.143 119.51 127.414 119.358 127.595L118.561 128.546L119.511 129.344C119.693 129.497 119.716 129.768 119.564 129.95C119.412 130.132 119.141 130.155 118.959 130.003L118.009 129.205L117.212 130.156C117.06 130.337 116.789 130.361 116.608 130.208C116.426 130.056 116.402 129.785 116.555 129.603L117.352 128.652L116.401 127.854C116.22 127.701 116.196 127.43 116.348 127.248C116.501 127.067 116.772 127.043 116.953 127.196L117.903 127.994L118.7 127.043C118.853 126.861 119.123 126.837 119.305 126.99Z" fill="#4A044E"/>
<rect width="10.0868" height="10.0823" rx="5.04116" transform="matrix(0.996198 -0.0871163 0.0871952 0.996191 116.948 21.0898)" fill="#FAE8FF"/>
<rect width="10.0868" height="10.0823" rx="5.04116" transform="matrix(0.996198 -0.0871163 0.0871952 0.996191 116.948 21.0898)" stroke="black" stroke-opacity="0.02" stroke-width="2"/>
<rect width="33.4127" height="4.41168" rx="2.20584" transform="matrix(0.996198 -0.0871163 0.0871952 0.996191 54.1206 33.541)" fill="#FAE8FF"/>
<rect width="33.4127" height="4.41168" rx="2.20584" transform="matrix(0.996198 -0.0871163 0.0871952 0.996191 61.5933 118.914)" fill="#FAE8FF"/>
<rect width="12.6086" height="4.41168" rx="2.20584" transform="matrix(0.996198 -0.0871163 0.0871952 0.996191 53.5161 26.6348)" fill="#FAE8FF"/>
<rect width="12.6086" height="4.41168" rx="2.20584" transform="matrix(0.996198 -0.0871163 0.0871952 0.996191 60.9888 112.008)" fill="#FAE8FF"/>
<rect width="74.3906" height="4.41168" rx="2.20584" transform="matrix(0.996198 -0.0871163 0.0871952 0.996191 55.165 45.4668)" fill="#FAE8FF"/>
<line y1="-0.5" x2="74.3906" y2="-0.5" transform="matrix(0.996198 -0.0871162 0.0871951 0.996191 55.8789 53.627)" stroke="#FAE8FF"/>
<line y1="-0.5" x2="73.7601" y2="-0.5" transform="matrix(0.996198 -0.0871162 0.0871951 0.996191 56.3188 58.6484)" stroke="#FAE8FF"/>
<line y1="-0.5" x2="73.7601" y2="-0.5" transform="matrix(0.996198 -0.0871162 0.0871951 0.996191 56.7581 63.6719)" stroke="#FAE8FF"/>
<line y1="-0.5" x2="73.7601" y2="-0.5" transform="matrix(0.996198 -0.0871162 0.0871951 0.996191 57.198 68.6934)" stroke="#FAE8FF"/>
<line y1="-0.5" x2="73.7601" y2="-0.5" transform="matrix(0.996198 -0.0871162 0.0871951 0.996191 57.637 73.7148)" stroke="#FAE8FF"/>
<line y1="-0.5" x2="73.7601" y2="-0.5" transform="matrix(0.996198 -0.0871162 0.0871951 0.996191 58.0769 78.7383)" stroke="#FAE8FF"/>
<line y1="-0.5" x2="73.7601" y2="-0.5" transform="matrix(0.996198 -0.0871162 0.0871951 0.996191 58.5161 83.7598)" stroke="#FAE8FF"/>
<line y1="-0.5" x2="73.7601" y2="-0.5" transform="matrix(0.996198 -0.0871162 0.0871951 0.996191 58.9561 88.7812)" stroke="#FAE8FF"/>
<line y1="-0.5" x2="73.7601" y2="-0.5" transform="matrix(0.996198 -0.0871162 0.0871951 0.996191 59.3953 93.8027)" stroke="#FAE8FF"/>
<line y1="-0.5" x2="73.7601" y2="-0.5" transform="matrix(0.996198 -0.0871162 0.0871951 0.996191 59.8352 98.8242)" stroke="#FAE8FF"/>
<line y1="-0.5" x2="45.3703" y2="-0.5" transform="matrix(0.0871952 0.996191 -0.996198 0.0871162 80.3726 51.4844)" stroke="#FAE8FF"/>
<line y1="-0.5" x2="45.3703" y2="-0.5" transform="matrix(0.0871952 0.996191 -0.996198 0.0871162 55.8789 53.627)" stroke="#FAE8FF"/>
<line y1="-0.5" x2="45.3703" y2="-0.5" transform="matrix(0.0871952 0.996191 -0.996198 0.0871163 95.4446 50.168)" stroke="#FAE8FF"/>
<line y1="-0.5" x2="45.3703" y2="-0.5" transform="matrix(0.0871952 0.996191 -0.996198 0.0871163 112.403 48.6855)" stroke="#FAE8FF"/>
<line y1="-0.5" x2="45.3703" y2="-0.5" transform="matrix(0.0871952 0.996191 -0.996198 0.0871162 129.359 47.2012)" stroke="#FAE8FF"/>
<g filter="url(#filter1_dddd_104_1086)">
<rect width="85.1078" height="131.7" rx="6" transform="matrix(0.996198 -0.0871163 0.0871952 0.996191 26.1609 15.8086)" fill="white"/>
</g>
<path fill-rule="evenodd" clip-rule="evenodd" d="M104.358 115.001C103.191 113.75 101.677 113.367 100.449 113.759C99.2006 114.157 98.3383 115.331 98.4814 116.967C98.7019 119.485 100.355 121.094 102.23 122.199C101.445 123.048 100.876 124.007 100.566 124.917C100.533 125.013 100.503 125.109 100.476 125.204L95.6844 125.623C95.4483 125.644 95.2736 125.852 95.2943 126.089C95.315 126.325 95.5232 126.5 95.7594 126.48L100.309 126.082C100.279 126.42 100.293 126.746 100.359 127.048C100.502 127.705 100.891 128.25 101.562 128.515C102.275 128.797 102.931 128.709 103.491 128.386C104.032 128.075 104.466 127.558 104.808 127.005C105.077 126.572 105.302 126.094 105.487 125.629L115.001 124.797C115.237 124.776 115.412 124.568 115.391 124.331C115.371 124.095 115.162 123.92 114.926 123.941L105.801 124.739C105.918 124.361 106.004 124.022 106.059 123.764C106.197 123.12 106.316 121.9 106.245 120.528C106.335 120.491 106.422 120.457 106.507 120.426C107.078 120.214 107.499 120.146 107.781 120.167C108.052 120.186 108.136 120.277 108.171 120.345C108.22 120.44 108.251 120.649 108.133 121.027C107.981 121.513 107.921 121.951 108.044 122.286C108.113 122.473 108.24 122.631 108.428 122.722C108.606 122.809 108.794 122.814 108.955 122.79C109.268 122.743 109.599 122.565 109.899 122.347C110.209 122.121 110.527 121.821 110.814 121.477C111.073 121.169 111.342 120.884 111.598 120.657C111.86 120.425 112.085 120.274 112.258 120.206C112.342 120.173 112.395 120.167 112.421 120.168C112.439 120.168 112.443 120.172 112.445 120.174C112.465 120.189 112.56 120.297 112.595 120.693C112.659 121.427 112.906 121.986 113.452 122.151C113.699 122.226 113.944 122.194 114.149 122.132C114.355 122.07 114.551 121.969 114.722 121.864C114.924 121.74 114.987 121.475 114.863 121.273C114.739 121.071 114.474 121.007 114.272 121.132C114.136 121.215 114.01 121.277 113.901 121.31C113.791 121.343 113.729 121.338 113.7 121.329C113.69 121.326 113.507 121.271 113.45 120.618C113.41 120.158 113.285 119.746 112.982 119.503C112.649 119.236 112.251 119.285 111.943 119.407C111.634 119.529 111.32 119.755 111.029 120.013C110.732 120.276 110.434 120.594 110.157 120.925C109.908 121.221 109.641 121.472 109.394 121.652C109.12 121.851 108.843 121.646 108.941 121.321C108.945 121.309 108.948 121.297 108.952 121.284C109.099 120.814 109.133 120.34 108.934 119.952C108.721 119.536 108.307 119.343 107.842 119.309C107.388 119.277 106.835 119.388 106.209 119.62C106.196 119.624 106.184 119.629 106.171 119.634C105.987 118.006 105.493 116.218 104.358 115.001ZM104.871 124.82C105.036 124.34 105.152 123.9 105.22 123.584C105.329 123.071 105.434 122.08 105.402 120.926C105.106 121.081 104.79 121.261 104.454 121.468C104.186 121.633 103.931 121.813 103.692 122.005C103.793 122.054 103.894 122.102 103.996 122.149C104.211 122.248 104.305 122.504 104.206 122.719C104.107 122.935 103.852 123.029 103.637 122.929C103.428 122.833 103.218 122.732 103.009 122.625C102.248 123.404 101.699 124.294 101.403 125.123L104.871 124.82ZM101.181 126.005C101.138 126.329 101.144 126.619 101.198 126.865C101.29 127.286 101.513 127.571 101.877 127.716C102.335 127.897 102.717 127.84 103.063 127.641C103.43 127.43 103.772 127.047 104.078 126.552C104.242 126.288 104.389 126.003 104.519 125.713L101.181 126.005ZM104.004 120.735C104.484 120.44 104.931 120.193 105.346 119.992C105.341 119.946 105.337 119.899 105.332 119.853C105.165 118.255 104.704 116.631 103.73 115.587C102.757 114.544 101.578 114.301 100.71 114.577C99.8622 114.848 99.2268 115.638 99.3366 116.892C99.5296 119.097 101.022 120.534 102.869 121.576C103.217 121.27 103.596 120.986 104.004 120.735Z" fill="#4A044E"/>
<path d="M98.0349 120.691C98.2165 120.844 98.2402 121.115 98.0879 121.297L97.2909 122.247L98.241 123.046C98.4226 123.198 98.4463 123.469 98.294 123.651C98.1416 123.833 97.8709 123.857 97.6893 123.704L96.7392 122.906L95.9422 123.857C95.7899 124.039 95.5191 124.062 95.3375 123.91C95.1559 123.757 95.1321 123.486 95.2845 123.304L96.0815 122.353L95.1314 121.555C94.9498 121.402 94.9261 121.131 95.0784 120.95C95.2308 120.768 95.5015 120.744 95.6831 120.897L96.6332 121.695L97.4302 120.744C97.5825 120.562 97.8533 120.539 98.0349 120.691Z" fill="#4A044E"/>
<rect width="10.0868" height="10.0823" rx="5.04116" transform="matrix(0.996198 -0.0871163 0.0871952 0.996191 95.6777 14.791)" fill="#FAE8FF"/>
<rect width="10.0868" height="10.0823" rx="5.04116" transform="matrix(0.996198 -0.0871163 0.0871952 0.996191 95.6777 14.791)" stroke="black" stroke-opacity="0.02" stroke-width="2"/>
<rect width="33.4127" height="4.41168" rx="2.20584" transform="matrix(0.996198 -0.0871163 0.0871952 0.996191 32.8506 27.2422)" fill="#FAE8FF"/>
<rect width="33.4127" height="4.41168" rx="2.20584" transform="matrix(0.996198 -0.0871163 0.0871952 0.996191 40.3232 112.615)" fill="#FAE8FF"/>
<rect width="12.6086" height="4.41168" rx="2.20584" transform="matrix(0.996198 -0.0871163 0.0871952 0.996191 32.2461 20.3359)" fill="#FAE8FF"/>
<rect width="12.6086" height="4.41168" rx="2.20584" transform="matrix(0.996198 -0.0871163 0.0871952 0.996191 39.7188 105.709)" fill="#FAE8FF"/>
<rect width="74.3906" height="4.41168" rx="2.20584" transform="matrix(0.996198 -0.0871163 0.0871952 0.996191 33.895 39.1699)" fill="#FAE8FF"/>
<line y1="-0.5" x2="74.3906" y2="-0.5" transform="matrix(0.996198 -0.0871162 0.0871951 0.996191 34.6089 47.3301)" stroke="#FAE8FF"/>
<line y1="-0.5" x2="73.7601" y2="-0.5" transform="matrix(0.996198 -0.0871162 0.0871951 0.996191 35.0491 52.3516)" stroke="#FAE8FF"/>
<line y1="-0.5" x2="73.7601" y2="-0.5" transform="matrix(0.996198 -0.0871162 0.0871951 0.996191 35.4883 57.375)" stroke="#FAE8FF"/>
<line y1="-0.5" x2="73.7601" y2="-0.5" transform="matrix(0.996198 -0.0871162 0.0871951 0.996191 35.928 62.3965)" stroke="#FAE8FF"/>
<line y1="-0.5" x2="73.7601" y2="-0.5" transform="matrix(0.996198 -0.0871162 0.0871951 0.996191 36.3672 67.418)" stroke="#FAE8FF"/>
<line y1="-0.5" x2="73.7601" y2="-0.5" transform="matrix(0.996198 -0.0871162 0.0871951 0.996191 36.8071 72.4414)" stroke="#FAE8FF"/>
<line y1="-0.5" x2="73.7601" y2="-0.5" transform="matrix(0.996198 -0.0871162 0.0871951 0.996191 37.2463 77.4629)" stroke="#FAE8FF"/>
<line y1="-0.5" x2="73.7601" y2="-0.5" transform="matrix(0.996198 -0.0871162 0.0871951 0.996191 37.6863 82.4844)" stroke="#FAE8FF"/>
<line y1="-0.5" x2="73.7601" y2="-0.5" transform="matrix(0.996198 -0.0871162 0.0871951 0.996191 38.1262 87.5059)" stroke="#FAE8FF"/>
<line y1="-0.5" x2="73.7601" y2="-0.5" transform="matrix(0.996198 -0.0871162 0.0871951 0.996191 38.5654 92.5273)" stroke="#FAE8FF"/>
<line y1="-0.5" x2="45.3703" y2="-0.5" transform="matrix(0.0871952 0.996191 -0.996198 0.0871162 59.1028 45.1875)" stroke="#FAE8FF"/>
<line y1="-0.5" x2="45.3703" y2="-0.5" transform="matrix(0.0871952 0.996191 -0.996198 0.0871162 34.6089 47.3301)" stroke="#FAE8FF"/>
<line y1="-0.5" x2="45.3703" y2="-0.5" transform="matrix(0.0871952 0.996191 -0.996198 0.0871163 74.1746 43.8711)" stroke="#FAE8FF"/>
<line y1="-0.5" x2="45.3703" y2="-0.5" transform="matrix(0.0871952 0.996191 -0.996198 0.0871163 91.1326 42.3887)" stroke="#FAE8FF"/>
<line y1="-0.5" x2="45.3703" y2="-0.5" transform="matrix(0.0871952 0.996191 -0.996198 0.0871162 108.08 40.9082)" stroke="#FAE8FF"/>
<g filter="url(#filter2_dddd_104_1086)">
<rect width="85.1078" height="131.7" rx="6" transform="matrix(0.996198 -0.0871163 0.0871952 0.996191 4.30103 8.7207)" fill="white"/>
</g>
<path fill-rule="evenodd" clip-rule="evenodd" d="M82.4978 107.913C81.3313 106.663 79.8167 106.279 78.589 106.671C77.3407 107.069 76.4784 108.243 76.6215 109.879C76.842 112.397 78.4954 114.006 80.37 115.111C79.5847 115.961 79.0157 116.919 78.7057 117.829C78.6729 117.925 78.6429 118.021 78.6157 118.116L73.8246 118.535C73.5884 118.556 73.4138 118.764 73.4345 119.001C73.4551 119.237 73.6634 119.412 73.8995 119.392L78.4492 118.994C78.4192 119.332 78.4336 119.658 78.4993 119.96C78.6422 120.617 79.0316 121.162 79.7017 121.427C80.4154 121.709 81.0708 121.621 81.6316 121.298C82.1722 120.987 82.6059 120.47 82.9482 119.917C83.2166 119.484 83.4424 119.006 83.6273 118.541L93.1413 117.709C93.3775 117.688 93.5521 117.48 93.5315 117.243C93.5108 117.007 93.3025 116.832 93.0664 116.853L83.9409 117.651C84.0583 117.273 84.1439 116.934 84.1991 116.677C84.337 116.032 84.4566 114.812 84.3851 113.441C84.475 113.403 84.5622 113.369 84.6468 113.338C85.2186 113.126 85.6394 113.058 85.921 113.079C86.1919 113.098 86.2764 113.19 86.3108 113.257C86.3599 113.352 86.3914 113.561 86.2732 113.939C86.1214 114.425 86.0612 114.863 86.1841 115.198C86.2527 115.385 86.3804 115.543 86.5683 115.634C86.7461 115.721 86.934 115.727 87.0952 115.702C87.4081 115.655 87.7394 115.477 88.0395 115.259C88.3494 115.033 88.6668 114.733 88.9546 114.389C89.2135 114.081 89.482 113.796 89.7382 113.569C89.9998 113.337 90.2255 113.186 90.3982 113.118C90.4823 113.085 90.5349 113.079 90.5614 113.08C90.5793 113.081 90.583 113.084 90.5853 113.086C90.6048 113.101 90.7006 113.209 90.7353 113.605C90.7995 114.339 91.0458 114.898 91.5916 115.064C91.839 115.138 92.0846 115.106 92.289 115.045C92.4951 114.982 92.6914 114.881 92.8619 114.776C93.0638 114.652 93.1269 114.387 93.0028 114.185C92.8787 113.983 92.6144 113.919 92.4124 114.044C92.2762 114.127 92.1502 114.189 92.0413 114.222C91.9309 114.255 91.869 114.25 91.8397 114.241C91.8298 114.238 91.6476 114.184 91.5905 113.53C91.5502 113.07 91.425 112.658 91.1223 112.415C90.7887 112.148 90.3908 112.197 90.0827 112.319C89.774 112.441 89.4605 112.667 89.1692 112.925C88.8726 113.188 88.5745 113.506 88.2969 113.837C88.0483 114.134 87.781 114.384 87.534 114.564C87.26 114.764 86.9829 114.558 87.081 114.234C87.0847 114.221 87.0886 114.209 87.0925 114.196C87.2395 113.726 87.2733 113.252 87.0744 112.864C86.8608 112.448 86.447 112.255 85.9821 112.221C85.5279 112.189 84.9753 112.3 84.3488 112.532C84.3364 112.536 84.324 112.541 84.3116 112.546C84.1269 110.918 83.6332 109.13 82.4978 107.913ZM83.0111 117.732C83.1759 117.252 83.2921 116.812 83.3597 116.496C83.4695 115.983 83.5745 114.992 83.542 113.838C83.2466 113.993 82.9305 114.173 82.5941 114.38C82.3258 114.545 82.0716 114.725 81.8324 114.917C81.9331 114.966 82.0344 115.014 82.1362 115.061C82.3515 115.161 82.4456 115.416 82.3464 115.631C82.2472 115.847 81.9922 115.941 81.7769 115.842C81.5682 115.745 81.3585 115.644 81.1495 115.537C80.3885 116.316 79.8391 117.206 79.543 118.035L83.0111 117.732ZM79.3214 118.917C79.2777 119.241 79.2846 119.532 79.3381 119.777C79.4297 120.198 79.6527 120.483 80.0171 120.628C80.475 120.809 80.8572 120.753 81.2033 120.553C81.5697 120.342 81.9121 119.959 82.2186 119.464C82.382 119.2 82.5289 118.915 82.6593 118.626L79.3214 118.917ZM82.1446 113.647C82.6241 113.353 83.0716 113.105 83.4856 112.904C83.4813 112.858 83.4767 112.811 83.4719 112.765C83.3056 111.167 82.8443 109.543 81.8705 108.499C80.8974 107.456 79.7179 107.213 78.8498 107.49C78.0023 107.76 77.3669 108.55 77.4767 109.804C77.6698 112.009 79.1622 113.446 81.0087 114.488C81.3569 114.182 81.7363 113.899 82.1446 113.647Z" fill="#4A044E"/>
<path d="M76.175 113.603C76.3567 113.756 76.3804 114.027 76.228 114.209L75.431 115.16L76.3811 115.958C76.5627 116.11 76.5865 116.381 76.4341 116.563C76.2818 116.745 76.011 116.769 75.8294 116.616L74.8793 115.818L74.0823 116.769C73.93 116.951 73.6592 116.974 73.4776 116.822C73.296 116.669 73.2723 116.398 73.4246 116.216L74.2216 115.265L73.2715 114.467C73.0899 114.315 73.0662 114.044 73.2185 113.862C73.3709 113.68 73.6416 113.656 73.8233 113.809L74.7733 114.607L75.5703 113.656C75.7227 113.474 75.9934 113.451 76.175 113.603Z" fill="#4A044E"/>
<rect width="10.0868" height="10.0823" rx="5.04116" transform="matrix(0.996198 -0.0871163 0.0871952 0.996191 73.8179 7.70312)" fill="#FAE8FF"/>
<rect width="10.0868" height="10.0823" rx="5.04116" transform="matrix(0.996198 -0.0871163 0.0871952 0.996191 73.8179 7.70312)" stroke="black" stroke-opacity="0.02" stroke-width="2"/>
<rect width="33.4127" height="4.41168" rx="2.20584" transform="matrix(0.996198 -0.0871163 0.0871952 0.996191 10.9907 20.1543)" fill="#FAE8FF"/>
<rect width="33.4127" height="4.41168" rx="2.20584" transform="matrix(0.996198 -0.0871163 0.0871952 0.996191 18.4634 105.527)" fill="#FAE8FF"/>
<rect width="12.6086" height="4.41168" rx="2.20584" transform="matrix(0.996198 -0.0871163 0.0871952 0.996191 10.3862 13.248)" fill="#FAE8FF"/>
<rect width="12.6086" height="4.41168" rx="2.20584" transform="matrix(0.996198 -0.0871163 0.0871952 0.996191 17.8589 98.6211)" fill="#FAE8FF"/>
<rect width="74.3906" height="4.41168" rx="2.20584" transform="matrix(0.996198 -0.0871163 0.0871952 0.996191 12.0352 32.0801)" fill="#FAE8FF"/>
<line y1="-0.5" x2="74.3906" y2="-0.5" transform="matrix(0.996198 -0.0871162 0.0871951 0.996191 12.7485 40.2402)" stroke="#FAE8FF"/>
<line y1="-0.5" x2="73.7601" y2="-0.5" transform="matrix(0.996198 -0.0871162 0.0871951 0.996191 13.1885 45.2617)" stroke="#FAE8FF"/>
<line y1="-0.5" x2="73.7601" y2="-0.5" transform="matrix(0.996198 -0.0871162 0.0871951 0.996191 13.6277 50.2852)" stroke="#FAE8FF"/>
<line y1="-0.5" x2="73.7601" y2="-0.5" transform="matrix(0.996198 -0.0871162 0.0871951 0.996191 14.0676 55.3066)" stroke="#FAE8FF"/>
<line y1="-0.5" x2="73.7601" y2="-0.5" transform="matrix(0.996198 -0.0871162 0.0871951 0.996191 14.5068 60.3281)" stroke="#FAE8FF"/>
<line y1="-0.5" x2="73.7601" y2="-0.5" transform="matrix(0.996198 -0.0871162 0.0871951 0.996191 14.9465 65.3516)" stroke="#FAE8FF"/>
<line y1="-0.5" x2="73.7601" y2="-0.5" transform="matrix(0.996198 -0.0871162 0.0871951 0.996191 15.3857 70.373)" stroke="#FAE8FF"/>
<line y1="-0.5" x2="73.7601" y2="-0.5" transform="matrix(0.996198 -0.0871162 0.0871951 0.996191 15.8257 75.3945)" stroke="#FAE8FF"/>
<line y1="-0.5" x2="73.7601" y2="-0.5" transform="matrix(0.996198 -0.0871162 0.0871951 0.996191 16.2649 80.416)" stroke="#FAE8FF"/>
<line y1="-0.5" x2="73.7601" y2="-0.5" transform="matrix(0.996198 -0.0871162 0.0871951 0.996191 16.7048 85.4375)" stroke="#FAE8FF"/>
<line y1="-0.5" x2="45.3703" y2="-0.5" transform="matrix(0.0871952 0.996191 -0.996198 0.0871162 37.2422 38.0977)" stroke="#FAE8FF"/>
<line y1="-0.5" x2="45.3703" y2="-0.5" transform="matrix(0.0871952 0.996191 -0.996198 0.0871162 12.7485 40.2402)" stroke="#FAE8FF"/>
<line y1="-0.5" x2="45.3703" y2="-0.5" transform="matrix(0.0871952 0.996191 -0.996198 0.0871163 52.3142 36.7812)" stroke="#FAE8FF"/>
<line y1="-0.5" x2="45.3703" y2="-0.5" transform="matrix(0.0871952 0.996191 -0.996198 0.0871163 69.2722 35.2988)" stroke="#FAE8FF"/>
<line y1="-0.5" x2="45.3703" y2="-0.5" transform="matrix(0.0871952 0.996191 -0.996198 0.0871162 86.228 33.8145)" stroke="#FAE8FF"/>
<defs>
<filter id="filter0_dddd_104_1086" x="43.9309" y="14.1934" width="103.268" height="148.613" filterUnits="userSpaceOnUse" color-interpolation-filters="sRGB">
<feFlood flood-opacity="0" result="BackgroundImageFix"/>
<feColorMatrix in="SourceAlpha" type="matrix" values="0 0 0 0 0 0 0 0 0 0 0 0 0 0 0 0 0 0 127 0" result="hardAlpha"/>
<feMorphology radius="1" operator="dilate" in="SourceAlpha" result="effect1_dropShadow_104_1086"/>
<feOffset/>
<feComposite in2="hardAlpha" operator="out"/>
<feColorMatrix type="matrix" values="0 0 0 0 0.486275 0 0 0 0 0.227451 0 0 0 0 0.929412 0 0 0 0.12 0"/>
<feBlend mode="normal" in2="BackgroundImageFix" result="effect1_dropShadow_104_1086"/>
<feColorMatrix in="SourceAlpha" type="matrix" values="0 0 0 0 0 0 0 0 0 0 0 0 0 0 0 0 0 0 127 0" result="hardAlpha"/>
<feOffset dy="1"/>
<feGaussianBlur stdDeviation="0.5"/>
<feComposite in2="hardAlpha" operator="out"/>
<feColorMatrix type="matrix" values="0 0 0 0 0.486275 0 0 0 0 0.227451 0 0 0 0 0.929412 0 0 0 0.04 0"/>
<feBlend mode="normal" in2="effect1_dropShadow_104_1086" result="effect2_dropShadow_104_1086"/>
<feColorMatrix in="SourceAlpha" type="matrix" values="0 0 0 0 0 0 0 0 0 0 0 0 0 0 0 0 0 0 127 0" result="hardAlpha"/>
<feOffset dy="3"/>
<feGaussianBlur stdDeviation="1.5"/>
<feComposite in2="hardAlpha" operator="out"/>
<feColorMatrix type="matrix" values="0 0 0 0 0.486275 0 0 0 0 0.227451 0 0 0 0 0.929412 0 0 0 0.04 0"/>
<feBlend mode="normal" in2="effect2_dropShadow_104_1086" result="effect3_dropShadow_104_1086"/>
<feColorMatrix in="SourceAlpha" type="matrix" values="0 0 0 0 0 0 0 0 0 0 0 0 0 0 0 0 0 0 127 0" result="hardAlpha"/>
<feOffset dy="6"/>
<feGaussianBlur stdDeviation="2"/>
<feComposite in2="hardAlpha" operator="out"/>
<feColorMatrix type="matrix" values="0 0 0 0 0.486275 0 0 0 0 0.227451 0 0 0 0 0.929412 0 0 0 0.06 0"/>
<feBlend mode="normal" in2="effect3_dropShadow_104_1086" result="effect4_dropShadow_104_1086"/>
<feBlend mode="normal" in="SourceGraphic" in2="effect4_dropShadow_104_1086" result="shape"/>
</filter>
<filter id="filter1_dddd_104_1086" x="22.6609" y="7.89453" width="103.268" height="148.613" filterUnits="userSpaceOnUse" color-interpolation-filters="sRGB">
<feFlood flood-opacity="0" result="BackgroundImageFix"/>
<feColorMatrix in="SourceAlpha" type="matrix" values="0 0 0 0 0 0 0 0 0 0 0 0 0 0 0 0 0 0 127 0" result="hardAlpha"/>
<feMorphology radius="1" operator="dilate" in="SourceAlpha" result="effect1_dropShadow_104_1086"/>
<feOffset/>
<feComposite in2="hardAlpha" operator="out"/>
<feColorMatrix type="matrix" values="0 0 0 0 0.486275 0 0 0 0 0.227451 0 0 0 0 0.929412 0 0 0 0.12 0"/>
<feBlend mode="normal" in2="BackgroundImageFix" result="effect1_dropShadow_104_1086"/>
<feColorMatrix in="SourceAlpha" type="matrix" values="0 0 0 0 0 0 0 0 0 0 0 0 0 0 0 0 0 0 127 0" result="hardAlpha"/>
<feOffset dy="1"/>
<feGaussianBlur stdDeviation="0.5"/>
<feComposite in2="hardAlpha" operator="out"/>
<feColorMatrix type="matrix" values="0 0 0 0 0.486275 0 0 0 0 0.227451 0 0 0 0 0.929412 0 0 0 0.04 0"/>
<feBlend mode="normal" in2="effect1_dropShadow_104_1086" result="effect2_dropShadow_104_1086"/>
<feColorMatrix in="SourceAlpha" type="matrix" values="0 0 0 0 0 0 0 0 0 0 0 0 0 0 0 0 0 0 127 0" result="hardAlpha"/>
<feOffset dy="3"/>
<feGaussianBlur stdDeviation="1.5"/>
<feComposite in2="hardAlpha" operator="out"/>
<feColorMatrix type="matrix" values="0 0 0 0 0.486275 0 0 0 0 0.227451 0 0 0 0 0.929412 0 0 0 0.04 0"/>
<feBlend mode="normal" in2="effect2_dropShadow_104_1086" result="effect3_dropShadow_104_1086"/>
<feColorMatrix in="SourceAlpha" type="matrix" values="0 0 0 0 0 0 0 0 0 0 0 0 0 0 0 0 0 0 127 0" result="hardAlpha"/>
<feOffset dy="6"/>
<feGaussianBlur stdDeviation="2"/>
<feComposite in2="hardAlpha" operator="out"/>
<feColorMatrix type="matrix" values="0 0 0 0 0.486275 0 0 0 0 0.227451 0 0 0 0 0.929412 0 0 0 0.06 0"/>
<feBlend mode="normal" in2="effect3_dropShadow_104_1086" result="effect4_dropShadow_104_1086"/>
<feBlend mode="normal" in="SourceGraphic" in2="effect4_dropShadow_104_1086" result="shape"/>
</filter>
<filter id="filter2_dddd_104_1086" x="0.801025" y="0.806641" width="103.268" height="148.613" filterUnits="userSpaceOnUse" color-interpolation-filters="sRGB">
<feFlood flood-opacity="0" result="BackgroundImageFix"/>
<feColorMatrix in="SourceAlpha" type="matrix" values="0 0 0 0 0 0 0 0 0 0 0 0 0 0 0 0 0 0 127 0" result="hardAlpha"/>
<feMorphology radius="1" operator="dilate" in="SourceAlpha" result="effect1_dropShadow_104_1086"/>
<feOffset/>
<feComposite in2="hardAlpha" operator="out"/>
<feColorMatrix type="matrix" values="0 0 0 0 0.486275 0 0 0 0 0.227451 0 0 0 0 0.929412 0 0 0 0.12 0"/>
<feBlend mode="normal" in2="BackgroundImageFix" result="effect1_dropShadow_104_1086"/>
<feColorMatrix in="SourceAlpha" type="matrix" values="0 0 0 0 0 0 0 0 0 0 0 0 0 0 0 0 0 0 127 0" result="hardAlpha"/>
<feOffset dy="1"/>
<feGaussianBlur stdDeviation="0.5"/>
<feComposite in2="hardAlpha" operator="out"/>
<feColorMatrix type="matrix" values="0 0 0 0 0.486275 0 0 0 0 0.227451 0 0 0 0 0.929412 0 0 0 0.04 0"/>
<feBlend mode="normal" in2="effect1_dropShadow_104_1086" result="effect2_dropShadow_104_1086"/>
<feColorMatrix in="SourceAlpha" type="matrix" values="0 0 0 0 0 0 0 0 0 0 0 0 0 0 0 0 0 0 127 0" result="hardAlpha"/>
<feOffset dy="3"/>
<feGaussianBlur stdDeviation="1.5"/>
<feComposite in2="hardAlpha" operator="out"/>
<feColorMatrix type="matrix" values="0 0 0 0 0.486275 0 0 0 0 0.227451 0 0 0 0 0.929412 0 0 0 0.04 0"/>
<feBlend mode="normal" in2="effect2_dropShadow_104_1086" result="effect3_dropShadow_104_1086"/>
<feColorMatrix in="SourceAlpha" type="matrix" values="0 0 0 0 0 0 0 0 0 0 0 0 0 0 0 0 0 0 127 0" result="hardAlpha"/>
<feOffset dy="6"/>
<feGaussianBlur stdDeviation="2"/>
<feComposite in2="hardAlpha" operator="out"/>
<feColorMatrix type="matrix" values="0 0 0 0 0.486275 0 0 0 0 0.227451 0 0 0 0 0.929412 0 0 0 0.06 0"/>
<feBlend mode="normal" in2="effect3_dropShadow_104_1086" result="effect4_dropShadow_104_1086"/>
<feBlend mode="normal" in="SourceGraphic" in2="effect4_dropShadow_104_1086" result="shape"/>
</filter>
</defs>
</svg>
