<svg width="336" height="192" viewBox="0 0 336 192" fill="none" xmlns="http://www.w3.org/2000/svg">
<g filter="url(#filter0_dddd_104_1176)">
<path d="M4 9C4 4.58172 7.58172 1 12 1H324C328.418 1 332 4.58172 332 9V191H4V9Z" fill="white"/>
<g clip-path="url(#clip0_104_1176)">
<path fill-rule="evenodd" clip-rule="evenodd" d="M24 43.9498H50.9597L77.3333 17.6387H24V43.9498Z" fill="#00AEEF"/>
<path fill-rule="evenodd" clip-rule="evenodd" d="M55.6482 22.9035H50.3735V35.2405L45.802 22.9035H41.2306L37.3039 33.2526C36.8936 30.6215 34.139 29.7444 32.0291 29.0428C30.6225 28.5751 29.0987 27.9319 29.1573 27.1718C29.1573 26.5871 29.9778 26.0024 31.5603 26.0609C32.6152 26.1194 33.5529 26.1778 35.4284 27.1133L37.2452 23.956C35.5456 23.079 33.2013 22.5527 31.3258 22.5527C29.0987 22.5527 27.2233 23.2544 26.0511 24.4822C25.2306 25.3008 24.8203 26.3532 24.8203 27.5226C24.8203 29.1013 25.4064 30.2707 26.6372 31.2062C27.6921 31.9663 29.0401 32.4925 30.2123 32.8433C31.6775 33.3111 32.8496 33.6619 32.8496 34.5389C32.8496 34.8313 32.7324 35.1236 32.498 35.3575C32.1463 35.7083 31.5603 35.8837 30.7984 35.8837C29.2159 35.8252 28.1024 35.5914 26.3442 34.5974L24.7031 37.8132C26.4614 38.8072 28.3368 39.3334 30.4467 39.3334H30.9156C32.7324 39.2749 34.2562 38.8656 35.4284 37.9301C35.487 37.8716 35.5456 37.8132 35.6042 37.7547L35.487 38.6902H39.9412L40.7617 36.6438C41.5822 36.9361 42.5786 37.1116 43.5749 37.1116C44.5713 37.1116 45.509 36.9361 46.3295 36.7023L46.857 38.6902H54.8277V34.0712H56.5273C60.6299 34.0712 63.0328 31.9663 63.0328 28.5166C63.0328 24.5992 60.6299 22.9035 55.6482 22.9035ZM43.5163 33.4865C42.9302 33.4865 42.3441 33.3695 41.8167 33.1941L43.4577 27.9319H43.5163L45.1573 33.1941C44.6885 33.3695 44.1024 33.4865 43.5163 33.4865ZM55.9412 30.4461H54.7691V26.2363H55.9412C57.465 26.2363 58.6958 26.7625 58.6958 28.3412C58.6958 29.9198 57.465 30.4461 55.9412 30.4461Z" fill="white"/>
</g>
<path d="M101.383 29V20.2727H104.332C105.017 20.2727 105.576 20.3963 106.011 20.6435C106.448 20.8878 106.772 21.2188 106.982 21.6364C107.193 22.054 107.298 22.5199 107.298 23.0341C107.298 23.5483 107.193 24.0156 106.982 24.4361C106.775 24.8565 106.454 25.1918 106.019 25.4418C105.585 25.6889 105.028 25.8125 104.349 25.8125H102.235V24.875H104.315C104.784 24.875 105.16 24.794 105.444 24.6321C105.728 24.4702 105.934 24.2514 106.062 23.9759C106.193 23.6974 106.258 23.3835 106.258 23.0341C106.258 22.6847 106.193 22.3722 106.062 22.0966C105.934 21.821 105.727 21.6051 105.44 21.4489C105.153 21.2898 104.772 21.2102 104.298 21.2102H102.44V29H101.383ZM112.989 26.3239V22.4545H113.994V29H112.989V27.892H112.921C112.767 28.2244 112.529 28.5071 112.205 28.7401C111.881 28.9702 111.472 29.0852 110.977 29.0852C110.568 29.0852 110.205 28.9957 109.887 28.8168C109.568 28.6349 109.318 28.3622 109.137 27.9986C108.955 27.6321 108.864 27.1705 108.864 26.6136V22.4545H109.869V26.5455C109.869 27.0227 110.003 27.4034 110.27 27.6875C110.54 27.9716 110.884 28.1136 111.301 28.1136C111.551 28.1136 111.806 28.0497 112.064 27.9219C112.325 27.794 112.544 27.598 112.72 27.3338C112.899 27.0696 112.989 26.733 112.989 26.3239ZM115.836 29V22.4545H116.808V23.4432H116.876C116.996 23.1193 117.211 22.8565 117.524 22.6548C117.836 22.4531 118.189 22.3523 118.581 22.3523C118.655 22.3523 118.747 22.3537 118.858 22.3565C118.969 22.3594 119.052 22.3636 119.109 22.3693V23.392C119.075 23.3835 118.997 23.3707 118.875 23.3537C118.756 23.3338 118.629 23.3239 118.496 23.3239C118.177 23.3239 117.893 23.3906 117.643 23.5241C117.396 23.6548 117.2 23.8366 117.055 24.0696C116.913 24.2997 116.842 24.5625 116.842 24.858V29H115.836ZM122.761 29.1364C122.148 29.1364 121.619 28.9915 121.176 28.7017C120.733 28.4119 120.392 28.0128 120.153 27.5043C119.915 26.9957 119.795 26.4148 119.795 25.7614C119.795 25.0966 119.917 24.5099 120.162 24.0014C120.409 23.4901 120.753 23.0909 121.193 22.804C121.636 22.5142 122.153 22.3693 122.744 22.3693C123.204 22.3693 123.619 22.4545 123.988 22.625C124.358 22.7955 124.66 23.0341 124.896 23.3409C125.132 23.6477 125.278 24.0057 125.335 24.4148H124.329C124.253 24.1165 124.082 23.8523 123.818 23.6222C123.557 23.3892 123.204 23.2727 122.761 23.2727C122.369 23.2727 122.025 23.375 121.73 23.5795C121.437 23.7812 121.209 24.0668 121.044 24.4361C120.882 24.8026 120.801 25.233 120.801 25.7273C120.801 26.233 120.881 26.6733 121.04 27.0483C121.202 27.4233 121.429 27.7145 121.721 27.9219C122.017 28.1293 122.363 28.233 122.761 28.233C123.023 28.233 123.26 28.1875 123.473 28.0966C123.686 28.0057 123.866 27.875 124.014 27.7045C124.162 27.5341 124.267 27.3295 124.329 27.0909H125.335C125.278 27.4773 125.138 27.8253 124.913 28.1349C124.692 28.4418 124.398 28.6861 124.031 28.8679C123.667 29.0469 123.244 29.1364 122.761 29.1364ZM127.811 25.0625V29H126.805V20.2727H127.811V23.4773H127.896C128.05 23.1392 128.28 22.8707 128.586 22.6719C128.896 22.4702 129.308 22.3693 129.822 22.3693C130.268 22.3693 130.659 22.4588 130.994 22.6378C131.329 22.8139 131.589 23.0852 131.774 23.4517C131.961 23.8153 132.055 24.2784 132.055 24.8409V29H131.05V24.9091C131.05 24.3892 130.915 23.9872 130.645 23.7031C130.378 23.4162 130.007 23.2727 129.532 23.2727C129.203 23.2727 128.907 23.3423 128.646 23.4815C128.388 23.6207 128.183 23.8239 128.032 24.0909C127.885 24.358 127.811 24.6818 127.811 25.0625ZM135.821 29.1534C135.406 29.1534 135.03 29.0753 134.692 28.919C134.354 28.7599 134.085 28.5312 133.887 28.233C133.688 27.9318 133.588 27.5682 133.588 27.142C133.588 26.767 133.662 26.4631 133.81 26.2301C133.958 25.9943 134.155 25.8097 134.402 25.6761C134.649 25.5426 134.922 25.4432 135.22 25.3778C135.521 25.3097 135.824 25.2557 136.128 25.2159C136.526 25.1648 136.848 25.1264 137.095 25.1009C137.345 25.0724 137.527 25.0256 137.641 24.9602C137.757 24.8949 137.816 24.7812 137.816 24.6193V24.5852C137.816 24.1648 137.7 23.8381 137.47 23.6051C137.243 23.3722 136.898 23.2557 136.435 23.2557C135.955 23.2557 135.578 23.3608 135.306 23.571C135.033 23.7812 134.841 24.0057 134.73 24.2443L133.776 23.9034C133.946 23.5057 134.173 23.196 134.458 22.9744C134.744 22.75 135.057 22.5937 135.395 22.5057C135.736 22.4148 136.071 22.3693 136.401 22.3693C136.611 22.3693 136.852 22.3949 137.125 22.446C137.401 22.4943 137.666 22.5952 137.922 22.7486C138.181 22.902 138.395 23.1335 138.566 23.4432C138.736 23.7528 138.821 24.1676 138.821 24.6875V29H137.816V28.1136H137.764C137.696 28.2557 137.583 28.4077 137.423 28.5696C137.264 28.7315 137.053 28.8693 136.789 28.983C136.524 29.0966 136.202 29.1534 135.821 29.1534ZM135.975 28.25C136.372 28.25 136.708 28.1719 136.98 28.0156C137.256 27.8594 137.463 27.6577 137.602 27.4105C137.744 27.1634 137.816 26.9034 137.816 26.6307V25.7102C137.773 25.7614 137.679 25.8082 137.534 25.8509C137.392 25.8906 137.227 25.9261 137.04 25.9574C136.855 25.9858 136.675 26.0114 136.499 26.0341C136.325 26.054 136.185 26.071 136.077 26.0852C135.816 26.1193 135.571 26.1747 135.344 26.2514C135.119 26.3253 134.938 26.4375 134.798 26.5881C134.662 26.7358 134.594 26.9375 134.594 27.1932C134.594 27.5426 134.723 27.8068 134.982 27.9858C135.243 28.1619 135.574 28.25 135.975 28.25ZM145.293 23.9205L144.39 24.1761C144.333 24.0256 144.249 23.8793 144.138 23.7372C144.03 23.5923 143.883 23.473 143.695 23.3793C143.508 23.2855 143.268 23.2386 142.975 23.2386C142.574 23.2386 142.241 23.331 141.974 23.5156C141.709 23.6974 141.577 23.929 141.577 24.2102C141.577 24.4602 141.668 24.6577 141.85 24.8026C142.032 24.9474 142.316 25.0682 142.702 25.1648L143.674 25.4034C144.259 25.5455 144.695 25.7628 144.982 26.0554C145.269 26.3452 145.412 26.7187 145.412 27.1761C145.412 27.5511 145.305 27.8864 145.089 28.1818C144.876 28.4773 144.577 28.7102 144.194 28.8807C143.81 29.0511 143.364 29.1364 142.856 29.1364C142.188 29.1364 141.635 28.9915 141.198 28.7017C140.76 28.4119 140.483 27.9886 140.367 27.4318L141.322 27.1932C141.412 27.5455 141.584 27.8097 141.837 27.9858C142.093 28.1619 142.427 28.25 142.839 28.25C143.307 28.25 143.68 28.1506 143.955 27.9517C144.233 27.75 144.373 27.5085 144.373 27.2273C144.373 27 144.293 26.8097 144.134 26.6562C143.975 26.5 143.731 26.3835 143.401 26.3068L142.31 26.0511C141.711 25.9091 141.27 25.6889 140.989 25.3906C140.711 25.0895 140.572 24.7131 140.572 24.2614C140.572 23.892 140.675 23.5653 140.883 23.2812C141.093 22.9972 141.378 22.7741 141.739 22.6122C142.103 22.4503 142.515 22.3693 142.975 22.3693C143.623 22.3693 144.131 22.5114 144.501 22.7955C144.873 23.0795 145.137 23.4545 145.293 23.9205ZM149.671 29.1364C149.04 29.1364 148.496 28.9972 148.039 28.7188C147.584 28.4375 147.233 28.0455 146.986 27.5426C146.742 27.0369 146.619 26.4489 146.619 25.7784C146.619 25.108 146.742 24.517 146.986 24.0057C147.233 23.4915 147.577 23.0909 148.017 22.804C148.46 22.5142 148.977 22.3693 149.568 22.3693C149.909 22.3693 150.246 22.4261 150.578 22.5398C150.911 22.6534 151.213 22.8381 151.486 23.0938C151.759 23.3466 151.976 23.6818 152.138 24.0994C152.3 24.517 152.381 25.0312 152.381 25.642V26.0682H147.335V25.1989H151.358C151.358 24.8295 151.284 24.5 151.137 24.2102C150.992 23.9205 150.784 23.6918 150.514 23.5241C150.247 23.3565 149.932 23.2727 149.568 23.2727C149.168 23.2727 148.821 23.3722 148.529 23.571C148.239 23.767 148.016 24.0227 147.86 24.3381C147.703 24.6534 147.625 24.9915 147.625 25.3523V25.9318C147.625 26.4261 147.71 26.8452 147.881 27.1889C148.054 27.5298 148.294 27.7898 148.601 27.9688C148.908 28.1449 149.264 28.233 149.671 28.233C149.935 28.233 150.173 28.196 150.387 28.1222C150.602 28.0455 150.789 27.9318 150.945 27.7812C151.101 27.6278 151.222 27.4375 151.307 27.2102L152.279 27.483C152.176 27.8125 152.004 28.1023 151.763 28.3523C151.521 28.5994 151.223 28.7926 150.868 28.9318C150.513 29.0682 150.114 29.1364 149.671 29.1364ZM164.786 24.6364C164.786 25.5568 164.619 26.3523 164.287 27.0227C163.955 27.6932 163.499 28.2102 162.919 28.5739C162.34 28.9375 161.678 29.1193 160.933 29.1193C160.189 29.1193 159.527 28.9375 158.948 28.5739C158.368 28.2102 157.912 27.6932 157.58 27.0227C157.247 26.3523 157.081 25.5568 157.081 24.6364C157.081 23.7159 157.247 22.9205 157.58 22.25C157.912 21.5795 158.368 21.0625 158.948 20.6989C159.527 20.3352 160.189 20.1534 160.933 20.1534C161.678 20.1534 162.34 20.3352 162.919 20.6989C163.499 21.0625 163.955 21.5795 164.287 22.25C164.619 22.9205 164.786 23.7159 164.786 24.6364ZM163.763 24.6364C163.763 23.8807 163.637 23.2429 163.384 22.723C163.134 22.2031 162.794 21.8097 162.365 21.5426C161.939 21.2756 161.462 21.142 160.933 21.142C160.405 21.142 159.926 21.2756 159.497 21.5426C159.071 21.8097 158.732 22.2031 158.479 22.723C158.229 23.2429 158.104 23.8807 158.104 24.6364C158.104 25.392 158.229 26.0298 158.479 26.5497C158.732 27.0696 159.071 27.4631 159.497 27.7301C159.926 27.9972 160.405 28.1307 160.933 28.1307C161.462 28.1307 161.939 27.9972 162.365 27.7301C162.794 27.4631 163.134 27.0696 163.384 26.5497C163.637 26.0298 163.763 25.392 163.763 24.6364ZM166.426 29V22.4545H167.398V23.4432H167.466C167.585 23.1193 167.801 22.8565 168.114 22.6548C168.426 22.4531 168.779 22.3523 169.171 22.3523C169.244 22.3523 169.337 22.3537 169.448 22.3565C169.558 22.3594 169.642 22.3636 169.699 22.3693V23.392C169.665 23.3835 169.587 23.3707 169.465 23.3537C169.345 23.3338 169.219 23.3239 169.085 23.3239C168.767 23.3239 168.483 23.3906 168.233 23.5241C167.986 23.6548 167.79 23.8366 167.645 24.0696C167.503 24.2997 167.432 24.5625 167.432 24.858V29H166.426ZM173.164 29.1364C172.618 29.1364 172.137 28.9986 171.719 28.723C171.301 28.4446 170.975 28.0526 170.739 27.5469C170.503 27.0384 170.385 26.4375 170.385 25.7443C170.385 25.0568 170.503 24.4602 170.739 23.9545C170.975 23.4489 171.303 23.0582 171.723 22.7827C172.144 22.5071 172.629 22.3693 173.181 22.3693C173.607 22.3693 173.943 22.4403 174.191 22.5824C174.441 22.7216 174.631 22.8807 174.762 23.0597C174.895 23.2358 174.999 23.3807 175.073 23.4943H175.158V20.2727H176.164V29H175.192V27.9943H175.073C174.999 28.1136 174.894 28.2642 174.757 28.446C174.621 28.625 174.426 28.7855 174.173 28.9276C173.921 29.0668 173.584 29.1364 173.164 29.1364ZM173.3 28.233C173.703 28.233 174.044 28.1278 174.323 27.9176C174.601 27.7045 174.813 27.4105 174.958 27.0355C175.102 26.6577 175.175 26.2216 175.175 25.7273C175.175 25.2386 175.104 24.8111 174.962 24.4446C174.82 24.0753 174.61 23.7884 174.331 23.5838C174.053 23.3764 173.709 23.2727 173.3 23.2727C172.874 23.2727 172.519 23.3821 172.235 23.6009C171.953 23.8168 171.742 24.1108 171.6 24.483C171.46 24.8523 171.391 25.267 171.391 25.7273C171.391 26.1932 171.462 26.6165 171.604 26.9972C171.749 27.375 171.962 27.6761 172.243 27.9006C172.527 28.1222 172.879 28.233 173.3 28.233ZM180.889 29.1364C180.259 29.1364 179.715 28.9972 179.257 28.7188C178.803 28.4375 178.452 28.0455 178.205 27.5426C177.96 27.0369 177.838 26.4489 177.838 25.7784C177.838 25.108 177.96 24.517 178.205 24.0057C178.452 23.4915 178.796 23.0909 179.236 22.804C179.679 22.5142 180.196 22.3693 180.787 22.3693C181.128 22.3693 181.465 22.4261 181.797 22.5398C182.129 22.6534 182.432 22.8381 182.705 23.0938C182.977 23.3466 183.195 23.6818 183.357 24.0994C183.519 24.517 183.6 25.0312 183.6 25.642V26.0682H178.554V25.1989H182.577C182.577 24.8295 182.503 24.5 182.355 24.2102C182.21 23.9205 182.003 23.6918 181.733 23.5241C181.466 23.3565 181.151 23.2727 180.787 23.2727C180.387 23.2727 180.04 23.3722 179.747 23.571C179.458 23.767 179.235 24.0227 179.078 24.3381C178.922 24.6534 178.844 24.9915 178.844 25.3523V25.9318C178.844 26.4261 178.929 26.8452 179.1 27.1889C179.273 27.5298 179.513 27.7898 179.82 27.9688C180.127 28.1449 180.483 28.233 180.889 28.233C181.154 28.233 181.392 28.196 181.605 28.1222C181.821 28.0455 182.007 27.9318 182.164 27.7812C182.32 27.6278 182.441 27.4375 182.526 27.2102L183.497 27.483C183.395 27.8125 183.223 28.1023 182.982 28.3523C182.74 28.5994 182.442 28.7926 182.087 28.9318C181.732 29.0682 181.333 29.1364 180.889 29.1364ZM185.129 29V22.4545H186.101V23.4432H186.169C186.289 23.1193 186.504 22.8565 186.817 22.6548C187.129 22.4531 187.482 22.3523 187.874 22.3523C187.948 22.3523 188.04 22.3537 188.151 22.3565C188.262 22.3594 188.345 22.3636 188.402 22.3693V23.392C188.368 23.3835 188.29 23.3707 188.168 23.3537C188.048 23.3338 187.922 23.3239 187.789 23.3239C187.47 23.3239 187.186 23.3906 186.936 23.5241C186.689 23.6548 186.493 23.8366 186.348 24.0696C186.206 24.2997 186.135 24.5625 186.135 24.858V29H185.129Z" fill="#64748B"/>
<path d="M105.17 52.1932C104.273 52.1894 103.506 51.9527 102.869 51.483C102.233 51.0133 101.746 50.3295 101.409 49.4318C101.072 48.5341 100.903 47.4527 100.903 46.1875C100.903 44.9261 101.072 43.8485 101.409 42.9545C101.75 42.0606 102.239 41.3788 102.875 40.9091C103.515 40.4394 104.28 40.2045 105.17 40.2045C106.061 40.2045 106.824 40.4413 107.46 40.9148C108.097 41.3845 108.583 42.0663 108.92 42.9602C109.261 43.8504 109.432 44.9261 109.432 46.1875C109.432 47.4564 109.263 48.5398 108.926 49.4375C108.589 50.3314 108.102 51.0152 107.466 51.4886C106.83 51.9583 106.064 52.1932 105.17 52.1932ZM105.17 50.6761C105.958 50.6761 106.574 50.2917 107.017 49.5227C107.464 48.7538 107.688 47.642 107.688 46.1875C107.688 45.2216 107.585 44.4053 107.381 43.7386C107.18 43.0682 106.89 42.5606 106.511 42.2159C106.136 41.8674 105.689 41.6932 105.17 41.6932C104.386 41.6932 103.771 42.0795 103.324 42.8523C102.877 43.625 102.652 44.7367 102.648 46.1875C102.648 47.1572 102.748 47.9773 102.949 48.6477C103.153 49.3144 103.443 49.8201 103.818 50.1648C104.193 50.5057 104.644 50.6761 105.17 50.6761ZM115.323 52.1932C114.425 52.1894 113.658 51.9527 113.021 51.483C112.385 51.0133 111.898 50.3295 111.561 49.4318C111.224 48.5341 111.056 47.4527 111.056 46.1875C111.056 44.9261 111.224 43.8485 111.561 42.9545C111.902 42.0606 112.391 41.3788 113.027 40.9091C113.667 40.4394 114.432 40.2045 115.323 40.2045C116.213 40.2045 116.976 40.4413 117.612 40.9148C118.249 41.3845 118.735 42.0663 119.073 42.9602C119.413 43.8504 119.584 44.9261 119.584 46.1875C119.584 47.4564 119.415 48.5398 119.078 49.4375C118.741 50.3314 118.254 51.0152 117.618 51.4886C116.982 51.9583 116.217 52.1932 115.323 52.1932ZM115.323 50.6761C116.11 50.6761 116.726 50.2917 117.169 49.5227C117.616 48.7538 117.84 47.642 117.84 46.1875C117.84 45.2216 117.737 44.4053 117.533 43.7386C117.332 43.0682 117.042 42.5606 116.663 42.2159C116.288 41.8674 115.842 41.6932 115.323 41.6932C114.538 41.6932 113.923 42.0795 113.476 42.8523C113.029 43.625 112.804 44.7367 112.8 46.1875C112.8 47.1572 112.9 47.9773 113.101 48.6477C113.306 49.3144 113.595 49.8201 113.97 50.1648C114.345 50.5057 114.796 50.6761 115.323 50.6761ZM121.242 48.9659H123.02C123.058 49.3258 123.181 49.6326 123.389 49.8864C123.602 50.1364 123.878 50.3258 124.219 50.4545C124.56 50.5833 124.939 50.6477 125.355 50.6477C125.802 50.6477 126.202 50.572 126.554 50.4205C126.91 50.2689 127.191 50.0455 127.395 49.75C127.6 49.4545 127.702 49.0909 127.702 48.6591C127.702 48.2727 127.609 47.9167 127.424 47.5909C127.238 47.2652 126.946 47.0038 126.549 46.8068C126.151 46.6098 125.632 46.5114 124.992 46.5114H123.952V45.1818L126.747 41.9545V41.8693H121.816V40.3636H129.043V41.6364L125.929 45.2045V45.2955C126.467 45.3295 126.954 45.4413 127.389 45.6307C127.829 45.8201 128.204 46.0701 128.514 46.3807C128.825 46.6875 129.064 47.0398 129.23 47.4375C129.397 47.8352 129.48 48.2614 129.48 48.7159C129.48 49.3864 129.302 49.9811 128.946 50.5C128.59 51.0189 128.1 51.4261 127.475 51.7216C126.853 52.0133 126.141 52.1591 125.338 52.1591C124.592 52.1591 123.916 52.0303 123.31 51.7727C122.708 51.5152 122.221 51.1477 121.85 50.6705C121.482 50.1932 121.28 49.625 121.242 48.9659ZM131.827 52L136.907 41.9545V41.8693H131.032V40.3636H138.725V41.9205L133.662 52H131.827ZM144.222 52.1591C143.408 52.1591 142.688 52.0189 142.063 51.7386C141.442 51.4583 140.955 51.072 140.603 50.5795C140.251 50.0871 140.076 49.5265 140.08 48.8977C140.076 48.4053 140.177 47.9527 140.381 47.5398C140.59 47.1231 140.872 46.7765 141.228 46.5C141.584 46.2197 141.982 46.0417 142.421 45.9659V45.8977C141.841 45.7576 141.377 45.447 141.029 44.9659C140.68 44.4848 140.508 43.9318 140.512 43.3068C140.508 42.7121 140.665 42.1818 140.984 41.7159C141.305 41.2462 141.747 40.8769 142.307 40.608C142.868 40.339 143.506 40.2045 144.222 40.2045C144.93 40.2045 145.563 40.3409 146.12 40.6136C146.68 40.8826 147.122 41.2519 147.444 41.7216C147.766 42.1875 147.929 42.7159 147.932 43.3068C147.929 43.9318 147.751 44.4848 147.398 44.9659C147.046 45.447 146.588 45.7576 146.023 45.8977V45.9659C146.459 46.0417 146.851 46.2197 147.199 46.5C147.552 46.7765 147.832 47.1231 148.04 47.5398C148.252 47.9527 148.36 48.4053 148.364 48.8977C148.36 49.5265 148.182 50.0871 147.83 50.5795C147.478 51.072 146.989 51.4583 146.364 51.7386C145.743 52.0189 145.029 52.1591 144.222 52.1591ZM144.222 50.7216C144.703 50.7216 145.12 50.642 145.472 50.483C145.824 50.3201 146.097 50.0947 146.29 49.8068C146.484 49.5152 146.582 49.1742 146.586 48.7841C146.582 48.3788 146.476 48.0208 146.268 47.7102C146.063 47.3996 145.785 47.1553 145.432 46.9773C145.08 46.7992 144.677 46.7102 144.222 46.7102C143.764 46.7102 143.357 46.7992 143.001 46.9773C142.644 47.1553 142.364 47.3996 142.16 47.7102C141.955 48.0208 141.855 48.3788 141.859 48.7841C141.855 49.1742 141.948 49.5152 142.137 49.8068C142.33 50.0947 142.605 50.3201 142.961 50.483C143.317 50.642 143.737 50.7216 144.222 50.7216ZM144.222 45.3068C144.609 45.3068 144.951 45.2292 145.251 45.0739C145.55 44.9186 145.785 44.7027 145.955 44.4261C146.129 44.1496 146.218 43.8258 146.222 43.4545C146.218 43.0909 146.131 42.7727 145.961 42.5C145.794 42.2273 145.561 42.017 145.262 41.8693C144.963 41.7178 144.616 41.642 144.222 41.642C143.821 41.642 143.468 41.7178 143.165 41.8693C142.866 42.017 142.633 42.2273 142.466 42.5C142.3 42.7727 142.218 43.0909 142.222 43.4545C142.218 43.8258 142.302 44.1496 142.472 44.4261C142.643 44.7027 142.877 44.9186 143.177 45.0739C143.48 45.2292 143.828 45.3068 144.222 45.3068ZM154.093 40.2045C154.612 40.2083 155.123 40.303 155.627 40.4886C156.131 40.6742 156.585 40.9773 156.991 41.3977C157.4 41.8182 157.726 42.3864 157.968 43.1023C158.214 43.8144 158.339 44.7008 158.343 45.7614C158.343 46.7803 158.241 47.6875 158.036 48.483C157.832 49.2746 157.538 49.9432 157.156 50.4886C156.777 51.0341 156.316 51.4489 155.775 51.733C155.233 52.017 154.623 52.1591 153.945 52.1591C153.252 52.1591 152.637 52.0227 152.099 51.75C151.561 51.4773 151.123 51.1004 150.786 50.6193C150.449 50.1345 150.239 49.5777 150.156 48.9489H151.888C152.002 49.4489 152.233 49.8542 152.582 50.1648C152.934 50.4716 153.388 50.625 153.945 50.625C154.798 50.625 155.462 50.2538 155.94 49.5114C156.417 48.7652 156.657 47.7235 156.661 46.3864H156.57C156.373 46.7121 156.127 46.9924 155.832 47.2273C155.54 47.4621 155.212 47.6439 154.849 47.7727C154.485 47.9015 154.097 47.9659 153.684 47.9659C153.013 47.9659 152.404 47.8011 151.854 47.4716C151.305 47.142 150.868 46.6894 150.542 46.1136C150.216 45.5379 150.053 44.8807 150.053 44.142C150.053 43.4072 150.22 42.7405 150.553 42.142C150.89 41.5436 151.36 41.0701 151.962 40.7216C152.568 40.3693 153.279 40.197 154.093 40.2045ZM154.099 41.6818C153.656 41.6818 153.256 41.7917 152.9 42.0114C152.548 42.2273 152.269 42.5208 152.065 42.892C151.86 43.2595 151.758 43.6686 151.758 44.1193C151.758 44.5701 151.856 44.9792 152.053 45.3466C152.254 45.7102 152.527 46 152.871 46.2159C153.22 46.428 153.618 46.5341 154.065 46.5341C154.398 46.5341 154.709 46.4697 154.996 46.3409C155.284 46.2121 155.536 46.0341 155.752 45.8068C155.968 45.5758 156.137 45.3144 156.258 45.0227C156.379 44.7311 156.44 44.4242 156.44 44.1023C156.44 43.6742 156.337 43.2765 156.133 42.9091C155.932 42.5417 155.656 42.2462 155.303 42.0227C154.951 41.7955 154.549 41.6818 154.099 41.6818Z" fill="#164E63"/>
<line x1="24" y1="69.5" x2="312" y2="69.5" stroke="#ECFEFF"/>
<rect width="288" height="39" transform="translate(24 82)" fill="url(#paint0_linear_104_1176)" fill-opacity="0.12"/>
<rect width="288" height="39" transform="translate(24 82)" fill="url(#paint1_linear_104_1176)" fill-opacity="0.12"/>
<path d="M28.8622 95.6989H30.3736L31.4375 97.0859L31.9396 97.7024L33.6349 99.9148H32.0639L30.9304 98.4382L30.5426 97.9013L28.8622 95.6989ZM33.9631 93.9091C33.9631 94.9962 33.7642 95.9309 33.3665 96.7131C32.9688 97.492 32.4235 98.0919 31.7308 98.5128C31.0414 98.9304 30.2576 99.1392 29.3793 99.1392C28.4976 99.1392 27.7105 98.9304 27.0178 98.5128C26.3284 98.0919 25.7848 97.4903 25.3871 96.7081C24.9893 95.9259 24.7905 94.9929 24.7905 93.9091C24.7905 92.822 24.9893 91.889 25.3871 91.1101C25.7848 90.3279 26.3284 89.728 27.0178 89.3104C27.7105 88.8894 28.4976 88.679 29.3793 88.679C30.2576 88.679 31.0414 88.8894 31.7308 89.3104C32.4235 89.728 32.9688 90.3279 33.3665 91.1101C33.7642 91.889 33.9631 92.822 33.9631 93.9091ZM32.4418 93.9091C32.4418 93.0805 32.3075 92.3828 32.0391 91.8161C31.7739 91.246 31.4093 90.8151 30.9453 90.5234C30.4846 90.2285 29.9626 90.081 29.3793 90.081C28.7926 90.081 28.2689 90.2285 27.8082 90.5234C27.3475 90.8151 26.983 91.246 26.7145 91.8161C26.4493 92.3828 26.3168 93.0805 26.3168 93.9091C26.3168 94.7377 26.4493 95.437 26.7145 96.0071C26.983 96.5739 27.3475 97.0047 27.8082 97.2997C28.2689 97.5914 28.7926 97.7372 29.3793 97.7372C29.9626 97.7372 30.4846 97.5914 30.9453 97.2997C31.4093 97.0047 31.7739 96.5739 32.0391 96.0071C32.3075 95.437 32.4418 94.7377 32.4418 93.9091ZM40.4424 95.8331V91.3636H41.9339V99H40.4722V97.6776H40.3927C40.217 98.0852 39.9353 98.425 39.5475 98.6967C39.1631 98.9652 38.6841 99.0994 38.1107 99.0994C37.6202 99.0994 37.186 98.9917 36.8082 98.7763C36.4337 98.5575 36.1387 98.2344 35.9232 97.8068C35.7111 97.3793 35.6051 96.8506 35.6051 96.2209V91.3636H37.0916V96.0419C37.0916 96.5623 37.2357 96.9766 37.5241 97.2848C37.8124 97.593 38.187 97.7472 38.6477 97.7472C38.9261 97.7472 39.2028 97.6776 39.4779 97.5384C39.7563 97.3991 39.9867 97.1887 40.169 96.907C40.3546 96.6252 40.4457 96.2673 40.4424 95.8331ZM46.9938 99.1541C46.2779 99.1541 45.6532 98.9901 45.1196 98.6619C44.5859 98.3338 44.1716 97.8748 43.8767 97.2848C43.5817 96.6948 43.4342 96.0054 43.4342 95.2166C43.4342 94.4245 43.5817 93.7318 43.8767 93.1385C44.1716 92.5452 44.5859 92.0845 45.1196 91.7564C45.6532 91.4283 46.2779 91.2642 46.9938 91.2642C47.7098 91.2642 48.3345 91.4283 48.8681 91.7564C49.4018 92.0845 49.8161 92.5452 50.111 93.1385C50.406 93.7318 50.5535 94.4245 50.5535 95.2166C50.5535 96.0054 50.406 96.6948 50.111 97.2848C49.8161 97.8748 49.4018 98.3338 48.8681 98.6619C48.3345 98.9901 47.7098 99.1541 46.9938 99.1541ZM46.9988 97.9062C47.4628 97.9062 47.8473 97.7836 48.1522 97.5384C48.4572 97.2931 48.6825 96.9666 48.8284 96.5589C48.9775 96.1513 49.0521 95.7022 49.0521 95.2116C49.0521 94.7244 48.9775 94.277 48.8284 93.8693C48.6825 93.4583 48.4572 93.1286 48.1522 92.88C47.8473 92.6314 47.4628 92.5071 46.9988 92.5071C46.5315 92.5071 46.1437 92.6314 45.8355 92.88C45.5305 93.1286 45.3035 93.4583 45.1544 93.8693C45.0085 94.277 44.9356 94.7244 44.9356 95.2116C44.9356 95.7022 45.0085 96.1513 45.1544 96.5589C45.3035 96.9666 45.5305 97.2931 45.8355 97.5384C46.1437 97.7836 46.5315 97.9062 46.9988 97.9062ZM55.6234 91.3636V92.5568H51.4522V91.3636H55.6234ZM52.5708 89.5341H54.0574V96.7578C54.0574 97.0462 54.1004 97.2633 54.1866 97.4091C54.2728 97.5516 54.3838 97.6494 54.5197 97.7024C54.6589 97.7521 54.8097 97.777 54.9721 97.777C55.0914 97.777 55.1958 97.7687 55.2853 97.7521C55.3748 97.7356 55.4444 97.7223 55.4941 97.7124L55.7626 98.9403C55.6764 98.9735 55.5538 99.0066 55.3947 99.0398C55.2356 99.0762 55.0368 99.0961 54.7981 99.0994C54.407 99.1061 54.0424 99.0365 53.7044 98.8906C53.3663 98.7448 53.0929 98.5194 52.8841 98.2145C52.6753 97.9096 52.5708 97.5268 52.5708 97.0661V89.5341ZM59.3361 99.169C58.8522 99.169 58.4147 99.0795 58.0236 98.9006C57.6325 98.7183 57.3226 98.4548 57.0939 98.1101C56.8685 97.7654 56.7558 97.3428 56.7558 96.8423C56.7558 96.4115 56.8387 96.0568 57.0044 95.7784C57.1701 95.5 57.3938 95.2796 57.6755 95.1172C57.9573 94.9548 58.2721 94.8321 58.6201 94.7493C58.9682 94.6664 59.3228 94.6035 59.6841 94.5604C60.1415 94.5073 60.5127 94.4643 60.7977 94.4311C61.0827 94.3946 61.2899 94.3366 61.4192 94.2571C61.5484 94.1776 61.613 94.0483 61.613 93.8693V93.8345C61.613 93.4003 61.4904 93.0639 61.2451 92.8253C61.0032 92.5866 60.6419 92.4673 60.1613 92.4673C59.6609 92.4673 59.2665 92.5784 58.9781 92.8004C58.6931 93.0192 58.4959 93.2628 58.3865 93.5312L56.9895 93.2131C57.1552 92.7491 57.3971 92.3745 57.7153 92.0895C58.0368 91.8011 58.4064 91.5923 58.824 91.4631C59.2416 91.3305 59.6808 91.2642 60.1415 91.2642C60.4464 91.2642 60.7695 91.3007 61.1109 91.3736C61.4556 91.4432 61.7771 91.5724 62.0754 91.7614C62.377 91.9503 62.6239 92.2204 62.8162 92.5717C63.0084 92.9197 63.1045 93.3722 63.1045 93.929V99H61.6528V97.956H61.5932C61.497 98.1482 61.3529 98.3371 61.1606 98.5227C60.9684 98.7083 60.7215 98.8625 60.4199 98.9851C60.1183 99.1077 59.757 99.169 59.3361 99.169ZM59.6592 97.9759C60.0702 97.9759 60.4215 97.8946 60.7132 97.7322C61.0082 97.5698 61.2319 97.3577 61.3844 97.0959C61.5401 96.8307 61.618 96.5473 61.618 96.2457V95.2614C61.565 95.3144 61.4622 95.3641 61.3098 95.4105C61.1606 95.4536 60.9899 95.4917 60.7977 95.5249C60.6055 95.5547 60.4182 95.5829 60.2359 95.6094C60.0536 95.6326 59.9012 95.6525 59.7785 95.669C59.4902 95.7055 59.2267 95.7668 58.988 95.853C58.7527 95.9392 58.5638 96.0634 58.4213 96.2259C58.2821 96.3849 58.2125 96.5971 58.2125 96.8622C58.2125 97.2301 58.3484 97.5085 58.6201 97.6974C58.8919 97.883 59.2383 97.9759 59.6592 97.9759ZM68.4951 91.3636V92.5568H64.3239V91.3636H68.4951ZM65.4425 89.5341H66.929V96.7578C66.929 97.0462 66.9721 97.2633 67.0583 97.4091C67.1445 97.5516 67.2555 97.6494 67.3914 97.7024C67.5306 97.7521 67.6814 97.777 67.8438 97.777C67.9631 97.777 68.0675 97.7687 68.157 97.7521C68.2465 97.7356 68.3161 97.7223 68.3658 97.7124L68.6343 98.9403C68.5481 98.9735 68.4255 99.0066 68.2664 99.0398C68.1073 99.0762 67.9084 99.0961 67.6698 99.0994C67.2787 99.1061 66.9141 99.0365 66.5761 98.8906C66.238 98.7448 65.9646 98.5194 65.7557 98.2145C65.5469 97.9096 65.4425 97.5268 65.4425 97.0661V89.5341ZM69.9854 99V91.3636H71.472V99H69.9854ZM70.7362 90.1854C70.4776 90.1854 70.2556 90.0992 70.07 89.9268C69.8877 89.7512 69.7965 89.5424 69.7965 89.3004C69.7965 89.0552 69.8877 88.8464 70.07 88.674C70.2556 88.4983 70.4776 88.4105 70.7362 88.4105C70.9947 88.4105 71.2151 88.4983 71.3974 88.674C71.583 88.8464 71.6758 89.0552 71.6758 89.3004C71.6758 89.5424 71.583 89.7512 71.3974 89.9268C71.2151 90.0992 70.9947 90.1854 70.7362 90.1854ZM76.5344 99.1541C75.8185 99.1541 75.1937 98.9901 74.6601 98.6619C74.1265 98.3338 73.7122 97.8748 73.4172 97.2848C73.1222 96.6948 72.9747 96.0054 72.9747 95.2166C72.9747 94.4245 73.1222 93.7318 73.4172 93.1385C73.7122 92.5452 74.1265 92.0845 74.6601 91.7564C75.1937 91.4283 75.8185 91.2642 76.5344 91.2642C77.2503 91.2642 77.8751 91.4283 78.4087 91.7564C78.9423 92.0845 79.3566 92.5452 79.6516 93.1385C79.9466 93.7318 80.0941 94.4245 80.0941 95.2166C80.0941 96.0054 79.9466 96.6948 79.6516 97.2848C79.3566 97.8748 78.9423 98.3338 78.4087 98.6619C77.8751 98.9901 77.2503 99.1541 76.5344 99.1541ZM76.5394 97.9062C77.0034 97.9062 77.3879 97.7836 77.6928 97.5384C77.9977 97.2931 78.2231 96.9666 78.3689 96.5589C78.5181 96.1513 78.5926 95.7022 78.5926 95.2116C78.5926 94.7244 78.5181 94.277 78.3689 93.8693C78.2231 93.4583 77.9977 93.1286 77.6928 92.88C77.3879 92.6314 77.0034 92.5071 76.5394 92.5071C76.072 92.5071 75.6843 92.6314 75.376 92.88C75.0711 93.1286 74.8441 93.4583 74.6949 93.8693C74.5491 94.277 74.4762 94.7244 74.4762 95.2116C74.4762 95.7022 74.5491 96.1513 74.6949 96.5589C74.8441 96.9666 75.0711 97.2931 75.376 97.5384C75.6843 97.7836 76.072 97.9062 76.5394 97.9062ZM83.0858 94.4659V99H81.5993V91.3636H83.0262V92.6065H83.1206C83.2963 92.2022 83.5714 91.8774 83.9459 91.6321C84.3238 91.3868 84.7994 91.2642 85.3728 91.2642C85.8931 91.2642 86.3488 91.3736 86.7399 91.5923C87.131 91.8078 87.4343 92.1293 87.6497 92.5568C87.8652 92.9844 87.9729 93.513 87.9729 94.1428V99H86.4864V94.3217C86.4864 93.7682 86.3422 93.3357 86.0539 93.0241C85.7655 92.7093 85.3694 92.5518 84.8657 92.5518C84.521 92.5518 84.2144 92.6264 83.9459 92.7756C83.6808 92.9247 83.4703 93.1435 83.3145 93.4318C83.1621 93.7169 83.0858 94.0616 83.0858 94.4659ZM94.3118 94.0533V95.3409H89.7976V94.0533H94.3118ZM99.982 88.8182V99H98.4408V90.3594H98.3812L95.9451 91.9503V90.4787L98.4856 88.8182H99.982Z" fill="#164E63"/>
<path d="M25.4142 118V109.273H28.3631C29.0478 109.273 29.6074 109.396 30.0421 109.643C30.4796 109.888 30.8034 110.219 31.0137 110.636C31.2239 111.054 31.329 111.52 31.329 112.034C31.329 112.548 31.2239 113.016 31.0137 113.436C30.8063 113.857 30.4853 114.192 30.0506 114.442C29.6159 114.689 29.0591 114.812 28.3801 114.812H26.2665V113.875H28.3461C28.8148 113.875 29.1912 113.794 29.4753 113.632C29.7594 113.47 29.9654 113.251 30.0932 112.976C30.2239 112.697 30.2892 112.384 30.2892 112.034C30.2892 111.685 30.2239 111.372 30.0932 111.097C29.9654 110.821 29.758 110.605 29.4711 110.449C29.1841 110.29 28.8034 110.21 28.329 110.21H26.4711V118H25.4142ZM35.7246 118H33.0314V109.273H35.8439C36.6905 109.273 37.415 109.447 38.0172 109.797C38.6195 110.143 39.0811 110.642 39.4022 111.293C39.7232 111.94 39.8837 112.716 39.8837 113.619C39.8837 114.528 39.7218 115.311 39.3979 115.967C39.074 116.621 38.6025 117.124 37.9831 117.476C37.3638 117.825 36.611 118 35.7246 118ZM34.0882 117.062H35.6564C36.378 117.062 36.976 116.923 37.4505 116.645C37.9249 116.366 38.2786 115.97 38.5115 115.456C38.7445 114.942 38.861 114.33 38.861 113.619C38.861 112.915 38.7459 112.308 38.5158 111.8C38.2857 111.288 37.9419 110.896 37.4846 110.624C37.0272 110.348 36.4576 110.21 35.7757 110.21H34.0882V117.062ZM41.6564 118V109.273H46.8894V110.21H42.7132V113.159H46.4973V114.097H42.7132V118H41.6564Z" fill="#64748B"/>
<g filter="url(#filter1_dd_104_1176)">
<rect x="231" y="82" width="81" height="36" rx="6" fill="#06B6D4"/>
<path d="M246.872 104H244.047V95.2727H246.962C247.817 95.2727 248.551 95.4474 249.165 95.7969C249.778 96.1435 250.248 96.642 250.575 97.2926C250.905 97.9403 251.069 98.7173 251.069 99.6236C251.069 100.533 250.903 101.314 250.571 101.967C250.241 102.621 249.764 103.124 249.139 103.476C248.514 103.825 247.758 104 246.872 104ZM245.364 102.849H246.8C247.464 102.849 248.017 102.724 248.457 102.474C248.898 102.222 249.227 101.857 249.446 101.379C249.665 100.899 249.774 100.314 249.774 99.6236C249.774 98.9389 249.665 98.358 249.446 97.8807C249.23 97.4034 248.908 97.0412 248.479 96.794C248.05 96.5469 247.517 96.4233 246.881 96.4233H245.364V102.849ZM255.29 104.132C254.676 104.132 254.141 103.991 253.683 103.71C253.226 103.429 252.871 103.036 252.618 102.53C252.365 102.024 252.239 101.433 252.239 100.757C252.239 100.078 252.365 99.4844 252.618 98.9759C252.871 98.4673 253.226 98.0724 253.683 97.7912C254.141 97.5099 254.676 97.3693 255.29 97.3693C255.903 97.3693 256.439 97.5099 256.896 97.7912C257.354 98.0724 257.709 98.4673 257.962 98.9759C258.214 99.4844 258.341 100.078 258.341 100.757C258.341 101.433 258.214 102.024 257.962 102.53C257.709 103.036 257.354 103.429 256.896 103.71C256.439 103.991 255.903 104.132 255.29 104.132ZM255.294 103.062C255.692 103.062 256.021 102.957 256.283 102.747C256.544 102.537 256.737 102.257 256.862 101.908C256.99 101.558 257.054 101.173 257.054 100.753C257.054 100.335 256.99 99.9517 256.862 99.6023C256.737 99.25 256.544 98.9673 256.283 98.7543C256.021 98.5412 255.692 98.4347 255.294 98.4347C254.893 98.4347 254.561 98.5412 254.297 98.7543C254.035 98.9673 253.841 99.25 253.713 99.6023C253.588 99.9517 253.526 100.335 253.526 100.753C253.526 101.173 253.588 101.558 253.713 101.908C253.841 102.257 254.035 102.537 254.297 102.747C254.561 102.957 254.893 103.062 255.294 103.062ZM260.911 104L258.985 97.4545H260.302L261.584 102.261H261.648L262.935 97.4545H264.252L265.53 102.24H265.594L266.868 97.4545H268.185L266.263 104H264.963L263.634 99.2741H263.536L262.206 104H260.911ZM270.596 100.114V104H269.322V97.4545H270.545V98.5199H270.626C270.777 98.1733 271.013 97.8949 271.334 97.6847C271.657 97.4744 272.065 97.3693 272.557 97.3693C273.003 97.3693 273.393 97.4631 273.728 97.6506C274.064 97.8352 274.324 98.1108 274.508 98.4773C274.693 98.8437 274.785 99.2969 274.785 99.8366V104H273.511V99.9901C273.511 99.5156 273.388 99.1449 273.14 98.8778C272.893 98.608 272.554 98.473 272.122 98.473C271.826 98.473 271.564 98.5369 271.334 98.6648C271.106 98.7926 270.926 98.9801 270.792 99.2273C270.662 99.4716 270.596 99.767 270.596 100.114ZM277.696 95.2727V104H276.422V95.2727H277.696ZM282.095 104.132C281.482 104.132 280.946 103.991 280.489 103.71C280.032 103.429 279.676 103.036 279.424 102.53C279.171 102.024 279.044 101.433 279.044 100.757C279.044 100.078 279.171 99.4844 279.424 98.9759C279.676 98.4673 280.032 98.0724 280.489 97.7912C280.946 97.5099 281.482 97.3693 282.095 97.3693C282.709 97.3693 283.245 97.5099 283.702 97.7912C284.159 98.0724 284.515 98.4673 284.767 98.9759C285.02 99.4844 285.147 100.078 285.147 100.757C285.147 101.433 285.02 102.024 284.767 102.53C284.515 103.036 284.159 103.429 283.702 103.71C283.245 103.991 282.709 104.132 282.095 104.132ZM282.1 103.062C282.497 103.062 282.827 102.957 283.088 102.747C283.35 102.537 283.543 102.257 283.668 101.908C283.796 101.558 283.86 101.173 283.86 100.753C283.86 100.335 283.796 99.9517 283.668 99.6023C283.543 99.25 283.35 98.9673 283.088 98.7543C282.827 98.5412 282.497 98.4347 282.1 98.4347C281.699 98.4347 281.367 98.5412 281.103 98.7543C280.841 98.9673 280.647 99.25 280.519 99.6023C280.394 99.9517 280.331 100.335 280.331 100.753C280.331 101.173 280.394 101.558 280.519 101.908C280.647 102.257 280.841 102.537 281.103 102.747C281.367 102.957 281.699 103.062 282.1 103.062ZM288.402 104.145C287.987 104.145 287.612 104.068 287.277 103.915C286.941 103.759 286.676 103.533 286.48 103.237C286.287 102.942 286.19 102.58 286.19 102.151C286.19 101.781 286.261 101.477 286.403 101.239C286.545 101 286.737 100.811 286.978 100.672C287.22 100.533 287.49 100.428 287.788 100.357C288.086 100.286 288.39 100.232 288.7 100.195C289.092 100.149 289.41 100.112 289.655 100.084C289.899 100.053 290.076 100.003 290.187 99.9347C290.298 99.8665 290.353 99.7557 290.353 99.6023V99.5724C290.353 99.2003 290.248 98.9119 290.038 98.7074C289.831 98.5028 289.521 98.4006 289.109 98.4006C288.68 98.4006 288.342 98.4957 288.095 98.6861C287.851 98.8736 287.682 99.0824 287.588 99.3125L286.39 99.0398C286.532 98.642 286.74 98.321 287.012 98.0767C287.288 97.8295 287.605 97.6506 287.963 97.5398C288.321 97.4261 288.697 97.3693 289.092 97.3693C289.353 97.3693 289.63 97.4006 289.923 97.4631C290.218 97.5227 290.494 97.6335 290.75 97.7955C291.008 97.9574 291.22 98.1889 291.385 98.4901C291.549 98.7884 291.632 99.1761 291.632 99.6534V104H290.387V103.105H290.336C290.254 103.27 290.13 103.432 289.966 103.591C289.801 103.75 289.589 103.882 289.331 103.987C289.072 104.092 288.762 104.145 288.402 104.145ZM288.679 103.122C289.031 103.122 289.332 103.053 289.582 102.913C289.835 102.774 290.027 102.592 290.157 102.368C290.291 102.141 290.358 101.898 290.358 101.639V100.795C290.312 100.841 290.224 100.884 290.093 100.923C289.966 100.96 289.819 100.993 289.655 101.021C289.49 101.047 289.329 101.071 289.173 101.094C289.017 101.114 288.886 101.131 288.781 101.145C288.534 101.176 288.308 101.229 288.103 101.303C287.902 101.376 287.74 101.483 287.618 101.622C287.498 101.759 287.439 101.94 287.439 102.168C287.439 102.483 287.555 102.722 287.788 102.884C288.021 103.043 288.318 103.122 288.679 103.122ZM295.707 104.128C295.179 104.128 294.707 103.993 294.292 103.723C293.88 103.45 293.557 103.062 293.321 102.56C293.088 102.054 292.971 101.447 292.971 100.74C292.971 100.033 293.089 99.4276 293.325 98.9247C293.564 98.4219 293.89 98.0369 294.305 97.7699C294.72 97.5028 295.19 97.3693 295.716 97.3693C296.122 97.3693 296.449 97.4375 296.696 97.5739C296.946 97.7074 297.139 97.8636 297.275 98.0426C297.415 98.2216 297.523 98.3793 297.599 98.5156H297.676V95.2727H298.95V104H297.706V102.982H297.599C297.523 103.121 297.412 103.28 297.267 103.459C297.125 103.638 296.929 103.794 296.679 103.928C296.429 104.061 296.105 104.128 295.707 104.128ZM295.988 103.041C296.355 103.041 296.665 102.945 296.917 102.751C297.173 102.555 297.366 102.284 297.497 101.938C297.63 101.591 297.697 101.187 297.697 100.727C297.697 100.273 297.632 99.875 297.501 99.5341C297.371 99.1932 297.179 98.9276 296.926 98.7372C296.673 98.5469 296.361 98.4517 295.988 98.4517C295.605 98.4517 295.285 98.5511 295.03 98.75C294.774 98.9489 294.581 99.2202 294.45 99.5639C294.322 99.9077 294.258 100.295 294.258 100.727C294.258 101.165 294.324 101.558 294.454 101.908C294.585 102.257 294.778 102.534 295.034 102.739C295.292 102.94 295.611 103.041 295.988 103.041Z" fill="#ECFEFF"/>
</g>
<path d="M24 133H312" stroke="#ECFEFF"/>
<rect x="24" y="145" width="288" height="24" rx="5" fill="url(#paint2_linear_104_1176)"/>
<path d="M35.6354 162.091V151.182H36.3343V162.091H35.6354ZM37.8215 154.565C37.776 154.162 37.5885 153.849 37.259 153.628C36.9294 153.403 36.5147 153.291 36.0147 153.291C35.6567 153.291 35.347 153.348 35.0857 153.462C34.8243 153.572 34.6212 153.726 34.4763 153.922C34.3343 154.115 34.2632 154.335 34.2632 154.582C34.2632 154.79 34.3115 154.969 34.4081 155.119C34.5075 155.27 34.6368 155.396 34.7959 155.499C34.9578 155.598 35.1311 155.682 35.3158 155.75C35.5004 155.815 35.678 155.869 35.8485 155.912L36.7007 156.134C36.9791 156.202 37.2647 156.294 37.5573 156.411C37.8499 156.527 38.1212 156.68 38.3712 156.871C38.6212 157.061 38.8229 157.297 38.9763 157.578C39.1325 157.859 39.2107 158.196 39.2107 158.588C39.2107 159.082 39.0828 159.521 38.8272 159.905C38.5743 160.288 38.2064 160.591 37.7235 160.812C37.2433 161.034 36.6624 161.145 35.9806 161.145C35.3272 161.145 34.7618 161.041 34.2845 160.834C33.8073 160.626 33.4337 160.332 33.1638 159.952C32.8939 159.568 32.7448 159.114 32.7164 158.588H34.0374C34.0629 158.903 34.1652 159.166 34.3442 159.376C34.526 159.584 34.7575 159.739 35.0388 159.841C35.3229 159.94 35.634 159.99 35.972 159.99C36.3442 159.99 36.6752 159.932 36.9649 159.815C37.2575 159.696 37.4877 159.531 37.6553 159.321C37.8229 159.108 37.9067 158.859 37.9067 158.575C37.9067 158.317 37.8328 158.105 37.6851 157.94C37.5402 157.776 37.3428 157.639 37.0928 157.531C36.8456 157.423 36.5658 157.328 36.2533 157.246L35.222 156.964C34.5232 156.774 33.9692 156.494 33.5601 156.125C33.1539 155.756 32.9507 155.267 32.9507 154.659C32.9507 154.156 33.0871 153.717 33.3598 153.342C33.6325 152.967 34.0019 152.676 34.4678 152.469C34.9337 152.259 35.4593 152.153 36.0445 152.153C36.6354 152.153 37.1567 152.257 37.6084 152.464C38.0629 152.672 38.4209 152.957 38.6823 153.321C38.9436 153.682 39.08 154.097 39.0914 154.565H37.8215ZM43.9039 152.273V161H42.5829V153.594H42.5318L40.4437 154.957V153.696L42.6213 152.273H43.9039ZM46.0095 159.295V158.23L49.7808 152.273H50.6203V153.841H50.0876L47.3902 158.111V158.179H52.5592V159.295H46.0095ZM50.1473 161V158.972L50.1558 158.486V152.273H51.4044V161H50.1473ZM55.3189 159.807L55.255 160.271C55.2124 160.612 55.1399 160.967 55.0376 161.337C54.9382 161.709 54.8345 162.054 54.7266 162.372C54.6214 162.69 54.5348 162.943 54.4666 163.131H53.5632C53.6001 162.955 53.6513 162.716 53.7166 162.415C53.782 162.116 53.8459 161.783 53.9084 161.413C53.9709 161.044 54.0178 160.668 54.049 160.284L54.0916 159.807H55.3189ZM59.8257 152.153C60.2149 152.156 60.5985 152.227 60.9763 152.366C61.3541 152.506 61.695 152.733 61.999 153.048C62.3058 153.364 62.5502 153.79 62.732 154.327C62.9166 154.861 63.0104 155.526 63.0132 156.321C63.0132 157.085 62.9365 157.766 62.7831 158.362C62.6297 158.956 62.4095 159.457 62.1226 159.866C61.8385 160.276 61.4933 160.587 61.0871 160.8C60.6808 161.013 60.2235 161.119 59.7149 161.119C59.195 161.119 58.7334 161.017 58.33 160.812C57.9266 160.608 57.5985 160.325 57.3456 159.964C57.0928 159.601 56.9351 159.183 56.8726 158.712H58.1723C58.2575 159.087 58.4308 159.391 58.6922 159.624C58.9564 159.854 59.2973 159.969 59.7149 159.969C60.3541 159.969 60.8527 159.69 61.2107 159.134C61.5686 158.574 61.749 157.793 61.7519 156.79H61.6837C61.536 157.034 61.3513 157.244 61.1297 157.42C60.911 157.597 60.6652 157.733 60.3925 157.83C60.1198 157.926 59.8286 157.974 59.5189 157.974C59.0161 157.974 58.5587 157.851 58.1467 157.604C57.7348 157.357 57.4067 157.017 57.1624 156.585C56.9181 156.153 56.7959 155.661 56.7959 155.107C56.7959 154.555 56.9209 154.055 57.1709 153.607C57.4237 153.158 57.776 152.803 58.2277 152.541C58.6823 152.277 59.2149 152.148 59.8257 152.153ZM59.83 153.261C59.4976 153.261 59.1979 153.344 58.9308 153.509C58.6666 153.67 58.4578 153.891 58.3044 154.169C58.151 154.445 58.0743 154.751 58.0743 155.089C58.0743 155.428 58.1482 155.734 58.2959 156.01C58.4465 156.283 58.651 156.5 58.9095 156.662C59.1709 156.821 59.4692 156.901 59.8044 156.901C60.0544 156.901 60.2874 156.852 60.5033 156.756C60.7192 156.659 60.9081 156.526 61.07 156.355C61.232 156.182 61.3584 155.986 61.4493 155.767C61.5402 155.548 61.5857 155.318 61.5857 155.077C61.5857 154.756 61.509 154.457 61.3556 154.182C61.205 153.906 60.9976 153.685 60.7334 153.517C60.4692 153.347 60.1681 153.261 59.83 153.261ZM67.4295 161.119C66.8187 161.119 66.2789 161.014 65.8102 160.804C65.3443 160.594 64.9792 160.304 64.715 159.935C64.4508 159.565 64.3201 159.145 64.323 158.673C64.3201 158.304 64.3954 157.964 64.5488 157.655C64.7051 157.342 64.9167 157.082 65.1838 156.875C65.4508 156.665 65.7491 156.531 66.0787 156.474V156.423C65.644 156.318 65.296 156.085 65.0346 155.724C64.7733 155.364 64.644 154.949 64.6468 154.48C64.644 154.034 64.7619 153.636 65.0005 153.287C65.242 152.935 65.573 152.658 65.9934 152.456C66.4139 152.254 66.8926 152.153 67.4295 152.153C67.9608 152.153 68.4352 152.256 68.8528 152.46C69.2733 152.662 69.6042 152.939 69.8457 153.291C70.0872 153.641 70.2093 154.037 70.2122 154.48C70.2093 154.949 70.0758 155.364 69.8116 155.724C69.5474 156.085 69.2037 156.318 68.7804 156.423V156.474C69.1071 156.531 69.4011 156.665 69.6625 156.875C69.9267 157.082 70.1369 157.342 70.2931 157.655C70.4522 157.964 70.5332 158.304 70.536 158.673C70.5332 159.145 70.3997 159.565 70.1355 159.935C69.8713 160.304 69.5048 160.594 69.036 160.804C68.5701 161.014 68.0346 161.119 67.4295 161.119ZM67.4295 160.041C67.7903 160.041 68.1028 159.982 68.367 159.862C68.6312 159.74 68.8358 159.571 68.9806 159.355C69.1255 159.136 69.1994 158.881 69.2022 158.588C69.1994 158.284 69.1198 158.016 68.9636 157.783C68.8102 157.55 68.6014 157.366 68.3372 157.233C68.073 157.099 67.7704 157.033 67.4295 157.033C67.0858 157.033 66.7804 157.099 66.5133 157.233C66.2463 157.366 66.036 157.55 65.8826 157.783C65.7292 158.016 65.6539 158.284 65.6568 158.588C65.6539 158.881 65.7235 159.136 65.8656 159.355C66.0105 159.571 66.2164 159.74 66.4835 159.862C66.7505 159.982 67.0659 160.041 67.4295 160.041ZM67.4295 155.98C67.7193 155.98 67.9764 155.922 68.2008 155.805C68.4252 155.689 68.6014 155.527 68.7292 155.32C68.8599 155.112 68.9267 154.869 68.9295 154.591C68.9267 154.318 68.8613 154.08 68.7335 153.875C68.6085 153.67 68.4338 153.513 68.2093 153.402C67.9849 153.288 67.725 153.232 67.4295 153.232C67.1284 153.232 66.8642 153.288 66.6369 153.402C66.4125 153.513 66.2377 153.67 66.1127 153.875C65.9877 154.08 65.9267 154.318 65.9295 154.591C65.9267 154.869 65.9892 155.112 66.117 155.32C66.2448 155.527 66.421 155.689 66.6454 155.805C66.8727 155.922 67.1341 155.98 67.4295 155.98ZM75.029 161.145C74.3557 161.142 73.7804 160.964 73.3032 160.612C72.8259 160.26 72.4608 159.747 72.208 159.074C71.9552 158.401 71.8287 157.589 71.8287 156.641C71.8287 155.695 71.9552 154.886 72.208 154.216C72.4637 153.545 72.8302 153.034 73.3074 152.682C73.7876 152.33 74.3614 152.153 75.029 152.153C75.6966 152.153 76.2691 152.331 76.7464 152.686C77.2236 153.038 77.5887 153.55 77.8415 154.22C78.0972 154.888 78.2251 155.695 78.2251 156.641C78.2251 157.592 78.0986 158.405 77.8458 159.078C77.5929 159.749 77.2279 160.261 76.7506 160.616C76.2733 160.969 75.6995 161.145 75.029 161.145ZM75.029 160.007C75.6199 160.007 76.0816 159.719 76.414 159.142C76.7492 158.565 76.9168 157.732 76.9168 156.641C76.9168 155.916 76.8401 155.304 76.6867 154.804C76.5361 154.301 76.3188 153.92 76.0347 153.662C75.7535 153.401 75.4182 153.27 75.029 153.27C74.441 153.27 73.9793 153.56 73.6441 154.139C73.3089 154.719 73.1398 155.553 73.137 156.641C73.137 157.368 73.2123 157.983 73.3628 158.486C73.5162 158.986 73.7336 159.365 74.0148 159.624C74.2961 159.879 74.6341 160.007 75.029 160.007Z" fill="white"/>
<path d="M246.986 161.132C246.373 161.132 245.837 160.991 245.38 160.71C244.923 160.429 244.567 160.036 244.315 159.53C244.062 159.024 243.935 158.433 243.935 157.757C243.935 157.078 244.062 156.484 244.315 155.976C244.567 155.467 244.923 155.072 245.38 154.791C245.837 154.51 246.373 154.369 246.986 154.369C247.6 154.369 248.136 154.51 248.593 154.791C249.05 155.072 249.405 155.467 249.658 155.976C249.911 156.484 250.038 157.078 250.038 157.757C250.038 158.433 249.911 159.024 249.658 159.53C249.405 160.036 249.05 160.429 248.593 160.71C248.136 160.991 247.6 161.132 246.986 161.132ZM246.991 160.062C247.388 160.062 247.718 159.957 247.979 159.747C248.241 159.537 248.434 159.257 248.559 158.908C248.687 158.558 248.751 158.173 248.751 157.753C248.751 157.335 248.687 156.952 248.559 156.602C248.434 156.25 248.241 155.967 247.979 155.754C247.718 155.541 247.388 155.435 246.991 155.435C246.59 155.435 246.258 155.541 245.994 155.754C245.732 155.967 245.538 156.25 245.41 156.602C245.285 156.952 245.222 157.335 245.222 157.753C245.222 158.173 245.285 158.558 245.41 158.908C245.538 159.257 245.732 159.537 245.994 159.747C246.258 159.957 246.59 160.062 246.991 160.062ZM254.503 154.455V155.477H250.804V154.455H254.503ZM251.818 161V153.696C251.818 153.287 251.908 152.947 252.087 152.678C252.266 152.405 252.503 152.202 252.798 152.068C253.094 151.932 253.415 151.864 253.761 151.864C254.017 151.864 254.236 151.885 254.418 151.928C254.599 151.967 254.734 152.004 254.822 152.038L254.524 153.07C254.465 153.053 254.388 153.033 254.294 153.01C254.2 152.984 254.087 152.972 253.953 152.972C253.644 152.972 253.422 153.048 253.288 153.202C253.158 153.355 253.092 153.577 253.092 153.866V161H251.818ZM261.525 162.091V151.182H262.224V162.091H261.525ZM263.712 154.565C263.666 154.162 263.479 153.849 263.149 153.628C262.819 153.403 262.405 153.291 261.905 153.291C261.547 153.291 261.237 153.348 260.976 153.462C260.714 153.572 260.511 153.726 260.366 153.922C260.224 154.115 260.153 154.335 260.153 154.582C260.153 154.79 260.202 154.969 260.298 155.119C260.398 155.27 260.527 155.396 260.686 155.499C260.848 155.598 261.021 155.682 261.206 155.75C261.39 155.815 261.568 155.869 261.739 155.912L262.591 156.134C262.869 156.202 263.155 156.294 263.447 156.411C263.74 156.527 264.011 156.68 264.261 156.871C264.511 157.061 264.713 157.297 264.866 157.578C265.023 157.859 265.101 158.196 265.101 158.588C265.101 159.082 264.973 159.521 264.717 159.905C264.464 160.288 264.096 160.591 263.614 160.812C263.133 161.034 262.552 161.145 261.871 161.145C261.217 161.145 260.652 161.041 260.175 160.834C259.697 160.626 259.324 160.332 259.054 159.952C258.784 159.568 258.635 159.114 258.606 158.588H259.927C259.953 158.903 260.055 159.166 260.234 159.376C260.416 159.584 260.648 159.739 260.929 159.841C261.213 159.94 261.524 159.99 261.862 159.99C262.234 159.99 262.565 159.932 262.855 159.815C263.148 159.696 263.378 159.531 263.545 159.321C263.713 159.108 263.797 158.859 263.797 158.575C263.797 158.317 263.723 158.105 263.575 157.94C263.43 157.776 263.233 157.639 262.983 157.531C262.736 157.423 262.456 157.328 262.143 157.246L261.112 156.964C260.413 156.774 259.859 156.494 259.45 156.125C259.044 155.756 258.841 155.267 258.841 154.659C258.841 154.156 258.977 153.717 259.25 153.342C259.523 152.967 259.892 152.676 260.358 152.469C260.824 152.259 261.349 152.153 261.935 152.153C262.525 152.153 263.047 152.257 263.498 152.464C263.953 152.672 264.311 152.957 264.572 153.321C264.834 153.682 264.97 154.097 264.981 154.565H263.712ZM266.347 158.724H267.68C267.709 158.994 267.801 159.224 267.957 159.415C268.116 159.602 268.324 159.744 268.58 159.841C268.835 159.937 269.119 159.986 269.432 159.986C269.767 159.986 270.067 159.929 270.331 159.815C270.598 159.702 270.808 159.534 270.962 159.312C271.115 159.091 271.192 158.818 271.192 158.494C271.192 158.205 271.122 157.937 270.983 157.693C270.844 157.449 270.625 157.253 270.327 157.105C270.028 156.957 269.639 156.884 269.159 156.884H268.379V155.886L270.476 153.466V153.402H266.777V152.273H272.197V153.227L269.862 155.903V155.972C270.266 155.997 270.631 156.081 270.957 156.223C271.287 156.365 271.568 156.553 271.801 156.786C272.034 157.016 272.213 157.28 272.338 157.578C272.463 157.876 272.526 158.196 272.526 158.537C272.526 159.04 272.392 159.486 272.125 159.875C271.858 160.264 271.49 160.57 271.021 160.791C270.555 161.01 270.021 161.119 269.419 161.119C268.859 161.119 268.352 161.023 267.898 160.83C267.446 160.636 267.081 160.361 266.803 160.003C266.527 159.645 266.375 159.219 266.347 158.724ZM274.346 161L278.155 153.466V153.402H273.749V152.273H279.519V153.44L275.722 161H274.346ZM281.103 159.807L281.04 160.271C280.997 160.612 280.924 160.967 280.822 161.337C280.723 161.709 280.619 162.054 280.511 162.372C280.406 162.69 280.319 162.943 280.251 163.131H279.348C279.385 162.955 279.436 162.716 279.501 162.415C279.567 162.116 279.63 161.783 279.693 161.413C279.755 161.044 279.802 160.668 279.834 160.284L279.876 159.807H281.103ZM282.885 161L286.695 153.466V153.402H282.289V152.273H288.058V153.44L284.262 161H282.885ZM292.232 161.119C291.698 161.119 291.218 161.017 290.792 160.812C290.368 160.605 290.03 160.321 289.777 159.96C289.524 159.599 289.39 159.188 289.372 158.724H290.651C290.682 159.099 290.848 159.408 291.149 159.649C291.451 159.891 291.811 160.011 292.232 160.011C292.567 160.011 292.864 159.935 293.122 159.781C293.384 159.625 293.588 159.411 293.736 159.138C293.887 158.865 293.962 158.554 293.962 158.205C293.962 157.849 293.885 157.533 293.732 157.254C293.578 156.976 293.367 156.757 293.097 156.598C292.83 156.439 292.523 156.358 292.176 156.355C291.912 156.355 291.647 156.401 291.38 156.491C291.113 156.582 290.897 156.702 290.732 156.849L289.526 156.67L290.016 152.273H294.814V153.402H291.111L290.834 155.844H290.885C291.056 155.679 291.282 155.541 291.563 155.43C291.847 155.32 292.151 155.264 292.475 155.264C293.006 155.264 293.479 155.391 293.894 155.643C294.311 155.896 294.64 156.241 294.878 156.679C295.12 157.114 295.239 157.614 295.236 158.179C295.239 158.744 295.111 159.249 294.853 159.692C294.597 160.135 294.242 160.484 293.787 160.74C293.336 160.993 292.817 161.119 292.232 161.119ZM299.759 161.145C299.086 161.142 298.51 160.964 298.033 160.612C297.556 160.26 297.191 159.747 296.938 159.074C296.685 158.401 296.559 157.589 296.559 156.641C296.559 155.695 296.685 154.886 296.938 154.216C297.194 153.545 297.56 153.034 298.037 152.682C298.517 152.33 299.091 152.153 299.759 152.153C300.427 152.153 300.999 152.331 301.476 152.686C301.954 153.038 302.319 153.55 302.571 154.22C302.827 154.888 302.955 155.695 302.955 156.641C302.955 157.592 302.829 158.405 302.576 159.078C302.323 159.749 301.958 160.261 301.481 160.616C301.003 160.969 300.429 161.145 299.759 161.145ZM299.759 160.007C300.35 160.007 300.811 159.719 301.144 159.142C301.479 158.565 301.647 157.732 301.647 156.641C301.647 155.916 301.57 155.304 301.417 154.804C301.266 154.301 301.049 153.92 300.765 153.662C300.483 153.401 300.148 153.27 299.759 153.27C299.171 153.27 298.709 153.56 298.374 154.139C298.039 154.719 297.87 155.553 297.867 156.641C297.867 157.368 297.942 157.983 298.093 158.486C298.246 158.986 298.463 159.365 298.745 159.624C299.026 159.879 299.364 160.007 299.759 160.007Z" fill="#0E7490"/>
</g>
<defs>
<filter id="filter0_dddd_104_1176" x="0" y="0" width="336" height="201" filterUnits="userSpaceOnUse" color-interpolation-filters="sRGB">
<feFlood flood-opacity="0" result="BackgroundImageFix"/>
<feColorMatrix in="SourceAlpha" type="matrix" values="0 0 0 0 0 0 0 0 0 0 0 0 0 0 0 0 0 0 127 0" result="hardAlpha"/>
<feMorphology radius="1" operator="dilate" in="SourceAlpha" result="effect1_dropShadow_104_1176"/>
<feOffset/>
<feComposite in2="hardAlpha" operator="out"/>
<feColorMatrix type="matrix" values="0 0 0 0 0.0313726 0 0 0 0 0.568627 0 0 0 0 0.698039 0 0 0 0.12 0"/>
<feBlend mode="normal" in2="BackgroundImageFix" result="effect1_dropShadow_104_1176"/>
<feColorMatrix in="SourceAlpha" type="matrix" values="0 0 0 0 0 0 0 0 0 0 0 0 0 0 0 0 0 0 127 0" result="hardAlpha"/>
<feOffset dy="1"/>
<feGaussianBlur stdDeviation="0.5"/>
<feComposite in2="hardAlpha" operator="out"/>
<feColorMatrix type="matrix" values="0 0 0 0 0.0313726 0 0 0 0 0.568627 0 0 0 0 0.698039 0 0 0 0.04 0"/>
<feBlend mode="normal" in2="effect1_dropShadow_104_1176" result="effect2_dropShadow_104_1176"/>
<feColorMatrix in="SourceAlpha" type="matrix" values="0 0 0 0 0 0 0 0 0 0 0 0 0 0 0 0 0 0 127 0" result="hardAlpha"/>
<feOffset dy="3"/>
<feGaussianBlur stdDeviation="1.5"/>
<feComposite in2="hardAlpha" operator="out"/>
<feColorMatrix type="matrix" values="0 0 0 0 0.0313726 0 0 0 0 0.568627 0 0 0 0 0.698039 0 0 0 0.04 0"/>
<feBlend mode="normal" in2="effect2_dropShadow_104_1176" result="effect3_dropShadow_104_1176"/>
<feColorMatrix in="SourceAlpha" type="matrix" values="0 0 0 0 0 0 0 0 0 0 0 0 0 0 0 0 0 0 127 0" result="hardAlpha"/>
<feOffset dy="6"/>
<feGaussianBlur stdDeviation="2"/>
<feComposite in2="hardAlpha" operator="out"/>
<feColorMatrix type="matrix" values="0 0 0 0 0.0313726 0 0 0 0 0.568627 0 0 0 0 0.698039 0 0 0 0.06 0"/>
<feBlend mode="normal" in2="effect3_dropShadow_104_1176" result="effect4_dropShadow_104_1176"/>
<feBlend mode="normal" in="SourceGraphic" in2="effect4_dropShadow_104_1176" result="shape"/>
</filter>
<filter id="filter1_dd_104_1176" x="229" y="81" width="85" height="40" filterUnits="userSpaceOnUse" color-interpolation-filters="sRGB">
<feFlood flood-opacity="0" result="BackgroundImageFix"/>
<feColorMatrix in="SourceAlpha" type="matrix" values="0 0 0 0 0 0 0 0 0 0 0 0 0 0 0 0 0 0 127 0" result="hardAlpha"/>
<feMorphology radius="1" operator="dilate" in="SourceAlpha" result="effect1_dropShadow_104_1176"/>
<feOffset/>
<feComposite in2="hardAlpha" operator="out"/>
<feColorMatrix type="matrix" values="0 0 0 0 0.0313726 0 0 0 0 0.568627 0 0 0 0 0.698039 0 0 0 1 0"/>
<feBlend mode="normal" in2="BackgroundImageFix" result="effect1_dropShadow_104_1176"/>
<feColorMatrix in="SourceAlpha" type="matrix" values="0 0 0 0 0 0 0 0 0 0 0 0 0 0 0 0 0 0 127 0" result="hardAlpha"/>
<feOffset dy="1"/>
<feGaussianBlur stdDeviation="1"/>
<feComposite in2="hardAlpha" operator="out"/>
<feColorMatrix type="matrix" values="0 0 0 0 0.298039 0 0 0 0 0.0196078 0 0 0 0 0.0980392 0 0 0 0.25 0"/>
<feBlend mode="normal" in2="effect1_dropShadow_104_1176" result="effect2_dropShadow_104_1176"/>
<feBlend mode="normal" in="SourceGraphic" in2="effect2_dropShadow_104_1176" result="shape"/>
</filter>
<linearGradient id="paint0_linear_104_1176" x1="144" y1="0" x2="144" y2="39" gradientUnits="userSpaceOnUse">
<stop stop-color="white"/>
<stop offset="1" stop-color="white" stop-opacity="0"/>
</linearGradient>
<linearGradient id="paint1_linear_104_1176" x1="144" y1="0" x2="144" y2="39" gradientUnits="userSpaceOnUse">
<stop stop-color="white"/>
<stop offset="1" stop-color="white" stop-opacity="0"/>
</linearGradient>
<linearGradient id="paint2_linear_104_1176" x1="24" y1="157" x2="312" y2="157" gradientUnits="userSpaceOnUse">
<stop offset="0.45" stop-color="#06B6D4"/>
<stop offset="0.45" stop-color="#E2E8F0"/>
</linearGradient>
<clipPath id="clip0_104_1176">
<rect width="64" height="26.6667" fill="white" transform="translate(24 17)"/>
</clipPath>
</defs>
</svg>
