<svg width="274" height="160" viewBox="0 0 274 160" fill="none" xmlns="http://www.w3.org/2000/svg">
<g filter="url(#filter0_dd_104_1049)">
<rect x="9.5" y="1.30664" width="255" height="59" rx="8" fill="white"/>
<path opacity="0.4" d="M28.5014 29.7962C28.8418 28.9602 30.41 27.3046 33.998 27.3046C34.2995 27.3046 35.0901 27.0013 35.0492 25.3583C35.0325 23.8733 35.5738 20.9355 37.8445 20.8088C38.2945 20.8066 38.7836 20.8066 39.3182 20.8066C41.1173 20.8066 42.0168 20.8066 42.7352 21.0588C43.8902 21.4643 44.8012 22.3217 45.232 23.4088C45.5 24.085 45.5 24.9316 45.5 26.6248V35.8066C45.5 36.7359 45.5 37.2006 45.4231 37.587C45.1075 39.1737 43.8671 40.4141 42.2804 40.7297C41.894 40.8066 41.4293 40.8066 40.5 40.8066H36.2273C32.9661 40.8066 31.3355 40.8066 30.2031 40.0088C29.8786 39.7802 29.5906 39.5091 29.3477 39.2037C28.5 38.1379 28.5 36.6032 28.5 33.5339V30.9884C28.5 30.5614 28.5 30.1652 28.5014 29.7962Z" fill="#60A5FA"/>
<path d="M32.5 36.8066V34.3066M32.5 34.3066V32.8066C32.5 32.3352 32.5 32.0995 32.6538 31.953C32.8075 31.8066 33.055 31.8066 33.55 31.8066H34.25C34.9749 31.8066 35.5625 32.3662 35.5625 33.0566C35.5625 33.747 34.9749 34.3066 34.25 34.3066H32.5ZM46.5 31.8066H45.1875C44.3625 31.8066 43.9501 31.8066 43.6938 32.0507C43.4375 32.2948 43.4375 32.6876 43.4375 33.4733V34.3066M43.4375 34.3066V36.8066M43.4375 34.3066H45.625M41.25 34.3066C41.25 35.6873 40.0747 36.8066 38.625 36.8066C38.2979 36.8066 38.1343 36.8066 38.0125 36.7396C37.7208 36.5792 37.75 36.2546 37.75 35.9733V32.6399C37.75 32.3586 37.7208 32.034 38.0125 31.8736C38.1343 31.8066 38.2979 31.8066 38.625 31.8066C40.0747 31.8066 41.25 32.9259 41.25 34.3066Z" stroke="#60A5FA" stroke-width="1.5" stroke-linecap="round" stroke-linejoin="round"/>
<path d="M40.5 40.8066H36.2273C32.9661 40.8066 31.3355 40.8066 30.2031 40.0088C29.8786 39.7802 29.5906 39.5091 29.3477 39.2037C28.5 38.1379 28.5 36.6032 28.5 33.5339V30.9884C28.5 28.0253 28.5 26.5437 28.9689 25.3604C29.7228 23.4581 31.3171 21.9575 33.3384 21.248C34.5956 20.8066 36.1698 20.8066 39.3182 20.8066C41.1173 20.8066 42.0168 20.8066 42.7352 21.0588C43.8902 21.4643 44.8012 22.3217 45.232 23.4088C45.5 24.085 45.5 24.9316 45.5 26.6248V28.8066" stroke="#60A5FA" stroke-width="1.5" stroke-linecap="round" stroke-linejoin="round"/>
<path d="M28.5 30.8066C28.5 28.9657 29.9924 27.4733 31.8333 27.4733C32.4991 27.4733 33.284 27.59 33.9314 27.4165C34.5065 27.2624 34.9558 26.8132 35.1099 26.238C35.2833 25.5907 35.1667 24.8058 35.1667 24.14C35.1667 22.299 36.6591 20.8066 38.5 20.8066" stroke="#60A5FA" stroke-width="1.5" stroke-linecap="round" stroke-linejoin="round"/>
<path d="M69.8111 19.4728H67.8168C67.7401 19.0467 67.5973 18.6717 67.3885 18.3478C67.1797 18.024 66.924 17.7491 66.6214 17.5233C66.3189 17.2974 65.9801 17.127 65.6051 17.0119C65.2344 16.8968 64.8402 16.8393 64.4226 16.8393C63.6683 16.8393 62.9929 17.0289 62.3963 17.4082C61.804 17.7875 61.3352 18.3436 60.9901 19.0765C60.6491 19.8095 60.4787 20.7044 60.4787 21.7612C60.4787 22.8265 60.6491 23.7257 60.9901 24.4586C61.3352 25.1916 61.8061 25.7456 62.4027 26.1206C62.9993 26.4956 63.6705 26.6831 64.4162 26.6831C64.8295 26.6831 65.2216 26.6277 65.5923 26.5169C65.9673 26.4018 66.3061 26.2335 66.6087 26.0119C66.9112 25.7903 67.1669 25.5197 67.3757 25.2001C67.5888 24.8762 67.7358 24.5055 67.8168 24.0879L69.8111 24.0943C69.7045 24.7377 69.4979 25.3301 69.1911 25.8713C68.8885 26.4082 68.4986 26.8727 68.0213 27.2647C67.5483 27.6525 67.0071 27.9529 66.3977 28.166C65.7884 28.3791 65.1236 28.4856 64.4034 28.4856C63.2699 28.4856 62.2599 28.2172 61.3736 27.6802C60.4872 27.139 59.7884 26.3656 59.277 25.3599C58.7699 24.3542 58.5163 23.1547 58.5163 21.7612C58.5163 20.3635 58.772 19.1639 59.2834 18.1625C59.7947 17.1568 60.4936 16.3855 61.38 15.8485C62.2663 15.3074 63.2741 15.0368 64.4034 15.0368C65.098 15.0368 65.7457 15.1369 66.3466 15.3372C66.9517 15.5332 67.495 15.823 67.9766 16.2065C68.4581 16.5858 68.8565 17.0502 69.1719 17.6C69.4872 18.1454 69.7003 18.7697 69.8111 19.4728ZM78.2406 24.2349V18.4885H80.1582V28.3066H78.2789V26.6064H78.1767C77.9508 27.1305 77.5886 27.5673 77.09 27.9167C76.5957 28.2619 75.9799 28.4345 75.2427 28.4345C74.612 28.4345 74.0538 28.296 73.568 28.019C73.0865 27.7377 72.7072 27.3223 72.4302 26.7725C72.1575 26.2228 72.0211 25.5431 72.0211 24.7335V18.4885H73.9324V24.5034C73.9324 25.1724 74.1177 25.7051 74.4885 26.1014C74.8592 26.4977 75.3407 26.6958 75.9331 26.6958C76.291 26.6958 76.6468 26.6064 77.0005 26.4274C77.3585 26.2484 77.6547 25.9778 77.889 25.6156C78.1277 25.2534 78.2449 24.7931 78.2406 24.2349ZM90.0835 20.8855L88.3512 21.1923C88.2788 20.9707 88.1637 20.7598 88.006 20.5595C87.8526 20.3592 87.6438 20.1951 87.3796 20.0673C87.1154 19.9395 86.7852 19.8755 86.3888 19.8755C85.8477 19.8755 85.396 19.997 85.0337 20.2399C84.6715 20.4785 84.4904 20.7875 84.4904 21.1667C84.4904 21.4949 84.6119 21.7591 84.8548 21.9593C85.0977 22.1596 85.4897 22.3237 86.0309 22.4515L87.5906 22.8095C88.494 23.0183 89.1673 23.34 89.6104 23.7747C90.0536 24.2093 90.2752 24.774 90.2752 25.4686C90.2752 26.0566 90.1048 26.5808 89.7638 27.041C89.4272 27.497 88.9563 27.8549 88.3512 28.1149C87.7504 28.3748 87.0536 28.5048 86.261 28.5048C85.1616 28.5048 84.2646 28.2704 83.57 27.8017C82.8754 27.3287 82.4492 26.6575 82.2915 25.7882L84.1388 25.5069C84.2539 25.9885 84.4904 26.3528 84.8484 26.6C85.2063 26.8429 85.6729 26.9643 86.2482 26.9643C86.8746 26.9643 87.3754 26.8343 87.7504 26.5744C88.1254 26.3102 88.3129 25.9885 88.3129 25.6092C88.3129 25.3024 88.1978 25.0446 87.9677 24.8358C87.7418 24.627 87.3945 24.4693 86.9258 24.3627L85.2638 23.9984C84.3477 23.7896 83.6701 23.4572 83.2312 23.0012C82.7965 22.5453 82.5792 21.9679 82.5792 21.269C82.5792 20.6895 82.7411 20.1824 83.065 19.7477C83.3888 19.313 83.8363 18.9743 84.4073 18.7314C84.9783 18.4842 85.6325 18.3606 86.3697 18.3606C87.4308 18.3606 88.266 18.5907 88.8754 19.051C89.4847 19.5069 89.8874 20.1184 90.0835 20.8855ZM96.9597 18.4885V20.0225H91.5968V18.4885H96.9597ZM93.035 16.1362H94.9462V25.4238C94.9462 25.7946 95.0016 26.0737 95.1124 26.2612C95.2232 26.4444 95.3659 26.5701 95.5407 26.6383C95.7196 26.7022 95.9135 26.7342 96.1223 26.7342C96.2757 26.7342 96.41 26.7235 96.525 26.7022C96.6401 26.6809 96.7296 26.6639 96.7935 26.6511L97.1387 28.2299C97.0279 28.2725 96.8702 28.3152 96.6657 28.3578C96.4611 28.4047 96.2054 28.4302 95.8986 28.4345C95.3958 28.443 94.927 28.3535 94.4924 28.166C94.0577 27.9785 93.7061 27.6887 93.4377 27.2967C93.1692 26.9047 93.035 26.4125 93.035 25.8201V16.1362ZM103.104 28.5048C102.184 28.5048 101.38 28.2939 100.694 27.872C100.008 27.4501 99.4755 26.8599 99.0962 26.1014C98.717 25.3429 98.5273 24.4565 98.5273 23.4423C98.5273 22.4238 98.717 21.5332 99.0962 20.7704C99.4755 20.0076 100.008 19.4153 100.694 18.9934C101.38 18.5716 102.184 18.3606 103.104 18.3606C104.025 18.3606 104.828 18.5716 105.514 18.9934C106.2 19.4153 106.733 20.0076 107.112 20.7704C107.491 21.5332 107.681 22.4238 107.681 23.4423C107.681 24.4565 107.491 25.3429 107.112 26.1014C106.733 26.8599 106.2 27.4501 105.514 27.872C104.828 28.2939 104.025 28.5048 103.104 28.5048ZM103.11 26.9004C103.707 26.9004 104.201 26.7427 104.593 26.4274C104.985 26.112 105.275 25.6923 105.463 25.1681C105.654 24.644 105.75 24.0666 105.75 23.4359C105.75 22.8095 105.654 22.2342 105.463 21.71C105.275 21.1816 104.985 20.7576 104.593 20.438C104.201 20.1184 103.707 19.9586 103.11 19.9586C102.51 19.9586 102.011 20.1184 101.615 20.438C101.223 20.7576 100.931 21.1816 100.739 21.71C100.551 22.2342 100.458 22.8095 100.458 23.4359C100.458 24.0666 100.551 24.644 100.739 25.1681C100.931 25.6923 101.223 26.112 101.615 26.4274C102.011 26.7427 102.51 26.9004 103.11 26.9004ZM109.814 28.3066V18.4885H111.649V20.0865H111.77C111.975 19.5453 112.309 19.1234 112.774 18.8208C113.238 18.514 113.794 18.3606 114.442 18.3606C115.098 18.3606 115.648 18.514 116.091 18.8208C116.539 19.1277 116.869 19.5495 117.082 20.0865H117.184C117.419 19.5623 117.791 19.1447 118.303 18.8336C118.814 18.5183 119.423 18.3606 120.131 18.3606C121.021 18.3606 121.748 18.6397 122.311 19.198C122.877 19.7562 123.161 20.5978 123.161 21.7228V28.3066H121.249V21.9018C121.249 21.237 121.068 20.7555 120.706 20.4572C120.344 20.1589 119.911 20.0098 119.409 20.0098C118.786 20.0098 118.303 20.2015 117.958 20.585C117.612 20.9643 117.44 21.4522 117.44 22.0488V28.3066H115.535V21.7804C115.535 21.2477 115.369 20.8194 115.036 20.4956C114.704 20.1717 114.271 20.0098 113.739 20.0098C113.377 20.0098 113.042 20.1056 112.735 20.2974C112.433 20.4849 112.188 20.747 112 21.0836C111.817 21.4203 111.725 21.8102 111.725 22.2534V28.3066H109.814ZM129.954 28.5048C128.987 28.5048 128.153 28.2981 127.455 27.8848C126.76 27.4672 126.223 26.8812 125.844 26.127C125.469 25.3684 125.281 24.4799 125.281 23.4615C125.281 22.4558 125.469 21.5694 125.844 20.8024C126.223 20.0353 126.751 19.4366 127.429 19.0062C128.111 18.5758 128.908 18.3606 129.82 18.3606C130.374 18.3606 130.911 18.4522 131.43 18.6355C131.95 18.8187 132.417 19.1064 132.83 19.4984C133.244 19.8904 133.57 20.3997 133.808 21.0261C134.047 21.6483 134.166 22.4047 134.166 23.2953V23.9728H126.362V22.541H132.293C132.293 22.0382 132.191 21.5929 131.987 21.2051C131.782 20.813 131.494 20.5041 131.124 20.2782C130.757 20.0524 130.327 19.9395 129.832 19.9395C129.295 19.9395 128.827 20.0716 128.426 20.3358C128.03 20.5957 127.723 20.9366 127.506 21.3585C127.293 21.7761 127.186 22.2299 127.186 22.72V23.8386C127.186 24.4949 127.301 25.0531 127.531 25.5133C127.766 25.9735 128.092 26.3251 128.509 26.568C128.927 26.8066 129.415 26.926 129.973 26.926C130.335 26.926 130.665 26.8748 130.964 26.7725C131.262 26.666 131.52 26.5083 131.737 26.2995C131.955 26.0907 132.121 25.8329 132.236 25.5261L134.045 25.8521C133.9 26.3848 133.64 26.8514 133.265 27.252C132.894 27.6483 132.428 27.9572 131.865 28.1788C131.307 28.3961 130.67 28.5048 129.954 28.5048ZM136.287 28.3066V18.4885H138.134V20.0481H138.236C138.415 19.5197 138.731 19.1042 139.182 18.8017C139.638 18.4949 140.154 18.3414 140.729 18.3414C140.849 18.3414 140.989 18.3457 141.151 18.3542C141.317 18.3627 141.447 18.3734 141.541 18.3862V20.2143C141.464 20.193 141.328 20.1696 141.132 20.144C140.936 20.1142 140.74 20.0993 140.544 20.0993C140.092 20.0993 139.689 20.1951 139.336 20.3869C138.986 20.5744 138.709 20.8365 138.505 21.1731C138.3 21.5055 138.198 21.8848 138.198 22.3109V28.3066H136.287ZM158.985 19.4728H156.991C156.914 19.0467 156.771 18.6717 156.562 18.3478C156.354 18.024 156.098 17.7491 155.795 17.5233C155.493 17.2974 155.154 17.127 154.779 17.0119C154.408 16.8968 154.014 16.8393 153.596 16.8393C152.842 16.8393 152.167 17.0289 151.57 17.4082C150.978 17.7875 150.509 18.3436 150.164 19.0765C149.823 19.8095 149.653 20.7044 149.653 21.7612C149.653 22.8265 149.823 23.7257 150.164 24.4586C150.509 25.1916 150.98 25.7456 151.577 26.1206C152.173 26.4956 152.844 26.6831 153.59 26.6831C154.003 26.6831 154.395 26.6277 154.766 26.5169C155.141 26.4018 155.48 26.2335 155.782 26.0119C156.085 25.7903 156.341 25.5197 156.55 25.2001C156.763 24.8762 156.91 24.5055 156.991 24.0879L158.985 24.0943C158.878 24.7377 158.672 25.3301 158.365 25.8713C158.062 26.4082 157.672 26.8727 157.195 27.2647C156.722 27.6525 156.181 27.9529 155.572 28.166C154.962 28.3791 154.297 28.4856 153.577 28.4856C152.444 28.4856 151.434 28.2172 150.547 27.6802C149.661 27.139 148.962 26.3656 148.451 25.3599C147.944 24.3542 147.69 23.1547 147.69 21.7612C147.69 20.3635 147.946 19.1639 148.457 18.1625C148.969 17.1568 149.667 16.3855 150.554 15.8485C151.44 15.3074 152.448 15.0368 153.577 15.0368C154.272 15.0368 154.92 15.1369 155.52 15.3372C156.126 15.5332 156.669 15.823 157.15 16.2065C157.632 16.5858 158.03 17.0502 158.346 17.6C158.661 18.1454 158.874 18.7697 158.985 19.4728ZM165.331 28.5048C164.41 28.5048 163.607 28.2939 162.921 27.872C162.235 27.4501 161.702 26.8599 161.323 26.1014C160.944 25.3429 160.754 24.4565 160.754 23.4423C160.754 22.4238 160.944 21.5332 161.323 20.7704C161.702 20.0076 162.235 19.4153 162.921 18.9934C163.607 18.5716 164.41 18.3606 165.331 18.3606C166.251 18.3606 167.054 18.5716 167.74 18.9934C168.426 19.4153 168.959 20.0076 169.338 20.7704C169.718 21.5332 169.907 22.4238 169.907 23.4423C169.907 24.4565 169.718 25.3429 169.338 26.1014C168.959 26.8599 168.426 27.4501 167.74 27.872C167.054 28.2939 166.251 28.5048 165.331 28.5048ZM165.337 26.9004C165.934 26.9004 166.428 26.7427 166.82 26.4274C167.212 26.112 167.502 25.6923 167.689 25.1681C167.881 24.644 167.977 24.0666 167.977 23.4359C167.977 22.8095 167.881 22.2342 167.689 21.71C167.502 21.1816 167.212 20.7576 166.82 20.438C166.428 20.1184 165.934 19.9586 165.337 19.9586C164.736 19.9586 164.238 20.1184 163.841 20.438C163.449 20.7576 163.157 21.1816 162.966 21.71C162.778 22.2342 162.684 22.8095 162.684 23.4359C162.684 24.0666 162.778 24.644 162.966 25.1681C163.157 25.6923 163.449 26.112 163.841 26.4274C164.238 26.7427 164.736 26.9004 165.337 26.9004ZM173.3 28.4281C172.95 28.4281 172.65 28.3045 172.399 28.0574C172.147 27.8059 172.021 27.5034 172.021 27.1497C172.021 26.8002 172.147 26.502 172.399 26.2548C172.65 26.0034 172.95 25.8777 173.3 25.8777C173.649 25.8777 173.95 26.0034 174.201 26.2548C174.453 26.502 174.578 26.8002 174.578 27.1497C174.578 27.3841 174.519 27.5993 174.399 27.7953C174.284 27.987 174.131 28.1404 173.939 28.2555C173.747 28.3706 173.534 28.4281 173.3 28.4281Z" fill="#475467"/>
<path d="M62.4802 39.1248V49.3066H61.2472V40.4174H61.1876L58.7018 42.068V40.8152L61.2472 39.1248H62.4802ZM66.5768 47.9146L66.4972 48.4515C66.4409 48.8294 66.3547 49.2337 66.2387 49.6646C66.126 50.0955 66.0084 50.5015 65.8857 50.8826C65.7631 51.2638 65.662 51.5671 65.5825 51.7924H64.6876C64.7307 51.5803 64.787 51.3002 64.8566 50.9522C64.9262 50.6042 64.9958 50.2148 65.0654 49.7839C65.1383 49.3564 65.198 48.9189 65.2444 48.4714L65.3041 47.9146H66.5768ZM71.6963 49.4458C70.9472 49.4458 70.3092 49.242 69.7822 48.8343C69.2552 48.4234 68.8525 47.8284 68.5741 47.0495C68.2957 46.2673 68.1565 45.3227 68.1565 44.2157C68.1565 43.1154 68.2957 42.1757 68.5741 41.3968C68.8559 40.6146 69.2602 40.0181 69.7872 39.6071C70.3175 39.1928 70.9539 38.9856 71.6963 38.9856C72.4387 38.9856 73.0734 39.1928 73.6004 39.6071C74.1307 40.0181 74.5351 40.6146 74.8135 41.3968C75.0952 42.1757 75.2361 43.1154 75.2361 44.2157C75.2361 45.3227 75.0969 46.2673 74.8184 47.0495C74.54 47.8284 74.1373 48.4234 73.6104 48.8343C73.0834 49.242 72.4453 49.4458 71.6963 49.4458ZM71.6963 48.3521C72.4387 48.3521 73.0154 47.9941 73.4264 47.2782C73.8374 46.5623 74.0429 45.5415 74.0429 44.2157C74.0429 43.3341 73.9484 42.5834 73.7595 41.9636C73.5739 41.3438 73.3054 40.8715 72.9541 40.5467C72.6061 40.2219 72.1868 40.0595 71.6963 40.0595C70.9605 40.0595 70.3854 40.4224 69.9711 41.1483C69.5568 41.8708 69.3497 42.8933 69.3497 44.2157C69.3497 45.0974 69.4425 45.8464 69.6281 46.4629C69.8137 47.0794 70.0805 47.5484 70.4285 47.8699C70.7799 48.1913 71.2024 48.3521 71.6963 48.3521ZM80.3071 49.4458C79.7238 49.4458 79.1984 49.3298 78.7311 49.0978C78.2638 48.8658 77.8892 48.5476 77.6075 48.1433C77.3258 47.7389 77.1717 47.2782 77.1452 46.7612H78.3383C78.3847 47.2219 78.5935 47.603 78.9648 47.9047C79.3393 48.2029 79.7867 48.3521 80.3071 48.3521C80.7247 48.3521 81.0959 48.2543 81.4207 48.0588C81.7488 47.8632 82.0057 47.5948 82.1913 47.2534C82.3802 46.9087 82.4747 46.5192 82.4747 46.085C82.4747 45.6409 82.3769 45.2449 82.1814 44.8968C81.9891 44.5455 81.724 44.2688 81.3859 44.0666C81.0479 43.8644 80.6617 43.7617 80.2275 43.7583C79.916 43.755 79.5961 43.8031 79.268 43.9025C78.9399 43.9986 78.6698 44.1229 78.4577 44.2754L77.3042 44.1362L77.9207 39.1248H83.2105V40.2186H78.9548L78.5969 43.2214H78.6565C78.8653 43.0557 79.1272 42.9181 79.442 42.8088C79.7569 42.6994 80.085 42.6447 80.4264 42.6447C81.0495 42.6447 81.6047 42.7939 82.0919 43.0922C82.5824 43.3871 82.9669 43.7915 83.2453 44.3052C83.527 44.819 83.6679 45.4056 83.6679 46.0652C83.6679 46.7148 83.522 47.2948 83.2304 47.8052C82.942 48.3123 82.5443 48.7134 82.0372 49.0083C81.5301 49.3 80.9534 49.4458 80.3071 49.4458ZM88.9639 49.4458C88.2148 49.4458 87.5768 49.242 87.0498 48.8343C86.5228 48.4234 86.1201 47.8284 85.8417 47.0495C85.5633 46.2673 85.4241 45.3227 85.4241 44.2157C85.4241 43.1154 85.5633 42.1757 85.8417 41.3968C86.1234 40.6146 86.5278 40.0181 87.0548 39.6071C87.5851 39.1928 88.2214 38.9856 88.9639 38.9856C89.7063 38.9856 90.341 39.1928 90.868 39.6071C91.3983 40.0181 91.8026 40.6146 92.0811 41.3968C92.3628 42.1757 92.5036 43.1154 92.5036 44.2157C92.5036 45.3227 92.3644 46.2673 92.086 47.0495C91.8076 47.8284 91.4049 48.4234 90.8779 48.8343C90.3509 49.242 89.7129 49.4458 88.9639 49.4458ZM88.9639 48.3521C89.7063 48.3521 90.283 47.9941 90.694 47.2782C91.105 46.5623 91.3105 45.5415 91.3105 44.2157C91.3105 43.3341 91.216 42.5834 91.0271 41.9636C90.8415 41.3438 90.573 40.8715 90.2217 40.5467C89.8737 40.2219 89.4544 40.0595 88.9639 40.0595C88.2281 40.0595 87.653 40.4224 87.2387 41.1483C86.8244 41.8708 86.6173 42.8933 86.6173 44.2157C86.6173 45.0974 86.7101 45.8464 86.8957 46.4629C87.0813 47.0794 87.3481 47.5484 87.6961 47.8699C88.0474 48.1913 88.47 48.3521 88.9639 48.3521ZM99.5235 39.1248V49.3066H98.3502V39.1248H99.5235ZM101.672 49.3066V41.6703H102.846V49.3066H101.672ZM102.269 40.3975C102.04 40.3975 101.843 40.3197 101.677 40.1639C101.515 40.0081 101.434 39.8208 101.434 39.6021C101.434 39.3833 101.515 39.1961 101.677 39.0403C101.843 38.8845 102.04 38.8066 102.269 38.8066C102.498 38.8066 102.693 38.8845 102.856 39.0403C103.021 39.1961 103.104 39.3833 103.104 39.6021C103.104 39.8208 103.021 40.0081 102.856 40.1639C102.693 40.3197 102.498 40.3975 102.269 40.3975ZM106.168 44.7129V49.3066H104.995V41.6703H106.128V42.8635H106.228C106.407 42.4757 106.678 42.1641 107.043 41.9288C107.408 41.6902 107.878 41.5708 108.455 41.5708C108.972 41.5708 109.424 41.6769 109.812 41.889C110.2 42.0978 110.502 42.416 110.717 42.8436C110.932 43.2678 111.04 43.8047 111.04 44.4544V49.3066H109.867V44.5339C109.867 43.934 109.711 43.4667 109.4 43.1319C109.088 42.7939 108.66 42.6248 108.117 42.6248C107.742 42.6248 107.408 42.706 107.113 42.8684C106.821 43.0308 106.591 43.2678 106.422 43.5794C106.253 43.8909 106.168 44.2688 106.168 44.7129ZM116.386 49.4657C115.65 49.4657 115.015 49.3033 114.482 48.9785C113.951 48.6504 113.542 48.193 113.254 47.6064C112.969 47.0164 112.826 46.3303 112.826 45.5481C112.826 44.7659 112.969 44.0765 113.254 43.4799C113.542 42.88 113.943 42.4127 114.457 42.0779C114.974 41.7399 115.577 41.5708 116.267 41.5708C116.664 41.5708 117.057 41.6371 117.445 41.7697C117.833 41.9023 118.186 42.1177 118.504 42.416C118.822 42.711 119.076 43.1021 119.264 43.5893C119.453 44.0765 119.548 44.6764 119.548 45.389V45.8862H113.661V44.872H118.355C118.355 44.4411 118.268 44.0566 118.096 43.7186C117.927 43.3805 117.685 43.1137 117.37 42.9181C117.059 42.7226 116.691 42.6248 116.267 42.6248C115.799 42.6248 115.395 42.7408 115.054 42.9728C114.715 43.2015 114.455 43.4998 114.273 43.8677C114.091 44.2356 114 44.63 114 45.051V45.7271C114 46.3038 114.099 46.7927 114.298 47.1937C114.5 47.5914 114.78 47.8947 115.138 48.1035C115.496 48.309 115.912 48.4118 116.386 48.4118C116.694 48.4118 116.973 48.3687 117.221 48.2825C117.473 48.193 117.69 48.0604 117.872 47.8848C118.055 47.7058 118.196 47.4837 118.295 47.2186L119.429 47.5368C119.309 47.9212 119.109 48.2593 118.827 48.551C118.545 48.8393 118.197 49.0647 117.783 49.2271C117.369 49.3862 116.903 49.4657 116.386 49.4657ZM125.27 49.3066V41.6703H126.443V49.3066H125.27ZM125.867 40.3975C125.638 40.3975 125.441 40.3197 125.275 40.1639C125.113 40.0081 125.032 39.8208 125.032 39.6021C125.032 39.3833 125.113 39.1961 125.275 39.0403C125.441 38.8845 125.638 38.8066 125.867 38.8066C126.095 38.8066 126.291 38.8845 126.453 39.0403C126.619 39.1961 126.702 39.3833 126.702 39.6021C126.702 39.8208 126.619 40.0081 126.453 40.1639C126.291 40.3197 126.095 40.3975 125.867 40.3975ZM131.913 41.6703V42.6646H127.956V41.6703H131.913ZM129.109 39.8407H130.283V47.1191C130.283 47.4506 130.331 47.6992 130.427 47.8649C130.526 48.0273 130.652 48.1367 130.805 48.193C130.961 48.246 131.125 48.2725 131.297 48.2725C131.426 48.2725 131.532 48.2659 131.615 48.2527C131.698 48.2361 131.764 48.2228 131.814 48.2129L132.053 49.2669C131.973 49.2967 131.862 49.3265 131.72 49.3564C131.577 49.3895 131.396 49.4061 131.178 49.4061C130.846 49.4061 130.521 49.3348 130.203 49.1923C129.888 49.0498 129.627 48.8327 129.418 48.541C129.212 48.2493 129.109 47.8815 129.109 47.4373V39.8407ZM136.798 49.4657C136.062 49.4657 135.428 49.3033 134.894 48.9785C134.364 48.6504 133.954 48.193 133.666 47.6064C133.381 47.0164 133.238 46.3303 133.238 45.5481C133.238 44.7659 133.381 44.0765 133.666 43.4799C133.954 42.88 134.355 42.4127 134.869 42.0779C135.386 41.7399 135.989 41.5708 136.679 41.5708C137.076 41.5708 137.469 41.6371 137.857 41.7697C138.245 41.9023 138.598 42.1177 138.916 42.416C139.234 42.711 139.488 43.1021 139.677 43.5893C139.866 44.0765 139.96 44.6764 139.96 45.389V45.8862H134.074V44.872H138.767C138.767 44.4411 138.681 44.0566 138.508 43.7186C138.339 43.3805 138.097 43.1137 137.782 42.9181C137.471 42.7226 137.103 42.6248 136.679 42.6248C136.211 42.6248 135.807 42.7408 135.466 42.9728C135.128 43.2015 134.867 43.4998 134.685 43.8677C134.503 44.2356 134.412 44.63 134.412 45.051V45.7271C134.412 46.3038 134.511 46.7927 134.71 47.1937C134.912 47.5914 135.192 47.8947 135.55 48.1035C135.908 48.309 136.324 48.4118 136.798 48.4118C137.106 48.4118 137.385 48.3687 137.633 48.2825C137.885 48.193 138.102 48.0604 138.285 47.8848C138.467 47.7058 138.608 47.4837 138.707 47.2186L139.841 47.5368C139.721 47.9212 139.521 48.2593 139.239 48.551C138.957 48.8393 138.609 49.0647 138.195 49.2271C137.781 49.3862 137.315 49.4657 136.798 49.4657ZM141.745 49.3066V41.6703H142.878V42.8635H142.978C143.137 42.4558 143.394 42.1393 143.748 41.9139C144.103 41.6852 144.529 41.5708 145.026 41.5708C145.53 41.5708 145.949 41.6852 146.284 41.9139C146.622 42.1393 146.885 42.4558 147.074 42.8635H147.154C147.349 42.469 147.643 42.1558 148.034 41.9238C148.425 41.6885 148.894 41.5708 149.441 41.5708C150.124 41.5708 150.682 41.7846 151.116 42.2122C151.55 42.6364 151.767 43.2976 151.767 44.1958V49.3066H150.594V44.1958C150.594 43.6324 150.44 43.2297 150.132 42.9877C149.824 42.7458 149.461 42.6248 149.043 42.6248C148.506 42.6248 148.09 42.7872 147.795 43.112C147.5 43.4335 147.353 43.8412 147.353 44.335V49.3066H146.16V44.0765C146.16 43.6423 146.019 43.2927 145.737 43.0275C145.455 42.7591 145.092 42.6248 144.648 42.6248C144.343 42.6248 144.058 42.706 143.793 42.8684C143.531 43.0308 143.319 43.2562 143.157 43.5446C142.998 43.8296 142.918 44.1594 142.918 44.5339V49.3066H141.745ZM159.322 43.3805L158.268 43.6788C158.202 43.5031 158.104 43.3324 157.975 43.1667C157.849 42.9977 157.676 42.8585 157.457 42.7491C157.239 42.6397 156.959 42.585 156.617 42.585C156.15 42.585 155.761 42.6928 155.449 42.9082C155.141 43.1203 154.987 43.3904 154.987 43.7186C154.987 44.0102 155.093 44.2406 155.305 44.4096C155.517 44.5787 155.848 44.7195 156.299 44.8322L157.433 45.1106C158.115 45.2763 158.624 45.5299 158.959 45.8713C159.294 46.2093 159.461 46.6452 159.461 47.1788C159.461 47.6163 159.335 48.0074 159.083 48.3521C158.835 48.6968 158.487 48.9686 158.039 49.1674C157.592 49.3663 157.071 49.4657 156.478 49.4657C155.699 49.4657 155.055 49.2967 154.544 48.9586C154.034 48.6206 153.711 48.1267 153.575 47.4771L154.688 47.1987C154.794 47.6097 154.995 47.9179 155.29 48.1234C155.588 48.3289 155.978 48.4316 156.458 48.4316C157.005 48.4316 157.439 48.3156 157.761 48.0836C158.086 47.8483 158.248 47.5666 158.248 47.2385C158.248 46.9733 158.155 46.7512 157.97 46.5723C157.784 46.39 157.499 46.2541 157.114 46.1646L155.842 45.8663C155.142 45.7006 154.629 45.4437 154.301 45.0957C153.976 44.7444 153.813 44.3052 153.813 43.7782C153.813 43.3474 153.934 42.9662 154.176 42.6348C154.421 42.3033 154.755 42.0431 155.176 41.8542C155.6 41.6653 156.08 41.5708 156.617 41.5708C157.373 41.5708 157.966 41.7366 158.397 42.068C158.831 42.3994 159.14 42.8369 159.322 43.3805Z" fill="#667085"/>
<g style="mix-blend-mode:multiply">
<rect x="208.5" y="19.8066" width="40" height="22" rx="11" fill="#F9FAFB"/>
<path d="M217.775 34.8066V26.0794H220.886C221.565 26.0794 222.127 26.2029 222.574 26.4501C223.02 26.6973 223.353 27.0353 223.575 27.4643C223.797 27.8904 223.907 28.3706 223.907 28.9047C223.907 29.4416 223.795 29.9245 223.571 30.3535C223.349 30.7797 223.014 31.1177 222.565 31.3677C222.119 31.6149 221.558 31.7385 220.882 31.7385H218.743V30.622H220.762C221.191 30.622 221.539 30.5481 221.806 30.4004C222.074 30.2498 222.27 30.0453 222.395 29.7868C222.52 29.5282 222.582 29.2342 222.582 28.9047C222.582 28.5751 222.52 28.2825 222.395 28.0268C222.27 27.7711 222.072 27.5708 221.802 27.426C221.535 27.2811 221.183 27.2086 220.745 27.2086H219.092V34.8066H217.775ZM228.276 34.8066H225.451V26.0794H228.366C229.221 26.0794 229.955 26.2541 230.569 26.6035C231.183 26.9501 231.653 27.4487 231.979 28.0993C232.309 28.747 232.474 29.524 232.474 30.4302C232.474 31.3393 232.308 32.1206 231.975 32.774C231.646 33.4274 231.168 33.9302 230.543 34.2825C229.918 34.6319 229.163 34.8066 228.276 34.8066ZM226.768 33.6561H228.204C228.869 33.6561 229.421 33.5311 229.862 33.2811C230.302 33.0282 230.631 32.6632 230.85 32.1859C231.069 31.7058 231.178 31.1206 231.178 30.4302C231.178 29.7456 231.069 29.1646 230.85 28.6873C230.634 28.21 230.312 27.8478 229.883 27.6007C229.454 27.3535 228.921 27.2299 228.285 27.2299H226.768V33.6561ZM234.111 34.8066V26.0794H239.523V27.2129H235.428V29.872H239.135V31.0012H235.428V34.8066H234.111Z" fill="#64748B"/>
</g>
</g>
<g filter="url(#filter1_dd_104_1049)">
<rect x="3.5" y="94.3066" width="267" height="59" rx="8" fill="white"/>
<path opacity="0.4" d="M24.5 118.805V121.333C24.5 122.535 24.5 123.137 24.7987 123.62C25.0974 124.103 25.6353 124.372 26.7112 124.91L31.5 127.305L36.2889 124.91C37.3647 124.372 37.9026 124.103 38.2013 123.62C38.5 123.137 38.5 122.535 38.5 121.333V118.806L39.7172 119.617C40.5909 120.2 41.0278 120.491 41.2645 120.935C41.5013 121.379 41.4995 121.901 41.496 122.945C41.4918 124.202 41.4801 125.483 41.4478 126.779C41.371 129.853 41.3327 131.391 40.2023 132.521C39.0719 133.652 37.5138 133.69 34.3977 133.768C32.4591 133.817 30.5377 133.817 28.5991 133.768C25.483 133.69 23.925 133.652 22.7946 132.521C21.6642 131.391 21.6258 129.853 21.549 126.779C21.5167 125.483 21.505 124.202 21.5008 122.945C21.4973 121.901 21.4955 121.379 21.7323 120.935C21.969 120.491 22.4059 120.2 23.2796 119.617L24.4984 118.805H24.5Z" fill="#1E40AF"/>
<path d="M24.4984 118.805L23.2796 119.617C22.4059 120.2 21.969 120.491 21.7323 120.935C21.4955 121.379 21.4973 121.901 21.5008 122.945C21.505 124.202 21.5167 125.483 21.549 126.779C21.6258 129.853 21.6642 131.391 22.7946 132.521C23.925 133.652 25.483 133.69 28.5991 133.768C30.5377 133.817 32.4591 133.817 34.3977 133.768C37.5138 133.69 39.0719 133.652 40.2023 132.521C41.3327 131.391 41.371 129.853 41.4478 126.779C41.4801 125.483 41.4918 124.202 41.496 122.945C41.4995 121.901 41.5013 121.379 41.2645 120.935C41.0278 120.491 40.5909 120.2 39.7172 119.617L38.4984 118.805" stroke="#1E40AF" stroke-width="1.5" stroke-linejoin="round"/>
<path d="M21.5 121.805L28.413 125.952C29.917 126.855 30.669 127.306 31.5 127.306C32.331 127.306 33.083 126.855 34.587 125.952L41.5 121.805" stroke="#1E40AF" stroke-width="1.5" stroke-linejoin="round"/>
<path d="M24.5 123.807V117.807C24.5 115.921 24.5 114.978 25.0858 114.392C25.6716 113.807 26.6144 113.807 28.5 113.807H34.5C36.3856 113.807 37.3284 113.807 37.9142 114.392C38.5 114.978 38.5 115.921 38.5 117.807V123.807" stroke="#1E40AF" stroke-width="1.5"/>
<path d="M29.5 121.807H33.5M29.5 117.807H33.5" stroke="#1E40AF" stroke-width="1.5" stroke-linecap="round" stroke-linejoin="round"/>
<path d="M63.8111 112.473H61.8168C61.7401 112.047 61.5973 111.672 61.3885 111.348C61.1797 111.024 60.924 110.749 60.6214 110.523C60.3189 110.297 59.9801 110.127 59.6051 110.012C59.2344 109.897 58.8402 109.839 58.4226 109.839C57.6683 109.839 56.9929 110.029 56.3963 110.408C55.804 110.787 55.3352 111.344 54.9901 112.077C54.6491 112.809 54.4787 113.704 54.4787 114.761C54.4787 115.827 54.6491 116.726 54.9901 117.459C55.3352 118.192 55.8061 118.746 56.4027 119.121C56.9993 119.496 57.6705 119.683 58.4162 119.683C58.8295 119.683 59.2216 119.628 59.5923 119.517C59.9673 119.402 60.3061 119.233 60.6087 119.012C60.9112 118.79 61.1669 118.52 61.3757 118.2C61.5888 117.876 61.7358 117.506 61.8168 117.088L63.8111 117.094C63.7045 117.738 63.4979 118.33 63.1911 118.871C62.8885 119.408 62.4986 119.873 62.0213 120.265C61.5483 120.653 61.0071 120.953 60.3977 121.166C59.7884 121.379 59.1236 121.486 58.4034 121.486C57.2699 121.486 56.2599 121.217 55.3736 120.68C54.4872 120.139 53.7884 119.366 53.277 118.36C52.7699 117.354 52.5163 116.155 52.5163 114.761C52.5163 113.363 52.772 112.164 53.2834 111.162C53.7947 110.157 54.4936 109.385 55.38 108.849C56.2663 108.307 57.2741 108.037 58.4034 108.037C59.098 108.037 59.7457 108.137 60.3466 108.337C60.9517 108.533 61.495 108.823 61.9766 109.206C62.4581 109.586 62.8565 110.05 63.1719 110.6C63.4872 111.145 63.7003 111.77 63.8111 112.473ZM70.1568 121.505C69.2363 121.505 68.4331 121.294 67.747 120.872C67.0609 120.45 66.5282 119.86 66.149 119.101C65.7697 118.343 65.5801 117.456 65.5801 116.442C65.5801 115.424 65.7697 114.533 66.149 113.77C66.5282 113.008 67.0609 112.415 67.747 111.993C68.4331 111.572 69.2363 111.361 70.1568 111.361C71.0772 111.361 71.8805 111.572 72.5666 111.993C73.2527 112.415 73.7853 113.008 74.1646 113.77C74.5439 114.533 74.7335 115.424 74.7335 116.442C74.7335 117.456 74.5439 118.343 74.1646 119.101C73.7853 119.86 73.2527 120.45 72.5666 120.872C71.8805 121.294 71.0772 121.505 70.1568 121.505ZM70.1632 119.9C70.7598 119.9 71.2541 119.743 71.6461 119.427C72.0382 119.112 72.3279 118.692 72.5154 118.168C72.7072 117.644 72.8031 117.067 72.8031 116.436C72.8031 115.809 72.7072 115.234 72.5154 114.71C72.3279 114.182 72.0382 113.758 71.6461 113.438C71.2541 113.118 70.7598 112.959 70.1632 112.959C69.5623 112.959 69.0637 113.118 68.6674 113.438C68.2754 113.758 67.9835 114.182 67.7917 114.71C67.6042 115.234 67.5105 115.809 67.5105 116.436C67.5105 117.067 67.6042 117.644 67.7917 118.168C67.9835 118.692 68.2754 119.112 68.6674 119.427C69.0637 119.743 69.5623 119.9 70.1632 119.9ZM78.7781 115.477V121.307H76.8668V111.488H78.7013V113.086H78.8228C79.0487 112.567 79.4023 112.149 79.8839 111.834C80.3697 111.518 80.9812 111.361 81.7184 111.361C82.3874 111.361 82.9734 111.501 83.4762 111.782C83.979 112.059 84.369 112.473 84.646 113.023C84.9229 113.572 85.0614 114.252 85.0614 115.062V121.307H83.1502V115.292C83.1502 114.58 82.9648 114.024 82.5941 113.623C82.2234 113.219 81.7141 113.016 81.0664 113.016C80.6232 113.016 80.229 113.112 79.8839 113.304C79.543 113.496 79.2724 113.777 79.0721 114.148C78.8761 114.514 78.7781 114.957 78.7781 115.477ZM92.2077 111.488V113.023H86.8448V111.488H92.2077ZM88.283 109.136H90.1942V118.424C90.1942 118.795 90.2496 119.074 90.3604 119.261C90.4712 119.444 90.614 119.57 90.7887 119.638C90.9677 119.702 91.1616 119.734 91.3704 119.734C91.5238 119.734 91.658 119.724 91.7731 119.702C91.8881 119.681 91.9776 119.664 92.0415 119.651L92.3867 121.23C92.2759 121.273 92.1183 121.315 91.9137 121.358C91.7092 121.405 91.4535 121.43 91.1467 121.434C90.6438 121.443 90.1751 121.354 89.7404 121.166C89.3058 120.979 88.9542 120.689 88.6857 120.297C88.4173 119.905 88.283 119.412 88.283 118.82V109.136ZM94.3219 121.307V111.488H96.1692V113.048H96.2715C96.4505 112.52 96.7658 112.104 97.2175 111.802C97.6735 111.495 98.1891 111.341 98.7644 111.341C98.8837 111.341 99.0243 111.346 99.1863 111.354C99.3525 111.363 99.4824 111.373 99.5762 111.386V113.214C99.4995 113.193 99.3631 113.17 99.1671 113.144C98.9711 113.114 98.775 113.099 98.579 113.099C98.1273 113.099 97.7246 113.195 97.3709 113.387C97.0215 113.574 96.7445 113.836 96.54 114.173C96.3354 114.506 96.2331 114.885 96.2331 115.311V121.307H94.3219ZM103.999 121.524C103.377 121.524 102.815 121.409 102.312 121.179C101.809 120.944 101.411 120.606 101.117 120.162C100.827 119.719 100.682 119.176 100.682 118.532C100.682 117.979 100.789 117.523 101.002 117.165C101.215 116.807 101.502 116.523 101.865 116.314C102.227 116.106 102.632 115.948 103.079 115.841C103.526 115.735 103.982 115.654 104.447 115.599C105.035 115.53 105.512 115.475 105.879 115.432C106.245 115.385 106.512 115.311 106.678 115.209C106.844 115.106 106.927 114.94 106.927 114.71V114.665C106.927 114.107 106.769 113.675 106.454 113.368C106.143 113.061 105.678 112.907 105.061 112.907C104.417 112.907 103.91 113.05 103.539 113.336C103.173 113.617 102.919 113.93 102.779 114.275L100.982 113.866C101.195 113.27 101.507 112.788 101.916 112.422C102.329 112.051 102.804 111.782 103.341 111.616C103.878 111.446 104.443 111.361 105.035 111.361C105.427 111.361 105.843 111.407 106.281 111.501C106.725 111.591 107.138 111.757 107.521 112C107.909 112.243 108.227 112.59 108.474 113.042C108.721 113.489 108.845 114.071 108.845 114.787V121.307H106.978V119.964H106.901C106.778 120.211 106.593 120.454 106.345 120.693C106.098 120.932 105.781 121.13 105.393 121.287C105.005 121.445 104.541 121.524 103.999 121.524ZM104.415 119.99C104.943 119.99 105.395 119.885 105.77 119.677C106.149 119.468 106.437 119.195 106.633 118.858C106.833 118.518 106.933 118.153 106.933 117.765V116.5C106.865 116.568 106.733 116.632 106.537 116.692C106.345 116.747 106.126 116.796 105.879 116.839C105.632 116.877 105.391 116.913 105.156 116.947C104.922 116.977 104.726 117.003 104.568 117.024C104.198 117.071 103.859 117.15 103.552 117.26C103.249 117.371 103.007 117.531 102.823 117.74C102.644 117.944 102.555 118.217 102.555 118.558C102.555 119.031 102.73 119.389 103.079 119.632C103.428 119.871 103.874 119.99 104.415 119.99ZM115.526 121.505C114.576 121.505 113.757 121.29 113.071 120.859C112.39 120.425 111.865 119.826 111.499 119.063C111.132 118.3 110.949 117.427 110.949 116.442C110.949 115.445 111.137 114.565 111.512 113.802C111.887 113.035 112.415 112.437 113.097 112.006C113.779 111.576 114.582 111.361 115.507 111.361C116.252 111.361 116.917 111.499 117.501 111.776C118.085 112.049 118.556 112.432 118.914 112.927C119.276 113.421 119.491 113.998 119.559 114.659H117.699C117.597 114.199 117.363 113.802 116.996 113.47C116.634 113.138 116.148 112.971 115.539 112.971C115.006 112.971 114.539 113.112 114.139 113.393C113.743 113.67 113.434 114.067 113.212 114.582C112.99 115.094 112.88 115.699 112.88 116.398C112.88 117.113 112.988 117.731 113.206 118.251C113.423 118.771 113.73 119.174 114.126 119.459C114.527 119.745 114.998 119.888 115.539 119.888C115.901 119.888 116.229 119.822 116.523 119.689C116.821 119.553 117.071 119.359 117.271 119.108C117.475 118.856 117.618 118.554 117.699 118.2H119.559C119.491 118.835 119.284 119.402 118.939 119.9C118.594 120.399 118.132 120.791 117.552 121.077C116.977 121.362 116.301 121.505 115.526 121.505ZM126.186 111.488V113.023H120.823V111.488H126.186ZM122.262 109.136H124.173V118.424C124.173 118.795 124.228 119.074 124.339 119.261C124.45 119.444 124.593 119.57 124.767 119.638C124.946 119.702 125.14 119.734 125.349 119.734C125.502 119.734 125.637 119.724 125.752 119.702C125.867 119.681 125.956 119.664 126.02 119.651L126.365 121.23C126.254 121.273 126.097 121.315 125.892 121.358C125.688 121.405 125.432 121.43 125.125 121.434C124.622 121.443 124.154 121.354 123.719 121.166C123.284 120.979 122.933 120.689 122.664 120.297C122.396 119.905 122.262 119.412 122.262 118.82V109.136ZM132.331 121.505C131.41 121.505 130.607 121.294 129.921 120.872C129.235 120.45 128.702 119.86 128.323 119.101C127.944 118.343 127.754 117.456 127.754 116.442C127.754 115.424 127.944 114.533 128.323 113.77C128.702 113.008 129.235 112.415 129.921 111.993C130.607 111.572 131.41 111.361 132.331 111.361C133.251 111.361 134.054 111.572 134.74 111.993C135.426 112.415 135.959 113.008 136.338 113.77C136.718 114.533 136.907 115.424 136.907 116.442C136.907 117.456 136.718 118.343 136.338 119.101C135.959 119.86 135.426 120.45 134.74 120.872C134.054 121.294 133.251 121.505 132.331 121.505ZM132.337 119.9C132.934 119.9 133.428 119.743 133.82 119.427C134.212 119.112 134.502 118.692 134.689 118.168C134.881 117.644 134.977 117.067 134.977 116.436C134.977 115.809 134.881 115.234 134.689 114.71C134.502 114.182 134.212 113.758 133.82 113.438C133.428 113.118 132.934 112.959 132.337 112.959C131.736 112.959 131.238 113.118 130.841 113.438C130.449 113.758 130.157 114.182 129.966 114.71C129.778 115.234 129.684 115.809 129.684 116.436C129.684 117.067 129.778 117.644 129.966 118.168C130.157 118.692 130.449 119.112 130.841 119.427C131.238 119.743 131.736 119.9 132.337 119.9ZM139.041 121.307V111.488H140.888V113.048H140.99C141.169 112.52 141.485 112.104 141.936 111.802C142.392 111.495 142.908 111.341 143.483 111.341C143.602 111.341 143.743 111.346 143.905 111.354C144.071 111.363 144.201 111.373 144.295 111.386V113.214C144.218 113.193 144.082 113.17 143.886 113.144C143.69 113.114 143.494 113.099 143.298 113.099C142.846 113.099 142.443 113.195 142.09 113.387C141.74 113.574 141.463 113.836 141.259 114.173C141.054 114.506 140.952 114.885 140.952 115.311V121.307H139.041ZM152.841 108.216V121.307H150.866V108.216H152.841ZM157.475 115.477V121.307H155.564V111.488H157.399V113.086H157.52C157.746 112.567 158.1 112.149 158.581 111.834C159.067 111.518 159.678 111.361 160.416 111.361C161.085 111.361 161.671 111.501 162.173 111.782C162.676 112.059 163.066 112.473 163.343 113.023C163.62 113.572 163.759 114.252 163.759 115.062V121.307H161.847V115.292C161.847 114.58 161.662 114.024 161.291 113.623C160.921 113.219 160.411 113.016 159.764 113.016C159.32 113.016 158.926 113.112 158.581 113.304C158.24 113.496 157.97 113.777 157.769 114.148C157.573 114.514 157.475 114.957 157.475 115.477ZM170.458 121.505C169.507 121.505 168.689 121.29 168.003 120.859C167.321 120.425 166.797 119.826 166.431 119.063C166.064 118.3 165.881 117.427 165.881 116.442C165.881 115.445 166.068 114.565 166.443 113.802C166.818 113.035 167.347 112.437 168.029 112.006C168.71 111.576 169.514 111.361 170.438 111.361C171.184 111.361 171.849 111.499 172.433 111.776C173.017 112.049 173.487 112.432 173.845 112.927C174.208 113.421 174.423 113.998 174.491 114.659H172.631C172.529 114.199 172.294 113.802 171.928 113.47C171.566 113.138 171.08 112.971 170.47 112.971C169.938 112.971 169.471 113.112 169.07 113.393C168.674 113.67 168.365 114.067 168.144 114.582C167.922 115.094 167.811 115.699 167.811 116.398C167.811 117.113 167.92 117.731 168.137 118.251C168.355 118.771 168.661 119.174 169.058 119.459C169.458 119.745 169.929 119.888 170.47 119.888C170.833 119.888 171.161 119.822 171.455 119.689C171.753 119.553 172.002 119.359 172.203 119.108C172.407 118.856 172.55 118.554 172.631 118.2H174.491C174.423 118.835 174.216 119.402 173.871 119.9C173.526 120.399 173.063 120.791 172.484 121.077C171.909 121.362 171.233 121.505 170.458 121.505Z" fill="#475467"/>
<path d="M56.5974 132.125V142.307H55.3644V133.417H55.3048L52.819 135.068V133.815L55.3644 132.125H56.5974ZM62.8467 142.446C62.0976 142.446 61.4596 142.242 60.9326 141.834C60.4056 141.423 60.0029 140.828 59.7245 140.05C59.4461 139.267 59.3069 138.323 59.3069 137.216C59.3069 136.115 59.4461 135.176 59.7245 134.397C60.0062 133.615 60.4106 133.018 60.9376 132.607C61.4679 132.193 62.1043 131.986 62.8467 131.986C63.5891 131.986 64.2238 132.193 64.7508 132.607C65.2811 133.018 65.6855 133.615 65.9639 134.397C66.2456 135.176 66.3865 136.115 66.3865 137.216C66.3865 138.323 66.2472 139.267 65.9688 140.05C65.6904 140.828 65.2877 141.423 64.7607 141.834C64.2338 142.242 63.5957 142.446 62.8467 142.446ZM62.8467 141.352C63.5891 141.352 64.1658 140.994 64.5768 140.278C64.9878 139.562 65.1933 138.541 65.1933 137.216C65.1933 136.334 65.0988 135.583 64.9099 134.964C64.7243 134.344 64.4558 133.872 64.1045 133.547C63.7565 133.222 63.3372 133.059 62.8467 133.059C62.1109 133.059 61.5358 133.422 61.1215 134.148C60.7072 134.871 60.5001 135.893 60.5001 137.216C60.5001 138.097 60.5929 138.846 60.7785 139.463C60.9641 140.079 61.2309 140.548 61.5789 140.87C61.9302 141.191 62.3528 141.352 62.8467 141.352ZM73.4063 132.125V142.307H72.233V132.125H73.4063ZM75.5553 142.307V134.67H76.7286V142.307H75.5553ZM76.1519 133.398C75.9232 133.398 75.726 133.32 75.5603 133.164C75.3979 133.008 75.3167 132.821 75.3167 132.602C75.3167 132.383 75.3979 132.196 75.5603 132.04C75.726 131.885 75.9232 131.807 76.1519 131.807C76.3806 131.807 76.5761 131.885 76.7385 132.04C76.9043 132.196 76.9871 132.383 76.9871 132.602C76.9871 132.821 76.9043 133.008 76.7385 133.164C76.5761 133.32 76.3806 133.398 76.1519 133.398ZM80.0509 137.713V142.307H78.8776V134.67H80.0111V135.863H80.1105C80.2895 135.476 80.5613 135.164 80.9259 134.929C81.2905 134.69 81.7611 134.571 82.3378 134.571C82.8548 134.571 83.3073 134.677 83.695 134.889C84.0828 135.098 84.3844 135.416 84.5999 135.844C84.8153 136.268 84.923 136.805 84.923 137.454V142.307H83.7497V137.534C83.7497 136.934 83.594 136.467 83.2824 136.132C82.9709 135.794 82.5433 135.625 81.9997 135.625C81.6252 135.625 81.2905 135.706 80.9955 135.868C80.7038 136.031 80.4735 136.268 80.3044 136.579C80.1354 136.891 80.0509 137.269 80.0509 137.713ZM90.2687 142.466C89.5329 142.466 88.8982 142.303 88.3646 141.979C87.8343 141.65 87.425 141.193 87.1366 140.606C86.8516 140.016 86.7091 139.33 86.7091 138.548C86.7091 137.766 86.8516 137.077 87.1366 136.48C87.425 135.88 87.826 135.413 88.3398 135.078C88.8568 134.74 89.46 134.571 90.1494 134.571C90.5471 134.571 90.9399 134.637 91.3277 134.77C91.7155 134.902 92.0684 135.118 92.3866 135.416C92.7048 135.711 92.9584 136.102 93.1473 136.589C93.3362 137.077 93.4307 137.676 93.4307 138.389V138.886H87.5443V137.872H92.2375C92.2375 137.441 92.1513 137.057 91.979 136.719C91.8099 136.381 91.568 136.114 91.2531 135.918C90.9416 135.723 90.5737 135.625 90.1494 135.625C89.6821 135.625 89.2777 135.741 88.9363 135.973C88.5983 136.202 88.3381 136.5 88.1558 136.868C87.9735 137.236 87.8824 137.63 87.8824 138.051V138.727C87.8824 139.304 87.9818 139.793 88.1807 140.194C88.3828 140.591 88.6629 140.895 89.0209 141.104C89.3788 141.309 89.7948 141.412 90.2687 141.412C90.577 141.412 90.8554 141.369 91.104 141.282C91.3559 141.193 91.5729 141.06 91.7552 140.885C91.9375 140.706 92.0784 140.484 92.1778 140.219L93.3113 140.537C93.192 140.921 92.9915 141.259 92.7098 141.551C92.4281 141.839 92.08 142.065 91.6657 142.227C91.2515 142.386 90.7858 142.466 90.2687 142.466ZM99.153 142.307V134.67H100.326V142.307H99.153ZM99.7496 133.398C99.5209 133.398 99.3237 133.32 99.1579 133.164C98.9955 133.008 98.9143 132.821 98.9143 132.602C98.9143 132.383 98.9955 132.196 99.1579 132.04C99.3237 131.885 99.5209 131.807 99.7496 131.807C99.9782 131.807 100.174 131.885 100.336 132.04C100.502 132.196 100.585 132.383 100.585 132.602C100.585 132.821 100.502 133.008 100.336 133.164C100.174 133.32 99.9782 133.398 99.7496 133.398ZM105.796 134.67V135.665H101.839V134.67H105.796ZM102.992 132.841H104.166V140.119C104.166 140.451 104.214 140.699 104.31 140.865C104.409 141.027 104.535 141.137 104.688 141.193C104.843 141.246 105.007 141.273 105.18 141.273C105.309 141.273 105.415 141.266 105.498 141.253C105.581 141.236 105.647 141.223 105.697 141.213L105.935 142.267C105.856 142.297 105.745 142.327 105.602 142.356C105.46 142.39 105.279 142.406 105.06 142.406C104.729 142.406 104.404 142.335 104.086 142.192C103.771 142.05 103.509 141.833 103.301 141.541C103.095 141.249 102.992 140.881 102.992 140.437V132.841ZM110.681 142.466C109.945 142.466 109.31 142.303 108.777 141.979C108.246 141.65 107.837 141.193 107.549 140.606C107.264 140.016 107.121 139.33 107.121 138.548C107.121 137.766 107.264 137.077 107.549 136.48C107.837 135.88 108.238 135.413 108.752 135.078C109.269 134.74 109.872 134.571 110.562 134.571C110.959 134.571 111.352 134.637 111.74 134.77C112.128 134.902 112.481 135.118 112.799 135.416C113.117 135.711 113.37 136.102 113.559 136.589C113.748 137.077 113.843 137.676 113.843 138.389V138.886H107.956V137.872H112.65C112.65 137.441 112.563 137.057 112.391 136.719C112.222 136.381 111.98 136.114 111.665 135.918C111.354 135.723 110.986 135.625 110.562 135.625C110.094 135.625 109.69 135.741 109.348 135.973C109.01 136.202 108.75 136.5 108.568 136.868C108.386 137.236 108.294 137.63 108.294 138.051V138.727C108.294 139.304 108.394 139.793 108.593 140.194C108.795 140.591 109.075 140.895 109.433 141.104C109.791 141.309 110.207 141.412 110.681 141.412C110.989 141.412 111.267 141.369 111.516 141.282C111.768 141.193 111.985 141.06 112.167 140.885C112.35 140.706 112.491 140.484 112.59 140.219L113.723 140.537C113.604 140.921 113.404 141.259 113.122 141.551C112.84 141.839 112.492 142.065 112.078 142.227C111.664 142.386 111.198 142.466 110.681 142.466ZM115.628 142.307V134.67H116.761V135.863H116.861C117.02 135.456 117.276 135.139 117.631 134.914C117.986 134.685 118.412 134.571 118.909 134.571C119.413 134.571 119.832 134.685 120.167 134.914C120.505 135.139 120.768 135.456 120.957 135.863H121.037C121.232 135.469 121.526 135.156 121.917 134.924C122.308 134.689 122.777 134.571 123.324 134.571C124.006 134.571 124.565 134.785 124.999 135.212C125.433 135.636 125.65 136.298 125.65 137.196V142.307H124.477V137.196C124.477 136.632 124.323 136.23 124.015 135.988C123.706 135.746 123.343 135.625 122.926 135.625C122.389 135.625 121.973 135.787 121.678 136.112C121.383 136.434 121.236 136.841 121.236 137.335V142.307H120.042V137.077C120.042 136.642 119.901 136.293 119.62 136.028C119.338 135.759 118.975 135.625 118.531 135.625C118.226 135.625 117.941 135.706 117.676 135.868C117.414 136.031 117.202 136.256 117.04 136.545C116.88 136.83 116.801 137.159 116.801 137.534V142.307H115.628ZM133.205 136.381L132.151 136.679C132.084 136.503 131.987 136.332 131.857 136.167C131.731 135.998 131.559 135.858 131.34 135.749C131.122 135.64 130.841 135.585 130.5 135.585C130.033 135.585 129.643 135.693 129.332 135.908C129.024 136.12 128.869 136.39 128.869 136.719C128.869 137.01 128.975 137.241 129.188 137.41C129.4 137.579 129.731 137.72 130.182 137.832L131.315 138.111C131.998 138.276 132.507 138.53 132.842 138.871C133.176 139.209 133.344 139.645 133.344 140.179C133.344 140.616 133.218 141.007 132.966 141.352C132.717 141.697 132.369 141.969 131.922 142.167C131.475 142.366 130.954 142.466 130.361 142.466C129.582 142.466 128.937 142.297 128.427 141.959C127.917 141.621 127.593 141.127 127.457 140.477L128.571 140.199C128.677 140.61 128.878 140.918 129.173 141.123C129.471 141.329 129.86 141.432 130.341 141.432C130.888 141.432 131.322 141.316 131.644 141.084C131.968 140.848 132.131 140.567 132.131 140.238C132.131 139.973 132.038 139.751 131.852 139.572C131.667 139.39 131.382 139.254 130.997 139.165L129.725 138.866C129.025 138.701 128.511 138.444 128.183 138.096C127.859 137.744 127.696 137.305 127.696 136.778C127.696 136.347 127.817 135.966 128.059 135.635C128.304 135.303 128.637 135.043 129.058 134.854C129.483 134.665 129.963 134.571 130.5 134.571C131.256 134.571 131.849 134.737 132.28 135.068C132.714 135.399 133.022 135.837 133.205 136.381Z" fill="#667085"/>
<g style="mix-blend-mode:multiply">
<rect x="207.5" y="112.807" width="47" height="22" rx="11" fill="#F9FAFB"/>
<path d="M216.637 127.807V119.079H222.108V120.213H217.953V122.872H221.823V124.001H217.953V126.673H222.159V127.807H216.637ZM223.765 127.807V121.261H224.988V122.327H225.069C225.205 121.966 225.428 121.684 225.738 121.483C226.047 121.278 226.418 121.176 226.85 121.176C227.287 121.176 227.654 121.278 227.949 121.483C228.248 121.687 228.468 121.969 228.61 122.327H228.678C228.834 121.977 229.083 121.699 229.424 121.491C229.765 121.281 230.171 121.176 230.643 121.176C231.236 121.176 231.721 121.362 232.096 121.734C232.474 122.106 232.662 122.667 232.662 123.417V127.807H231.388V123.537C231.388 123.094 231.268 122.773 231.026 122.574C230.785 122.375 230.496 122.275 230.161 122.275C229.746 122.275 229.424 122.403 229.194 122.659C228.964 122.912 228.849 123.237 228.849 123.635V127.807H227.579V123.456C227.579 123.101 227.468 122.815 227.246 122.599C227.025 122.383 226.736 122.275 226.381 122.275C226.14 122.275 225.917 122.339 225.712 122.467C225.51 122.592 225.347 122.767 225.222 122.991C225.1 123.216 225.039 123.476 225.039 123.771V127.807H223.765ZM236.275 127.952C235.86 127.952 235.485 127.875 235.15 127.721C234.815 127.565 234.549 127.339 234.353 127.044C234.16 126.748 234.063 126.386 234.063 125.957C234.063 125.588 234.134 125.284 234.276 125.045C234.419 124.807 234.61 124.618 234.852 124.479C235.093 124.339 235.363 124.234 235.661 124.163C235.96 124.092 236.264 124.038 236.573 124.001C236.965 123.956 237.284 123.919 237.528 123.89C237.772 123.859 237.95 123.809 238.061 123.741C238.171 123.673 238.227 123.562 238.227 123.409V123.379C238.227 123.007 238.122 122.719 237.911 122.514C237.704 122.309 237.394 122.207 236.982 122.207C236.553 122.207 236.215 122.302 235.968 122.493C235.724 122.68 235.555 122.889 235.461 123.119L234.264 122.846C234.406 122.449 234.613 122.128 234.886 121.883C235.161 121.636 235.478 121.457 235.836 121.346C236.194 121.233 236.57 121.176 236.965 121.176C237.227 121.176 237.504 121.207 237.796 121.27C238.092 121.329 238.367 121.44 238.623 121.602C238.882 121.764 239.093 121.996 239.258 122.297C239.423 122.595 239.505 122.983 239.505 123.46V127.807H238.261V126.912H238.21C238.127 127.077 238.004 127.238 237.839 127.398C237.674 127.557 237.463 127.689 237.204 127.794C236.945 127.899 236.636 127.952 236.275 127.952ZM236.552 126.929C236.904 126.929 237.205 126.859 237.455 126.72C237.708 126.581 237.9 126.399 238.031 126.175C238.164 125.947 238.231 125.704 238.231 125.446V124.602C238.186 124.648 238.097 124.69 237.967 124.73C237.839 124.767 237.693 124.8 237.528 124.828C237.363 124.854 237.203 124.878 237.046 124.9C236.89 124.92 236.759 124.937 236.654 124.952C236.407 124.983 236.181 125.035 235.977 125.109C235.775 125.183 235.613 125.29 235.491 125.429C235.372 125.565 235.312 125.747 235.312 125.974C235.312 126.29 235.428 126.528 235.661 126.69C235.894 126.849 236.191 126.929 236.552 126.929ZM241.202 127.807V121.261H242.476V127.807H241.202ZM241.846 120.251C241.624 120.251 241.434 120.177 241.275 120.03C241.118 119.879 241.04 119.7 241.04 119.493C241.04 119.282 241.118 119.104 241.275 118.956C241.434 118.805 241.624 118.73 241.846 118.73C242.067 118.73 242.256 118.805 242.412 118.956C242.572 119.104 242.651 119.282 242.651 119.493C242.651 119.7 242.572 119.879 242.412 120.03C242.256 120.177 242.067 120.251 241.846 120.251ZM245.465 119.079V127.807H244.191V119.079H245.465Z" fill="#64748B"/>
</g>
</g>
<line x1="137.5" y1="60.3066" x2="137.5" y2="94.3066" stroke="#BDCCFF"/>
<defs>
<filter id="filter0_dd_104_1049" x="6.5" y="0.306641" width="261" height="66" filterUnits="userSpaceOnUse" color-interpolation-filters="sRGB">
<feFlood flood-opacity="0" result="BackgroundImageFix"/>
<feColorMatrix in="SourceAlpha" type="matrix" values="0 0 0 0 0 0 0 0 0 0 0 0 0 0 0 0 0 0 127 0" result="hardAlpha"/>
<feMorphology radius="1" operator="dilate" in="SourceAlpha" result="effect1_dropShadow_104_1049"/>
<feOffset/>
<feComposite in2="hardAlpha" operator="out"/>
<feColorMatrix type="matrix" values="0 0 0 0 0.145098 0 0 0 0 0.388235 0 0 0 0 0.921569 0 0 0 0.12 0"/>
<feBlend mode="normal" in2="BackgroundImageFix" result="effect1_dropShadow_104_1049"/>
<feColorMatrix in="SourceAlpha" type="matrix" values="0 0 0 0 0 0 0 0 0 0 0 0 0 0 0 0 0 0 127 0" result="hardAlpha"/>
<feOffset dy="3"/>
<feGaussianBlur stdDeviation="1.5"/>
<feComposite in2="hardAlpha" operator="out"/>
<feColorMatrix type="matrix" values="0 0 0 0 0.145098 0 0 0 0 0.388235 0 0 0 0 0.921569 0 0 0 0.04 0"/>
<feBlend mode="normal" in2="effect1_dropShadow_104_1049" result="effect2_dropShadow_104_1049"/>
<feBlend mode="normal" in="SourceGraphic" in2="effect2_dropShadow_104_1049" result="shape"/>
</filter>
<filter id="filter1_dd_104_1049" x="0.5" y="93.3066" width="273" height="66" filterUnits="userSpaceOnUse" color-interpolation-filters="sRGB">
<feFlood flood-opacity="0" result="BackgroundImageFix"/>
<feColorMatrix in="SourceAlpha" type="matrix" values="0 0 0 0 0 0 0 0 0 0 0 0 0 0 0 0 0 0 127 0" result="hardAlpha"/>
<feMorphology radius="1" operator="dilate" in="SourceAlpha" result="effect1_dropShadow_104_1049"/>
<feOffset/>
<feComposite in2="hardAlpha" operator="out"/>
<feColorMatrix type="matrix" values="0 0 0 0 0.145098 0 0 0 0 0.388235 0 0 0 0 0.921569 0 0 0 0.12 0"/>
<feBlend mode="normal" in2="BackgroundImageFix" result="effect1_dropShadow_104_1049"/>
<feColorMatrix in="SourceAlpha" type="matrix" values="0 0 0 0 0 0 0 0 0 0 0 0 0 0 0 0 0 0 127 0" result="hardAlpha"/>
<feOffset dy="3"/>
<feGaussianBlur stdDeviation="1.5"/>
<feComposite in2="hardAlpha" operator="out"/>
<feColorMatrix type="matrix" values="0 0 0 0 0.145098 0 0 0 0 0.388235 0 0 0 0 0.921569 0 0 0 0.04 0"/>
<feBlend mode="normal" in2="effect1_dropShadow_104_1049" result="effect2_dropShadow_104_1049"/>
<feBlend mode="normal" in="SourceGraphic" in2="effect2_dropShadow_104_1049" result="shape"/>
</filter>
</defs>
</svg>
