<svg width="380" height="213" viewBox="0 0 380 213" fill="none" xmlns="http://www.w3.org/2000/svg">
<line x1="190" y1="55.8066" x2="190" y2="128.807" stroke="#84CC16"/>
<g filter="url(#filter0_dddd_104_1207)">
<rect x="12.5" y="1.80664" width="355" height="55" rx="6" fill="white"/>
<path d="M29.7784 27.8066V16.1703H37.0739V17.6816H31.5341V21.2271H36.6932V22.7328H31.5341V26.2953H37.142V27.8066H29.7784ZM39.2827 27.8066V19.0794H40.9134V20.4998H41.0213C41.2031 20.0188 41.5005 19.6438 41.9134 19.3748C42.3262 19.1021 42.8205 18.9657 43.3963 18.9657C43.9796 18.9657 44.4683 19.1021 44.8622 19.3748C45.2599 19.6475 45.5535 20.0225 45.7429 20.4998H45.8338C46.0421 20.0339 46.3736 19.6627 46.8281 19.3862C47.2827 19.1059 47.8243 18.9657 48.4531 18.9657C49.2448 18.9657 49.8906 19.2138 50.3906 19.71C50.8944 20.2063 51.1463 20.9544 51.1463 21.9544V27.8066H49.4474V22.1135C49.4474 21.5225 49.2865 21.0945 48.9645 20.8294C48.6425 20.5642 48.258 20.4316 47.8111 20.4316C47.258 20.4316 46.8281 20.6021 46.5213 20.943C46.2145 21.2801 46.0611 21.7138 46.0611 22.2441V27.8066H44.3679V22.0055C44.3679 21.532 44.2202 21.1513 43.9247 20.8635C43.6293 20.5756 43.2448 20.4316 42.7713 20.4316C42.4493 20.4316 42.152 20.5169 41.8793 20.6873C41.6103 20.854 41.3925 21.0869 41.2259 21.3862C41.063 21.6854 40.9815 22.032 40.9815 22.426V27.8066H39.2827ZM55.9631 27.9998C55.41 27.9998 54.91 27.8975 54.4631 27.693C54.0161 27.4847 53.6619 27.1835 53.4006 26.7896C53.143 26.3957 53.0142 25.9127 53.0142 25.3407C53.0142 24.8483 53.1089 24.443 53.2983 24.1248C53.4877 23.8066 53.7434 23.5547 54.0653 23.3691C54.3873 23.1835 54.7472 23.0434 55.1449 22.9487C55.5426 22.854 55.9479 22.782 56.3608 22.7328C56.8835 22.6722 57.3078 22.6229 57.6335 22.585C57.9593 22.5434 58.196 22.4771 58.3438 22.3862C58.4915 22.2953 58.5653 22.1475 58.5653 21.943V21.9032C58.5653 21.407 58.4252 21.0225 58.1449 20.7498C57.8684 20.4771 57.4555 20.3407 56.9062 20.3407C56.3343 20.3407 55.8835 20.4676 55.554 20.7214C55.2282 20.9714 55.0028 21.2498 54.8778 21.5566L53.2812 21.193C53.4706 20.6627 53.7472 20.2347 54.1108 19.9089C54.4782 19.5794 54.9006 19.3407 55.3778 19.193C55.8551 19.0415 56.357 18.9657 56.8835 18.9657C57.232 18.9657 57.6013 19.0074 57.9915 19.0907C58.3854 19.1703 58.7528 19.318 59.0938 19.5339C59.4384 19.7498 59.7206 20.0585 59.9403 20.46C60.16 20.8578 60.2699 21.3748 60.2699 22.0112V27.8066H58.6108V26.6135H58.5426C58.4328 26.8332 58.268 27.0491 58.0483 27.2612C57.8286 27.4733 57.5464 27.6494 57.2017 27.7896C56.857 27.9297 56.4441 27.9998 55.9631 27.9998ZM56.3324 26.6362C56.8021 26.6362 57.2036 26.5434 57.5369 26.3578C57.8741 26.1722 58.1297 25.9297 58.304 25.6305C58.482 25.3275 58.571 25.0036 58.571 24.6589V23.5339C58.5104 23.5945 58.393 23.6513 58.2188 23.7044C58.0483 23.7536 57.8532 23.7972 57.6335 23.835C57.4138 23.8691 57.1998 23.9013 56.9915 23.9316C56.7831 23.9582 56.6089 23.9809 56.4688 23.9998C56.1392 24.0415 55.8381 24.1116 55.5653 24.21C55.2964 24.3085 55.0805 24.4506 54.9176 24.6362C54.7585 24.818 54.679 25.0604 54.679 25.3635C54.679 25.7839 54.8343 26.1021 55.1449 26.318C55.4555 26.5301 55.8513 26.6362 56.3324 26.6362ZM62.5327 27.8066V19.0794H64.2315V27.8066H62.5327ZM63.3906 17.7328C63.0952 17.7328 62.8414 17.6343 62.6293 17.4373C62.4209 17.2366 62.3168 16.9979 62.3168 16.7214C62.3168 16.4411 62.4209 16.2025 62.6293 16.0055C62.8414 15.8047 63.0952 15.7044 63.3906 15.7044C63.6861 15.7044 63.938 15.8047 64.1463 16.0055C64.3584 16.2025 64.4645 16.4411 64.4645 16.7214C64.4645 16.9979 64.3584 17.2366 64.1463 17.4373C63.938 17.6343 63.6861 17.7328 63.3906 17.7328ZM68.2159 16.1703V27.8066H66.517V16.1703H68.2159ZM81.2188 19.2271C81.1581 18.6892 80.9081 18.2725 80.4688 17.9771C80.0294 17.6779 79.4763 17.5282 78.8097 17.5282C78.3324 17.5282 77.9195 17.604 77.571 17.7555C77.2225 17.9032 76.9517 18.1078 76.7585 18.3691C76.5691 18.6267 76.4744 18.9203 76.4744 19.2498C76.4744 19.5263 76.5388 19.765 76.6676 19.9657C76.8002 20.1665 76.9725 20.335 77.1847 20.4714C77.4006 20.604 77.6316 20.7157 77.8778 20.8066C78.1241 20.8938 78.3608 20.9657 78.5881 21.0225L79.7244 21.318C80.0956 21.4089 80.4763 21.532 80.8665 21.6873C81.2566 21.8426 81.6184 22.0472 81.9517 22.301C82.285 22.5547 82.554 22.8691 82.7585 23.2441C82.9669 23.6191 83.071 24.068 83.071 24.5907C83.071 25.2498 82.9006 25.835 82.5597 26.3464C82.2225 26.8578 81.732 27.2612 81.0881 27.5566C80.4479 27.8521 79.6733 27.9998 78.7642 27.9998C77.893 27.9998 77.1392 27.8616 76.5028 27.585C75.8665 27.3085 75.3684 26.9165 75.0085 26.4089C74.6487 25.8975 74.4498 25.2915 74.4119 24.5907H76.1733C76.2074 25.0112 76.3438 25.3616 76.5824 25.6419C76.8248 25.9184 77.1335 26.1248 77.5085 26.2612C77.8873 26.3938 78.3021 26.46 78.7528 26.46C79.2491 26.46 79.6903 26.3824 80.0767 26.2271C80.4669 26.068 80.7737 25.8483 80.9972 25.568C81.2206 25.2839 81.3324 24.9525 81.3324 24.5737C81.3324 24.229 81.2339 23.9468 81.0369 23.7271C80.8438 23.5074 80.5805 23.3256 80.2472 23.1816C79.9176 23.0377 79.5445 22.9108 79.1278 22.801L77.7528 22.426C76.821 22.1722 76.0824 21.7991 75.5369 21.3066C74.9953 20.8142 74.7244 20.1627 74.7244 19.3521C74.7244 18.6816 74.9063 18.0964 75.2699 17.5964C75.6335 17.0964 76.1259 16.7082 76.7472 16.4316C77.3684 16.1513 78.0691 16.0112 78.8494 16.0112C79.6373 16.0112 80.3324 16.1494 80.9347 16.426C81.5407 16.7025 82.018 17.0832 82.3665 17.568C82.715 18.0491 82.8968 18.6021 82.9119 19.2271H81.2188ZM88.794 27.9828C87.9342 27.9828 87.1937 27.7991 86.5724 27.4316C85.955 27.0604 85.4777 26.5396 85.1406 25.8691C84.8073 25.1949 84.6406 24.4051 84.6406 23.4998C84.6406 22.6059 84.8073 21.818 85.1406 21.1362C85.4777 20.4544 85.9474 19.9222 86.5497 19.5396C87.1558 19.157 87.8641 18.9657 88.6747 18.9657C89.1671 18.9657 89.6444 19.0472 90.1065 19.21C90.5687 19.3729 90.9834 19.6286 91.3509 19.9771C91.7183 20.3256 92.008 20.7782 92.2202 21.335C92.4323 21.8881 92.5384 22.5604 92.5384 23.3521V23.9544H85.6009V22.6816H90.8736C90.8736 22.2347 90.7827 21.8388 90.6009 21.4941C90.419 21.1457 90.1634 20.871 89.8338 20.6703C89.508 20.4695 89.1255 20.3691 88.6861 20.3691C88.2088 20.3691 87.7921 20.4866 87.4361 20.7214C87.0838 20.9525 86.8111 21.2555 86.6179 21.6305C86.4285 22.0017 86.3338 22.4051 86.3338 22.8407V23.835C86.3338 24.4184 86.4361 24.9146 86.6406 25.3237C86.849 25.7328 87.1387 26.0453 87.5099 26.2612C87.8812 26.4733 88.3149 26.5794 88.8111 26.5794C89.133 26.5794 89.4266 26.5339 89.6918 26.443C89.9569 26.3483 90.1861 26.2082 90.3793 26.0225C90.5724 25.8369 90.7202 25.6078 90.8224 25.335L92.4304 25.6248C92.3016 26.0983 92.0705 26.5131 91.7372 26.8691C91.4077 27.2214 90.9929 27.496 90.4929 27.693C89.9967 27.8862 89.4304 27.9828 88.794 27.9828ZM96.1222 22.6248V27.8066H94.4233V19.0794H96.054V20.4998H96.1619C96.3627 20.0377 96.6771 19.6665 97.1051 19.3862C97.5369 19.1059 98.0805 18.9657 98.7358 18.9657C99.3305 18.9657 99.8513 19.0907 100.298 19.3407C100.745 19.5869 101.092 19.9544 101.338 20.443C101.584 20.9316 101.707 21.5358 101.707 22.2555V27.8066H100.009V22.46C100.009 21.8275 99.8438 21.3332 99.5142 20.9771C99.1847 20.6172 98.732 20.4373 98.1562 20.4373C97.7623 20.4373 97.4119 20.5225 97.1051 20.693C96.8021 20.8635 96.5616 21.1135 96.3835 21.443C96.2093 21.7688 96.1222 22.1627 96.1222 22.6248ZM108.06 19.0794V20.443H103.293V19.0794H108.06ZM104.571 16.9885H106.27V25.2441C106.27 25.5737 106.319 25.8218 106.418 25.9885C106.516 26.1513 106.643 26.2631 106.798 26.3237C106.957 26.3805 107.13 26.4089 107.315 26.4089C107.452 26.4089 107.571 26.3994 107.673 26.3805C107.776 26.3616 107.855 26.3464 107.912 26.335L108.219 27.7385C108.12 27.7763 107.98 27.8142 107.798 27.8521C107.616 27.8938 107.389 27.9165 107.116 27.9203C106.67 27.9279 106.253 27.8483 105.866 27.6816C105.48 27.515 105.168 27.2574 104.929 26.9089C104.69 26.5604 104.571 26.1229 104.571 25.5964V16.9885Z" fill="#1E293B"/>
<path d="M32.353 39.2612V40.1135H28.9609V39.2612H32.353ZM29.9496 37.693H30.9553V43.9316C30.9553 44.2157 30.9964 44.4288 31.0788 44.5708C31.1641 44.71 31.272 44.8038 31.4027 44.8521C31.5362 44.8975 31.6768 44.9203 31.8246 44.9203C31.9354 44.9203 32.0263 44.9146 32.0973 44.9032C32.1683 44.889 32.2251 44.8777 32.2678 44.8691L32.4723 45.7725C32.4041 45.7981 32.3089 45.8237 32.1868 45.8493C32.0646 45.8777 31.9098 45.8919 31.7223 45.8919C31.4382 45.8919 31.1598 45.8308 30.8871 45.7086C30.6172 45.5865 30.3928 45.4004 30.2138 45.1504C30.0376 44.9004 29.9496 44.585 29.9496 44.2044V37.693ZM36.4545 45.943C35.8636 45.943 35.3452 45.8024 34.8991 45.5211C34.456 45.2399 34.1094 44.8464 33.8594 44.3407C33.6122 43.835 33.4886 43.2441 33.4886 42.568C33.4886 41.8862 33.6122 41.291 33.8594 40.7825C34.1094 40.274 34.456 39.8791 34.8991 39.5978C35.3452 39.3166 35.8636 39.176 36.4545 39.176C37.0455 39.176 37.5625 39.3166 38.0057 39.5978C38.4517 39.8791 38.7983 40.274 39.0455 40.7825C39.2955 41.291 39.4205 41.8862 39.4205 42.568C39.4205 43.2441 39.2955 43.835 39.0455 44.3407C38.7983 44.8464 38.4517 45.2399 38.0057 45.5211C37.5625 45.8024 37.0455 45.943 36.4545 45.943ZM36.4545 45.0396C36.9034 45.0396 37.2727 44.9245 37.5625 44.6944C37.8523 44.4643 38.0668 44.1618 38.206 43.7868C38.3452 43.4118 38.4148 43.0055 38.4148 42.568C38.4148 42.1305 38.3452 41.7228 38.206 41.345C38.0668 40.9672 37.8523 40.6618 37.5625 40.4288C37.2727 40.1958 36.9034 40.0794 36.4545 40.0794C36.0057 40.0794 35.6364 40.1958 35.3466 40.4288C35.0568 40.6618 34.8423 40.9672 34.7031 41.345C34.5639 41.7228 34.4943 42.1305 34.4943 42.568C34.4943 43.0055 34.5639 43.4118 34.7031 43.7868C34.8423 44.1618 35.0568 44.4643 35.3466 44.6944C35.6364 44.9245 36.0057 45.0396 36.4545 45.0396ZM46.9897 45.943C46.3761 45.943 45.8477 45.7981 45.4045 45.5083C44.9613 45.2186 44.6204 44.8194 44.3817 44.3109C44.1431 43.8024 44.0238 43.2214 44.0238 42.568C44.0238 41.9032 44.146 41.3166 44.3903 40.8081C44.6374 40.2967 44.9812 39.8975 45.4215 39.6106C45.8647 39.3208 46.3817 39.176 46.9727 39.176C47.4329 39.176 47.8477 39.2612 48.217 39.4316C48.5863 39.6021 48.8888 39.8407 49.1246 40.1475C49.3604 40.4544 49.5067 40.8123 49.5636 41.2214H48.5579C48.4812 40.9231 48.3107 40.6589 48.0465 40.4288C47.7852 40.1958 47.4329 40.0794 46.9897 40.0794C46.5977 40.0794 46.2539 40.1816 45.9585 40.3862C45.6658 40.5879 45.4371 40.8734 45.2724 41.2427C45.1104 41.6092 45.0295 42.0396 45.0295 42.5339C45.0295 43.0396 45.109 43.4799 45.2681 43.8549C45.43 44.2299 45.6573 44.5211 45.9499 44.7285C46.2454 44.9359 46.592 45.0396 46.9897 45.0396C47.2511 45.0396 47.4883 44.9941 47.7013 44.9032C47.9144 44.8123 48.0948 44.6816 48.2425 44.5112C48.3903 44.3407 48.4954 44.1362 48.5579 43.8975H49.5636C49.5067 44.2839 49.3661 44.6319 49.1417 44.9416C48.9201 45.2484 48.6261 45.4927 48.2596 45.6745C47.896 45.8535 47.4727 45.943 46.9897 45.943ZM55.1587 43.1305V39.2612H56.1644V45.8066H55.1587V44.6987H55.0906C54.9371 45.0311 54.6985 45.3137 54.3746 45.5467C54.0508 45.7768 53.6417 45.8919 53.1474 45.8919C52.7383 45.8919 52.3746 45.8024 52.0565 45.6234C51.7383 45.4416 51.4883 45.1689 51.3065 44.8052C51.1246 44.4387 51.0337 43.9771 51.0337 43.4203V39.2612H52.0394V43.3521C52.0394 43.8294 52.1729 44.21 52.44 44.4941C52.7099 44.7782 53.0536 44.9203 53.4712 44.9203C53.7212 44.9203 53.9755 44.8564 54.234 44.7285C54.4954 44.6007 54.7141 44.4047 54.8903 44.1404C55.0692 43.8762 55.1587 43.5396 55.1587 43.1305ZM62.6428 40.7271L61.7393 40.9828C61.6825 40.8322 61.5987 40.6859 61.4879 40.5439C61.38 40.399 61.2322 40.2797 61.0447 40.1859C60.8572 40.0922 60.6172 40.0453 60.3246 40.0453C59.924 40.0453 59.5902 40.1376 59.3232 40.3223C59.0589 40.5041 58.9268 40.7356 58.9268 41.0169C58.9268 41.2669 59.0178 41.4643 59.1996 41.6092C59.3814 41.7541 59.6655 41.8748 60.0518 41.9714L61.0234 42.21C61.6087 42.3521 62.0447 42.5694 62.3317 42.862C62.6186 43.1518 62.7621 43.5254 62.7621 43.9828C62.7621 44.3578 62.6541 44.693 62.4382 44.9885C62.2251 45.2839 61.9268 45.5169 61.5433 45.6873C61.1598 45.8578 60.7138 45.943 60.2053 45.943C59.5376 45.943 58.9851 45.7981 58.5476 45.5083C58.1101 45.2186 57.8331 44.7953 57.7166 44.2385L58.6712 43.9998C58.7621 44.3521 58.9339 44.6163 59.1868 44.7924C59.4425 44.9686 59.7763 45.0566 60.1882 45.0566C60.657 45.0566 61.0291 44.9572 61.3047 44.7583C61.5831 44.5566 61.7223 44.3152 61.7223 44.0339C61.7223 43.8066 61.6428 43.6163 61.4837 43.4629C61.3246 43.3066 61.0803 43.1902 60.7507 43.1135L59.6598 42.8578C59.0604 42.7157 58.62 42.4956 58.3388 42.1973C58.0604 41.8961 57.9212 41.5197 57.9212 41.068C57.9212 40.6987 58.0249 40.372 58.2322 40.0879C58.4425 39.8038 58.728 39.5808 59.0888 39.4189C59.4524 39.2569 59.8643 39.176 60.3246 39.176C60.9723 39.176 61.4808 39.318 61.8501 39.6021C62.2223 39.8862 62.4865 40.2612 62.6428 40.7271ZM67.1225 39.2612V40.1135H63.7305V39.2612H67.1225ZM64.7191 37.693H65.7248V43.9316C65.7248 44.2157 65.766 44.4288 65.8484 44.5708C65.9336 44.71 66.0415 44.8038 66.1722 44.8521C66.3058 44.8975 66.4464 44.9203 66.5941 44.9203C66.7049 44.9203 66.7958 44.9146 66.8668 44.9032C66.9379 44.889 66.9947 44.8777 67.0373 44.8691L67.2418 45.7725C67.1737 45.7981 67.0785 45.8237 66.9563 45.8493C66.8342 45.8777 66.6793 45.8919 66.4918 45.8919C66.2077 45.8919 65.9293 45.8308 65.6566 45.7086C65.3867 45.5865 65.1623 45.4004 64.9833 45.1504C64.8072 44.9004 64.7191 44.585 64.7191 44.2044V37.693ZM73.6637 48.1078C72.7944 48.1078 72.0259 47.9885 71.3583 47.7498C70.6907 47.514 70.1296 47.166 69.6751 46.7058C69.2205 46.2456 68.8768 45.6816 68.6438 45.014C68.4109 44.3464 68.2944 43.5822 68.2944 42.7214C68.2944 41.889 68.4123 41.1447 68.6481 40.4885C68.8867 39.8322 69.2319 39.2754 69.6836 38.818C70.1381 38.3578 70.6893 38.0069 71.337 37.7654C71.9876 37.524 72.7234 37.4032 73.5444 37.4032C74.3427 37.4032 75.0415 37.5339 75.641 37.7953C76.2433 38.0538 76.7461 38.4047 77.1495 38.8478C77.5558 39.2882 77.8597 39.7839 78.0614 40.335C78.266 40.8862 78.3683 41.4544 78.3683 42.0396C78.3683 42.4515 78.3484 42.8691 78.3086 43.2924C78.2688 43.7157 78.185 44.1049 78.0572 44.46C77.9293 44.8123 77.7319 45.0964 77.4648 45.3123C77.2006 45.5282 76.8427 45.6362 76.391 45.6362C76.1921 45.6362 75.9734 45.6049 75.7347 45.5424C75.4961 45.4799 75.2844 45.3762 75.0998 45.2314C74.9151 45.0865 74.8058 44.8919 74.7717 44.6475H74.7205C74.6523 44.8123 74.5472 44.9686 74.4052 45.1163C74.266 45.264 74.0827 45.3819 73.8555 45.47C73.631 45.5581 73.3569 45.5964 73.033 45.585C72.6637 45.5708 72.3384 45.4885 72.0572 45.3379C71.7759 45.1845 71.5401 44.9771 71.3498 44.7157C71.1623 44.4515 71.0202 44.1461 70.9237 43.7995C70.8299 43.4501 70.783 43.0737 70.783 42.6703C70.783 42.2868 70.8398 41.9359 70.9535 41.6177C71.0671 41.2995 71.2248 41.0211 71.4265 40.7825C71.631 40.5439 71.8697 40.3535 72.1424 40.2115C72.418 40.0666 72.7148 39.9771 73.033 39.943C73.3171 39.9146 73.5756 39.9274 73.8086 39.9814C74.0415 40.0325 74.2333 40.1106 74.3839 40.2157C74.5344 40.318 74.6296 40.4316 74.6694 40.5566H74.7205V40.0794H75.6239V43.9316C75.6239 44.1703 75.6907 44.3805 75.8242 44.5623C75.9577 44.7441 76.1523 44.835 76.408 44.835C76.6978 44.835 76.9194 44.7356 77.0728 44.5368C77.229 44.3379 77.3356 44.0311 77.3924 43.6163C77.4521 43.2015 77.4819 42.6703 77.4819 42.0225C77.4819 41.6419 77.4293 41.2669 77.3242 40.8975C77.2219 40.5254 77.0657 40.1774 76.8555 39.8535C76.6481 39.5297 76.3853 39.2441 76.0671 38.997C75.7489 38.7498 75.3754 38.5566 74.9464 38.4174C74.5202 38.2754 74.0359 38.2044 73.4933 38.2044C72.8256 38.2044 72.2276 38.3081 71.6992 38.5154C71.1737 38.72 70.7262 39.0197 70.3569 39.4146C69.9904 39.8066 69.7106 40.2839 69.5174 40.8464C69.3271 41.4061 69.2319 42.0424 69.2319 42.7555C69.2319 43.4799 69.3271 44.1234 69.5174 44.6859C69.7106 45.2484 69.9947 45.7228 70.3697 46.1092C70.7475 46.4956 71.2148 46.7882 71.7717 46.987C72.3285 47.1887 72.9705 47.2896 73.6978 47.2896C74.0103 47.2896 74.3185 47.2598 74.6225 47.2001C74.9265 47.1404 75.195 47.0751 75.4279 47.0041C75.6609 46.9331 75.8285 46.8805 75.9308 46.8464L76.1694 47.6305C75.9933 47.7044 75.7631 47.7782 75.479 47.8521C75.1978 47.926 74.8967 47.987 74.5756 48.0353C74.2575 48.0836 73.9535 48.1078 73.6637 48.1078ZM73.1694 44.7157C73.5501 44.7157 73.8583 44.639 74.0941 44.4856C74.3299 44.3322 74.5018 44.1007 74.6097 43.791C74.7177 43.4814 74.7717 43.0907 74.7717 42.6191C74.7717 42.1419 74.712 41.7697 74.5927 41.5027C74.4734 41.2356 74.2972 41.0481 74.0643 40.9402C73.8313 40.8322 73.5444 40.7782 73.2035 40.7782C72.8796 40.7782 72.6026 40.8635 72.3725 41.0339C72.1452 41.2015 71.9705 41.426 71.8484 41.7072C71.729 41.9856 71.6694 42.2896 71.6694 42.6191C71.6694 42.9828 71.7177 43.3251 71.8143 43.6461C71.9109 43.9643 72.0685 44.2228 72.2873 44.4217C72.506 44.6177 72.8001 44.7157 73.1694 44.7157ZM82.5327 45.943C81.919 45.943 81.3906 45.7981 80.9474 45.5083C80.5043 45.2186 80.1634 44.8194 79.9247 44.3109C79.6861 43.8024 79.5668 43.2214 79.5668 42.568C79.5668 41.9032 79.6889 41.3166 79.9332 40.8081C80.1804 40.2967 80.5241 39.8975 80.9645 39.6106C81.4077 39.3208 81.9247 39.176 82.5156 39.176C82.9759 39.176 83.3906 39.2612 83.7599 39.4316C84.1293 39.6021 84.4318 39.8407 84.6676 40.1475C84.9034 40.4544 85.0497 40.8123 85.1065 41.2214H84.1009C84.0241 40.9231 83.8537 40.6589 83.5895 40.4288C83.3281 40.1958 82.9759 40.0794 82.5327 40.0794C82.1406 40.0794 81.7969 40.1816 81.5014 40.3862C81.2088 40.5879 80.9801 40.8734 80.8153 41.2427C80.6534 41.6092 80.5724 42.0396 80.5724 42.5339C80.5724 43.0396 80.652 43.4799 80.8111 43.8549C80.973 44.2299 81.2003 44.5211 81.4929 44.7285C81.7884 44.9359 82.1349 45.0396 82.5327 45.0396C82.794 45.0396 83.0312 44.9941 83.2443 44.9032C83.4574 44.8123 83.6378 44.6816 83.7855 44.5112C83.9332 44.3407 84.0384 44.1362 84.1009 43.8975H85.1065C85.0497 44.2839 84.9091 44.6319 84.6847 44.9416C84.4631 45.2484 84.169 45.4927 83.8026 45.6745C83.4389 45.8535 83.0156 45.943 82.5327 45.943ZM89.2358 45.943C88.6449 45.943 88.1264 45.8024 87.6804 45.5211C87.2372 45.2399 86.8906 44.8464 86.6406 44.3407C86.3935 43.835 86.2699 43.2441 86.2699 42.568C86.2699 41.8862 86.3935 41.291 86.6406 40.7825C86.8906 40.274 87.2372 39.8791 87.6804 39.5978C88.1264 39.3166 88.6449 39.176 89.2358 39.176C89.8267 39.176 90.3438 39.3166 90.7869 39.5978C91.233 39.8791 91.5795 40.274 91.8267 40.7825C92.0767 41.291 92.2017 41.8862 92.2017 42.568C92.2017 43.2441 92.0767 43.835 91.8267 44.3407C91.5795 44.8464 91.233 45.2399 90.7869 45.5211C90.3438 45.8024 89.8267 45.943 89.2358 45.943ZM89.2358 45.0396C89.6847 45.0396 90.054 44.9245 90.3438 44.6944C90.6335 44.4643 90.848 44.1618 90.9872 43.7868C91.1264 43.4118 91.196 43.0055 91.196 42.568C91.196 42.1305 91.1264 41.7228 90.9872 41.345C90.848 40.9672 90.6335 40.6618 90.3438 40.4288C90.054 40.1958 89.6847 40.0794 89.2358 40.0794C88.7869 40.0794 88.4176 40.1958 88.1278 40.4288C87.8381 40.6618 87.6236 40.9672 87.4844 41.345C87.3452 41.7228 87.2756 42.1305 87.2756 42.568C87.2756 43.0055 87.3452 43.4118 87.4844 43.7868C87.6236 44.1618 87.8381 44.4643 88.1278 44.6944C88.4176 44.9245 88.7869 45.0396 89.2358 45.0396ZM94.4698 45.8748C94.2596 45.8748 94.0792 45.7995 93.9286 45.649C93.7781 45.4984 93.7028 45.318 93.7028 45.1078C93.7028 44.8975 93.7781 44.7172 93.9286 44.5666C94.0792 44.416 94.2596 44.3407 94.4698 44.3407C94.68 44.3407 94.8604 44.416 95.011 44.5666C95.1616 44.7172 95.2369 44.8975 95.2369 45.1078C95.2369 45.247 95.2013 45.3748 95.1303 45.4913C95.0621 45.6078 94.9698 45.7015 94.8533 45.7725C94.7397 45.8407 94.6119 45.8748 94.4698 45.8748ZM99.7006 45.943C99.087 45.943 98.5586 45.7981 98.1154 45.5083C97.6722 45.2186 97.3313 44.8194 97.0927 44.3109C96.854 43.8024 96.7347 43.2214 96.7347 42.568C96.7347 41.9032 96.8569 41.3166 97.1012 40.8081C97.3484 40.2967 97.6921 39.8975 98.1325 39.6106C98.5756 39.3208 99.0927 39.176 99.6836 39.176C100.144 39.176 100.559 39.2612 100.928 39.4316C101.297 39.6021 101.6 39.8407 101.836 40.1475C102.071 40.4544 102.218 40.8123 102.275 41.2214H101.269C101.192 40.9231 101.022 40.6589 100.757 40.4288C100.496 40.1958 100.144 40.0794 99.7006 40.0794C99.3086 40.0794 98.9648 40.1816 98.6694 40.3862C98.3768 40.5879 98.1481 40.8734 97.9833 41.2427C97.8214 41.6092 97.7404 42.0396 97.7404 42.5339C97.7404 43.0396 97.82 43.4799 97.979 43.8549C98.141 44.2299 98.3683 44.5211 98.6609 44.7285C98.9563 44.9359 99.3029 45.0396 99.7006 45.0396C99.962 45.0396 100.199 44.9941 100.412 44.9032C100.625 44.8123 100.806 44.6816 100.953 44.5112C101.101 44.3407 101.206 44.1362 101.269 43.8975H102.275C102.218 44.2839 102.077 44.6319 101.853 44.9416C101.631 45.2484 101.337 45.4927 100.971 45.6745C100.607 45.8535 100.184 45.943 99.7006 45.943ZM106.404 45.943C105.813 45.943 105.294 45.8024 104.848 45.5211C104.405 45.2399 104.059 44.8464 103.809 44.3407C103.561 43.835 103.438 43.2441 103.438 42.568C103.438 41.8862 103.561 41.291 103.809 40.7825C104.059 40.274 104.405 39.8791 104.848 39.5978C105.294 39.3166 105.813 39.176 106.404 39.176C106.995 39.176 107.512 39.3166 107.955 39.5978C108.401 39.8791 108.748 40.274 108.995 40.7825C109.245 41.291 109.37 41.8862 109.37 42.568C109.37 43.2441 109.245 43.835 108.995 44.3407C108.748 44.8464 108.401 45.2399 107.955 45.5211C107.512 45.8024 106.995 45.943 106.404 45.943ZM106.404 45.0396C106.853 45.0396 107.222 44.9245 107.512 44.6944C107.801 44.4643 108.016 44.1618 108.155 43.7868C108.294 43.4118 108.364 43.0055 108.364 42.568C108.364 42.1305 108.294 41.7228 108.155 41.345C108.016 40.9672 107.801 40.6618 107.512 40.4288C107.222 40.1958 106.853 40.0794 106.404 40.0794C105.955 40.0794 105.586 40.1958 105.296 40.4288C105.006 40.6618 104.792 40.9672 104.652 41.345C104.513 41.7228 104.444 42.1305 104.444 42.568C104.444 43.0055 104.513 43.4118 104.652 43.7868C104.792 44.1618 105.006 44.4643 105.296 44.6944C105.586 44.9245 105.955 45.0396 106.404 45.0396ZM110.905 45.8066V39.2612H111.876V40.2839H111.962C112.098 39.9345 112.318 39.6632 112.622 39.47C112.926 39.274 113.291 39.176 113.717 39.176C114.149 39.176 114.509 39.274 114.795 39.47C115.085 39.6632 115.311 39.9345 115.473 40.2839H115.541C115.709 39.9458 115.96 39.6774 116.295 39.4785C116.631 39.2768 117.033 39.176 117.501 39.176C118.087 39.176 118.565 39.3592 118.938 39.7257C119.31 40.0893 119.496 40.6561 119.496 41.426V45.8066H118.49V41.426C118.49 40.943 118.358 40.5978 118.094 40.3904C117.83 40.1831 117.518 40.0794 117.161 40.0794C116.7 40.0794 116.344 40.2186 116.091 40.497C115.838 40.7725 115.712 41.122 115.712 41.5453V45.8066H114.689V41.3237C114.689 40.9515 114.568 40.6518 114.327 40.4245C114.085 40.1944 113.774 40.0794 113.393 40.0794C113.132 40.0794 112.888 40.149 112.661 40.2882C112.436 40.4274 112.254 40.6206 112.115 40.8677C111.979 41.112 111.911 41.3947 111.911 41.7157V45.8066H110.905Z" fill="#667085"/>
<g style="mix-blend-mode:multiply">
<rect x="244.5" y="18.3066" width="107" height="22" rx="11" fill="#F9FAFB"/>
<path d="M257.062 30.4771H258.358L259.27 31.666L259.7 32.1944L261.153 34.0907H259.806L258.835 32.8251L258.502 32.3649L257.062 30.4771ZM261.434 28.943C261.434 29.8748 261.264 30.676 260.923 31.3464C260.582 32.014 260.115 32.5282 259.521 32.889C258.93 33.247 258.258 33.426 257.505 33.426C256.75 33.426 256.075 33.247 255.481 32.889C254.89 32.5282 254.424 32.0126 254.083 31.3422C253.743 30.6717 253.572 29.872 253.572 28.943C253.572 28.0112 253.743 27.2115 254.083 26.5439C254.424 25.8734 254.89 25.3592 255.481 25.0012C256.075 24.6404 256.75 24.46 257.505 24.46C258.258 24.46 258.93 24.6404 259.521 25.0012C260.115 25.3592 260.582 25.8734 260.923 26.5439C261.264 27.2115 261.434 28.0112 261.434 28.943ZM260.13 28.943C260.13 28.2328 260.015 27.6348 259.785 27.149C259.558 26.6603 259.245 26.291 258.848 26.041C258.453 25.7882 258.005 25.6618 257.505 25.6618C257.002 25.6618 256.554 25.7882 256.159 26.041C255.764 26.291 255.451 26.6603 255.221 27.149C254.994 27.6348 254.88 28.2328 254.88 28.943C254.88 29.6532 254.994 30.2527 255.221 30.7413C255.451 31.2271 255.764 31.5964 256.159 31.8493C256.554 32.0993 257.002 32.2243 257.505 32.2243C258.005 32.2243 258.453 32.0993 258.848 31.8493C259.245 31.5964 259.558 31.2271 259.785 30.7413C260.015 30.2527 260.13 29.6532 260.13 28.943ZM267.12 30.5922V26.7612H268.398V33.3066H267.146V32.1731H267.077C266.927 32.5225 266.685 32.8137 266.353 33.0467C266.023 33.2768 265.613 33.3919 265.121 33.3919C264.701 33.3919 264.329 33.2995 264.005 33.1149C263.684 32.9274 263.431 32.6504 263.246 32.2839C263.065 31.9174 262.974 31.4643 262.974 30.9245V26.7612H264.248V30.7711C264.248 31.2172 264.371 31.5723 264.619 31.8365C264.866 32.1007 265.187 32.2328 265.582 32.2328C265.82 32.2328 266.058 32.1731 266.293 32.0538C266.532 31.9345 266.729 31.7541 266.886 31.5126C267.045 31.2711 267.123 30.9643 267.12 30.5922ZM272.868 33.4387C272.254 33.4387 271.718 33.2981 271.261 33.0169C270.804 32.7356 270.449 32.3422 270.196 31.8365C269.943 31.3308 269.816 30.7399 269.816 30.0637C269.816 29.3848 269.943 28.791 270.196 28.2825C270.449 27.774 270.804 27.3791 271.261 27.0978C271.718 26.8166 272.254 26.676 272.868 26.676C273.481 26.676 274.017 26.8166 274.474 27.0978C274.931 27.3791 275.287 27.774 275.539 28.2825C275.792 28.791 275.919 29.3848 275.919 30.0637C275.919 30.7399 275.792 31.3308 275.539 31.8365C275.287 32.3422 274.931 32.7356 274.474 33.0169C274.017 33.2981 273.481 33.4387 272.868 33.4387ZM272.872 32.3691C273.27 32.3691 273.599 32.264 273.86 32.0538C274.122 31.8436 274.315 31.5637 274.44 31.2143C274.568 30.8649 274.632 30.4799 274.632 30.0595C274.632 29.6419 274.568 29.2583 274.44 28.9089C274.315 28.5566 274.122 28.274 273.86 28.0609C273.599 27.8478 273.27 27.7413 272.872 27.7413C272.471 27.7413 272.139 27.8478 271.875 28.0609C271.613 28.274 271.419 28.5566 271.291 28.9089C271.166 29.2583 271.103 29.6419 271.103 30.0595C271.103 30.4799 271.166 30.8649 271.291 31.2143C271.419 31.5637 271.613 31.8436 271.875 32.0538C272.139 32.264 272.471 32.3691 272.872 32.3691ZM280.396 26.7612V27.7839H276.821V26.7612H280.396ZM277.78 25.193H279.054V31.3848C279.054 31.6319 279.091 31.818 279.165 31.943C279.239 32.0652 279.334 32.149 279.45 32.1944C279.57 32.237 279.699 32.2583 279.838 32.2583C279.94 32.2583 280.03 32.2512 280.107 32.237C280.183 32.2228 280.243 32.2115 280.286 32.2029L280.516 33.2555C280.442 33.2839 280.337 33.3123 280.2 33.3407C280.064 33.372 279.893 33.389 279.689 33.3919C279.354 33.3975 279.041 33.3379 278.751 33.2129C278.462 33.0879 278.227 32.8947 278.048 32.6333C277.869 32.372 277.78 32.0439 277.78 31.649V25.193ZM283.711 33.4515C283.296 33.4515 282.921 33.3748 282.586 33.2214C282.25 33.0652 281.985 32.8393 281.789 32.5439C281.596 32.2484 281.499 31.8862 281.499 31.4572C281.499 31.0879 281.57 30.7839 281.712 30.5453C281.854 30.3066 282.046 30.1177 282.287 29.9785C282.529 29.8393 282.799 29.7342 283.097 29.6632C283.395 29.5922 283.699 29.5382 284.009 29.5012C284.401 29.4558 284.719 29.4189 284.963 29.3904C285.208 29.3592 285.385 29.3095 285.496 29.2413C285.607 29.1731 285.662 29.0623 285.662 28.9089V28.8791C285.662 28.5069 285.557 28.2186 285.347 28.014C285.14 27.8095 284.83 27.7072 284.418 27.7072C283.989 27.7072 283.651 27.8024 283.404 27.9927C283.159 28.1802 282.99 28.389 282.897 28.6191L281.699 28.3464C281.841 27.9487 282.049 27.6277 282.321 27.3833C282.597 27.1362 282.914 26.9572 283.272 26.8464C283.63 26.7328 284.006 26.676 284.401 26.676C284.662 26.676 284.939 26.7072 285.232 26.7697C285.527 26.8294 285.803 26.9402 286.059 27.1021C286.317 27.264 286.529 27.4956 286.694 27.7967C286.858 28.095 286.941 28.4828 286.941 28.96V33.3066H285.696V32.4118H285.645C285.563 32.5765 285.439 32.7385 285.275 32.8975C285.11 33.0566 284.898 33.1887 284.64 33.2939C284.381 33.399 284.071 33.4515 283.711 33.4515ZM283.988 32.4288C284.34 32.4288 284.641 32.3592 284.891 32.22C285.144 32.0808 285.336 31.899 285.466 31.6745C285.6 31.4473 285.667 31.2044 285.667 30.9458V30.1021C285.621 30.1475 285.533 30.1902 285.402 30.2299C285.275 30.2669 285.128 30.2995 284.963 30.3279C284.799 30.3535 284.638 30.3777 284.482 30.4004C284.326 30.4203 284.195 30.4373 284.09 30.4515C283.843 30.4828 283.617 30.5353 283.412 30.6092C283.211 30.6831 283.049 30.7896 282.926 30.9288C282.807 31.0652 282.748 31.247 282.748 31.4743C282.748 31.7896 282.864 32.0282 283.097 32.1902C283.33 32.3493 283.627 32.4288 283.988 32.4288ZM291.693 26.7612V27.7839H288.118V26.7612H291.693ZM289.077 25.193H290.351V31.3848C290.351 31.6319 290.388 31.818 290.462 31.943C290.536 32.0652 290.631 32.149 290.747 32.1944C290.866 32.237 290.996 32.2583 291.135 32.2583C291.237 32.2583 291.327 32.2512 291.403 32.237C291.48 32.2228 291.54 32.2115 291.582 32.2029L291.812 33.2555C291.739 33.2839 291.634 33.3123 291.497 33.3407C291.361 33.372 291.19 33.389 290.986 33.3919C290.651 33.3975 290.338 33.3379 290.048 33.2129C289.759 33.0879 289.524 32.8947 289.345 32.6333C289.166 32.372 289.077 32.0439 289.077 31.649V25.193ZM293.103 33.3066V26.7612H294.377V33.3066H293.103ZM293.746 25.7512C293.525 25.7512 293.334 25.6774 293.175 25.5297C293.019 25.3791 292.941 25.2001 292.941 24.9927C292.941 24.7825 293.019 24.6035 293.175 24.4558C293.334 24.3052 293.525 24.2299 293.746 24.2299C293.968 24.2299 294.157 24.3052 294.313 24.4558C294.472 24.6035 294.551 24.7825 294.551 24.9927C294.551 25.2001 294.472 25.3791 294.313 25.5297C294.157 25.6774 293.968 25.7512 293.746 25.7512ZM298.848 33.4387C298.234 33.4387 297.699 33.2981 297.241 33.0169C296.784 32.7356 296.429 32.3422 296.176 31.8365C295.923 31.3308 295.797 30.7399 295.797 30.0637C295.797 29.3848 295.923 28.791 296.176 28.2825C296.429 27.774 296.784 27.3791 297.241 27.0978C297.699 26.8166 298.234 26.676 298.848 26.676C299.462 26.676 299.997 26.8166 300.455 27.0978C300.912 27.3791 301.267 27.774 301.52 28.2825C301.773 28.791 301.899 29.3848 301.899 30.0637C301.899 30.7399 301.773 31.3308 301.52 31.8365C301.267 32.3422 300.912 32.7356 300.455 33.0169C299.997 33.2981 299.462 33.4387 298.848 33.4387ZM298.852 32.3691C299.25 32.3691 299.58 32.264 299.841 32.0538C300.102 31.8436 300.295 31.5637 300.42 31.2143C300.548 30.8649 300.612 30.4799 300.612 30.0595C300.612 29.6419 300.548 29.2583 300.42 28.9089C300.295 28.5566 300.102 28.274 299.841 28.0609C299.58 27.8478 299.25 27.7413 298.852 27.7413C298.452 27.7413 298.119 27.8478 297.855 28.0609C297.594 28.274 297.399 28.5566 297.271 28.9089C297.146 29.2583 297.084 29.6419 297.084 30.0595C297.084 30.4799 297.146 30.8649 297.271 31.2143C297.399 31.5637 297.594 31.8436 297.855 32.0538C298.119 32.264 298.452 32.3691 298.852 32.3691ZM304.596 29.4203V33.3066H303.321V26.7612H304.544V27.8265H304.625C304.776 27.4799 305.012 27.2015 305.333 26.9913C305.657 26.7811 306.064 26.676 306.556 26.676C307.002 26.676 307.392 26.7697 307.728 26.9572C308.063 27.1419 308.323 27.4174 308.507 27.7839C308.692 28.1504 308.784 28.6035 308.784 29.1433V33.3066H307.51V29.2967C307.51 28.8223 307.387 28.4515 307.14 28.1845C306.892 27.9146 306.553 27.7797 306.121 27.7797C305.826 27.7797 305.563 27.8436 305.333 27.9714C305.105 28.0993 304.925 28.2868 304.792 28.5339C304.661 28.7782 304.596 29.0737 304.596 29.4203ZM314.35 29.0666V30.1703H310.48V29.0666H314.35ZM319.342 24.5794V33.3066H318.021V25.9004H317.97L315.882 27.264V26.0027L318.059 24.5794H319.342ZM322.055 33.3876C321.822 33.3876 321.622 33.3052 321.455 33.1404C321.287 32.9728 321.203 32.7711 321.203 32.5353C321.203 32.3024 321.287 32.1035 321.455 31.9387C321.622 31.7711 321.822 31.6873 322.055 31.6873C322.288 31.6873 322.489 31.7711 322.656 31.9387C322.824 32.1035 322.908 32.3024 322.908 32.5353C322.908 32.6916 322.868 32.835 322.788 32.9657C322.712 33.0936 322.609 33.1958 322.482 33.2725C322.354 33.3493 322.212 33.3876 322.055 33.3876ZM324.614 35.7612V26.7612H325.859V27.8223H325.965C326.039 27.6859 326.146 27.5282 326.285 27.3493C326.424 27.1703 326.617 27.014 326.864 26.8805C327.112 26.7441 327.438 26.676 327.844 26.676C328.373 26.676 328.844 26.8095 329.259 27.0765C329.674 27.3436 329.999 27.7285 330.235 28.2314C330.474 28.7342 330.593 29.3393 330.593 30.0467C330.593 30.7541 330.475 31.3606 330.239 31.8663C330.004 32.3691 329.68 32.7569 329.268 33.0297C328.856 33.2995 328.386 33.4345 327.857 33.4345C327.46 33.4345 327.134 33.3677 326.881 33.2342C326.631 33.1007 326.435 32.9444 326.293 32.7654C326.151 32.5865 326.042 32.4274 325.965 32.2882H325.888V35.7612H324.614ZM325.863 30.0339C325.863 30.4941 325.93 30.8975 326.063 31.2441C326.197 31.5907 326.39 31.862 326.643 32.0581C326.896 32.2512 327.205 32.3478 327.572 32.3478C327.952 32.3478 328.271 32.247 328.526 32.0453C328.782 31.8407 328.975 31.5637 329.106 31.2143C329.239 30.8649 329.306 30.4714 329.306 30.0339C329.306 29.6021 329.241 29.2143 329.11 28.8706C328.982 28.5268 328.789 28.2555 328.531 28.0566C328.275 27.8578 327.955 27.7583 327.572 27.7583C327.202 27.7583 326.89 27.8535 326.634 28.0439C326.381 28.2342 326.19 28.4998 326.059 28.8407C325.928 29.1816 325.863 29.5794 325.863 30.0339ZM334.471 33.4345C333.942 33.4345 333.471 33.2995 333.056 33.0297C332.644 32.7569 332.32 32.3691 332.085 31.8663C331.852 31.3606 331.735 30.7541 331.735 30.0467C331.735 29.3393 331.853 28.7342 332.089 28.2314C332.327 27.7285 332.654 27.3436 333.069 27.0765C333.484 26.8095 333.954 26.676 334.479 26.676C334.886 26.676 335.212 26.7441 335.46 26.8805C335.71 27.014 335.903 27.1703 336.039 27.3493C336.178 27.5282 336.286 27.6859 336.363 27.8223H336.44V24.5794H337.714V33.3066H336.469V32.2882H336.363C336.286 32.4274 336.175 32.5865 336.031 32.7654C335.888 32.9444 335.692 33.1007 335.442 33.2342C335.192 33.3677 334.869 33.4345 334.471 33.4345ZM334.752 32.3478C335.119 32.3478 335.428 32.2512 335.681 32.0581C335.937 31.862 336.13 31.5907 336.261 31.2441C336.394 30.8975 336.461 30.4941 336.461 30.0339C336.461 29.5794 336.396 29.1816 336.265 28.8407C336.134 28.4998 335.942 28.2342 335.69 28.0439C335.437 27.8535 335.124 27.7583 334.752 27.7583C334.369 27.7583 334.049 27.8578 333.793 28.0566C333.538 28.2555 333.344 28.5268 333.214 28.8706C333.086 29.2143 333.022 29.6021 333.022 30.0339C333.022 30.4714 333.087 30.8649 333.218 31.2143C333.349 31.5637 333.542 31.8407 333.798 32.0453C334.056 32.247 334.374 32.3478 334.752 32.3478ZM342.647 26.7612V27.7839H338.949V26.7612H342.647ZM339.963 33.3066V26.0027C339.963 25.5936 340.052 25.2541 340.231 24.9842C340.41 24.7115 340.647 24.5083 340.943 24.3748C341.238 24.2385 341.559 24.1703 341.906 24.1703C342.162 24.1703 342.38 24.1916 342.562 24.2342C342.744 24.274 342.879 24.3109 342.967 24.345L342.669 25.3762C342.609 25.3592 342.532 25.3393 342.439 25.3166C342.345 25.291 342.231 25.2782 342.098 25.2782C341.788 25.2782 341.566 25.3549 341.433 25.5083C341.302 25.6618 341.237 25.8833 341.237 26.1731V33.3066H339.963Z" fill="#64748B"/>
</g>
</g>
<g filter="url(#filter1_dddd_104_1207)">
<rect x="31.5" y="72.8066" width="317" height="40" rx="6" fill="white"/>
<path d="M48.6186 97.8066V87.6248H55.0021V88.9473H50.1548V92.0495H54.669V93.367H50.1548V96.4842H55.0618V97.8066H48.6186ZM56.9348 97.8066V90.1703H58.3617V91.4132H58.4561C58.6152 90.9922 58.8754 90.6641 59.2367 90.4288C59.598 90.1902 60.0305 90.0708 60.5343 90.0708C61.0447 90.0708 61.4722 90.1902 61.8169 90.4288C62.165 90.6674 62.4218 90.9956 62.5875 91.4132H62.6671C62.8494 91.0055 63.1394 90.6807 63.5371 90.4387C63.9348 90.1935 64.4088 90.0708 64.959 90.0708C65.6517 90.0708 66.2168 90.2879 66.6543 90.7221C67.0951 91.1563 67.3155 91.8109 67.3155 92.6859V97.8066H65.829V92.8251C65.829 92.3081 65.6882 91.9335 65.4064 91.7015C65.1247 91.4695 64.7883 91.3535 64.3972 91.3535C63.9133 91.3535 63.5371 91.5027 63.2686 91.801C63.0002 92.0959 62.8659 92.4754 62.8659 92.9395V97.8066H61.3844V92.7306C61.3844 92.3163 61.2551 91.9833 60.9966 91.7314C60.7381 91.4795 60.4017 91.3535 59.9874 91.3535C59.7057 91.3535 59.4455 91.4281 59.2069 91.5772C58.9715 91.7231 58.781 91.9269 58.6351 92.1887C58.4926 92.4506 58.4213 92.7538 58.4213 93.0985V97.8066H56.9348ZM71.5302 97.9757C71.0463 97.9757 70.6088 97.8862 70.2177 97.7072C69.8266 97.5249 69.5167 97.2614 69.288 96.9167C69.0626 96.572 68.9499 96.1494 68.9499 95.649C68.9499 95.2181 69.0328 94.8635 69.1985 94.585C69.3642 94.3066 69.5879 94.0862 69.8697 93.9238C70.1514 93.7614 70.4663 93.6388 70.8143 93.5559C71.1623 93.4731 71.5169 93.4101 71.8782 93.367C72.3356 93.314 72.7068 93.2709 72.9918 93.2377C73.2769 93.2013 73.484 93.1433 73.6133 93.0637C73.7425 92.9842 73.8072 92.8549 73.8072 92.676V92.6412C73.8072 92.207 73.6845 91.8706 73.4393 91.6319C73.1973 91.3933 72.8361 91.274 72.3555 91.274C71.855 91.274 71.4606 91.385 71.1722 91.6071C70.8872 91.8258 70.69 92.0694 70.5806 92.3379L69.1836 92.0197C69.3493 91.5557 69.5913 91.1812 69.9094 90.8961C70.2309 90.6078 70.6005 90.399 71.0181 90.2697C71.4357 90.1371 71.8749 90.0708 72.3356 90.0708C72.6405 90.0708 72.9637 90.1073 73.305 90.1802C73.6497 90.2498 73.9712 90.3791 74.2695 90.568C74.5711 90.7569 74.8181 91.027 75.0103 91.3784C75.2025 91.7264 75.2987 92.1788 75.2987 92.7356V97.8066H73.8469V96.7626H73.7873C73.6912 96.9548 73.547 97.1438 73.3548 97.3294C73.1625 97.515 72.9156 97.6691 72.614 97.7917C72.3124 97.9144 71.9511 97.9757 71.5302 97.9757ZM71.8533 96.7825C72.2643 96.7825 72.6156 96.7013 72.9073 96.5389C73.2023 96.3765 73.426 96.1644 73.5785 95.9025C73.7343 95.6374 73.8121 95.354 73.8121 95.0524V94.068C73.7591 94.121 73.6564 94.1708 73.5039 94.2172C73.3548 94.2602 73.1841 94.2984 72.9918 94.3315C72.7996 94.3613 72.6123 94.3895 72.43 94.416C72.2478 94.4392 72.0953 94.4591 71.9727 94.4757C71.6843 94.5121 71.4208 94.5734 71.1822 94.6596C70.9469 94.7458 70.7579 94.8701 70.6154 95.0325C70.4762 95.1916 70.4066 95.4037 70.4066 95.6689C70.4066 96.0368 70.5425 96.3152 70.8143 96.5041C71.0861 96.6897 71.4324 96.7825 71.8533 96.7825ZM77.2786 97.8066V90.1703H78.7651V97.8066H77.2786ZM78.0293 88.992C77.7708 88.992 77.5487 88.9058 77.3631 88.7335C77.1808 88.5578 77.0897 88.349 77.0897 88.1071C77.0897 87.8618 77.1808 87.653 77.3631 87.4806C77.5487 87.305 77.7708 87.2172 78.0293 87.2172C78.2878 87.2172 78.5082 87.305 78.6905 87.4806C78.8761 87.653 78.9689 87.8618 78.9689 88.1071C78.9689 88.349 78.8761 88.5578 78.6905 88.7335C78.5082 88.9058 78.2878 88.992 78.0293 88.992ZM82.2514 87.6248V97.8066H80.7649V87.6248H82.2514ZM96.9201 92.7157C96.9201 93.8029 96.7212 94.7375 96.3235 95.5197C95.9258 96.2986 95.3806 96.8985 94.6879 97.3194C93.9985 97.737 93.2146 97.9458 92.3363 97.9458C91.4547 97.9458 90.6675 97.737 89.9748 97.3194C89.2854 96.8985 88.7418 96.2969 88.3441 95.5147C87.9464 94.7325 87.7475 93.7995 87.7475 92.7157C87.7475 91.6286 87.9464 90.6956 88.3441 89.9167C88.7418 89.1345 89.2854 88.5346 89.9748 88.117C90.6675 87.6961 91.4547 87.4856 92.3363 87.4856C93.2146 87.4856 93.9985 87.6961 94.6879 88.117C95.3806 88.5346 95.9258 89.1345 96.3235 89.9167C96.7212 90.6956 96.9201 91.6286 96.9201 92.7157ZM95.3988 92.7157C95.3988 91.8871 95.2646 91.1895 94.9961 90.6227C94.7309 90.0526 94.3664 89.6217 93.9023 89.3301C93.4416 89.0351 92.9196 88.8876 92.3363 88.8876C91.7496 88.8876 91.226 89.0351 90.7653 89.3301C90.3046 89.6217 89.94 90.0526 89.6715 90.6227C89.4064 91.1895 89.2738 91.8871 89.2738 92.7157C89.2738 93.5443 89.4064 94.2437 89.6715 94.8137C89.94 95.3805 90.3046 95.8114 90.7653 96.1064C91.226 96.398 91.7496 96.5439 92.3363 96.5439C92.9196 96.5439 93.4416 96.398 93.9023 96.1064C94.3664 95.8114 94.7309 95.3805 94.9961 94.8137C95.2646 94.2437 95.3988 93.5443 95.3988 92.7157ZM98.7161 100.67V90.1703H100.168V91.4082H100.292C100.378 91.2491 100.503 91.0652 100.665 90.8564C100.827 90.6475 101.053 90.4653 101.341 90.3095C101.629 90.1504 102.011 90.0708 102.485 90.0708C103.101 90.0708 103.651 90.2266 104.135 90.5382C104.619 90.8497 104.999 91.2988 105.274 91.8855C105.552 92.4721 105.691 93.1781 105.691 94.0034C105.691 94.8287 105.554 95.5363 105.279 96.1262C105.003 96.7129 104.626 97.1653 104.145 97.4835C103.664 97.7984 103.116 97.9558 102.499 97.9558C102.035 97.9558 101.656 97.8779 101.361 97.7221C101.069 97.5663 100.841 97.3841 100.675 97.1752C100.509 96.9664 100.382 96.7808 100.292 96.6184H100.203V100.67H98.7161ZM100.173 93.9885C100.173 94.5254 100.251 94.996 100.406 95.4004C100.562 95.8047 100.788 96.1213 101.083 96.35C101.378 96.5753 101.739 96.688 102.166 96.688C102.61 96.688 102.982 96.5704 103.28 96.335C103.578 96.0964 103.804 95.7733 103.956 95.3656C104.112 94.9579 104.19 94.4989 104.19 93.9885C104.19 93.4847 104.114 93.0323 103.961 92.6312C103.812 92.2302 103.587 91.9136 103.285 91.6816C102.987 91.4496 102.614 91.3336 102.166 91.3336C101.735 91.3336 101.371 91.4447 101.073 91.6667C100.778 91.8888 100.554 92.1987 100.401 92.5964C100.249 92.9941 100.173 93.4582 100.173 93.9885ZM110.648 97.9608C109.896 97.9608 109.248 97.8 108.704 97.4785C108.164 97.1537 107.746 96.698 107.451 96.1113C107.16 95.5214 107.014 94.8303 107.014 94.0382C107.014 93.256 107.16 92.5666 107.451 91.97C107.746 91.3734 108.157 90.9077 108.684 90.573C109.214 90.2382 109.834 90.0708 110.544 90.0708C110.974 90.0708 111.392 90.1421 111.796 90.2846C112.201 90.4271 112.564 90.6509 112.885 90.9558C113.207 91.2607 113.46 91.6568 113.646 92.144C113.831 92.6279 113.924 93.2162 113.924 93.9089V94.4359H107.854V93.3223H112.468C112.468 92.9312 112.388 92.5848 112.229 92.2832C112.07 91.9783 111.846 91.738 111.558 91.5623C111.273 91.3867 110.938 91.2988 110.553 91.2988C110.136 91.2988 109.771 91.4016 109.46 91.6071C109.151 91.8092 108.913 92.0744 108.744 92.4025C108.578 92.7273 108.495 93.0803 108.495 93.4615V94.3315C108.495 94.8419 108.585 95.2761 108.764 95.6341C108.946 95.992 109.2 96.2654 109.524 96.4544C109.849 96.64 110.229 96.7328 110.663 96.7328C110.945 96.7328 111.201 96.693 111.433 96.6135C111.665 96.5306 111.866 96.408 112.035 96.2456C112.204 96.0832 112.333 95.8826 112.423 95.644L113.83 95.8975C113.717 96.3118 113.515 96.6748 113.223 96.9863C112.935 97.2946 112.572 97.5349 112.134 97.7072C111.7 97.8762 111.205 97.9608 110.648 97.9608ZM117.06 93.2725V97.8066H115.574V90.1703H117V91.4132H117.095C117.27 91.0088 117.546 90.684 117.92 90.4387C118.298 90.1935 118.774 90.0708 119.347 90.0708C119.867 90.0708 120.323 90.1802 120.714 90.399C121.105 90.6144 121.408 90.9359 121.624 91.3635C121.839 91.791 121.947 92.3197 121.947 92.9494V97.8066H120.461V93.1284C120.461 92.5749 120.316 92.1423 120.028 91.8308C119.74 91.5159 119.344 91.3585 118.84 91.3585C118.495 91.3585 118.189 91.4331 117.92 91.5822C117.655 91.7314 117.444 91.9501 117.289 92.2385C117.136 92.5235 117.06 92.8682 117.06 93.2725ZM127.232 97.9608C126.48 97.9608 125.832 97.8 125.288 97.4785C124.748 97.1537 124.33 96.698 124.035 96.1113C123.743 95.5214 123.598 94.8303 123.598 94.0382C123.598 93.256 123.743 92.5666 124.035 91.97C124.33 91.3734 124.741 90.9077 125.268 90.573C125.798 90.2382 126.418 90.0708 127.127 90.0708C127.558 90.0708 127.976 90.1421 128.38 90.2846C128.785 90.4271 129.148 90.6509 129.469 90.9558C129.791 91.2607 130.044 91.6568 130.23 92.144C130.415 92.6279 130.508 93.2162 130.508 93.9089V94.4359H124.438V93.3223H129.051C129.051 92.9312 128.972 92.5848 128.813 92.2832C128.654 91.9783 128.43 91.738 128.142 91.5623C127.857 91.3867 127.522 91.2988 127.137 91.2988C126.72 91.2988 126.355 91.4016 126.044 91.6071C125.735 91.8092 125.497 92.0744 125.328 92.4025C125.162 92.7273 125.079 93.0803 125.079 93.4615V94.3315C125.079 94.8419 125.169 95.2761 125.348 95.6341C125.53 95.992 125.783 96.2654 126.108 96.4544C126.433 96.64 126.813 96.7328 127.247 96.7328C127.529 96.7328 127.785 96.693 128.017 96.6135C128.249 96.5306 128.45 96.408 128.619 96.2456C128.788 96.0832 128.917 95.8826 129.007 95.644L130.414 95.8975C130.301 96.3118 130.099 96.6748 129.807 96.9863C129.519 97.2946 129.156 97.5349 128.718 97.7072C128.284 97.8762 127.789 97.9608 127.232 97.9608ZM135.016 97.9558C134.4 97.9558 133.849 97.7984 133.366 97.4835C132.885 97.1653 132.507 96.7129 132.232 96.1262C131.96 95.5363 131.824 94.8287 131.824 94.0034C131.824 93.1781 131.962 92.4721 132.237 91.8855C132.515 91.2988 132.897 90.8497 133.381 90.5382C133.864 90.2266 134.413 90.0708 135.026 90.0708C135.5 90.0708 135.881 90.1504 136.17 90.3095C136.461 90.4653 136.687 90.6475 136.846 90.8564C137.008 91.0652 137.134 91.2491 137.224 91.4082H137.313V87.6248H138.8V97.8066H137.348V96.6184H137.224C137.134 96.7808 137.005 96.9664 136.836 97.1752C136.67 97.3841 136.441 97.5663 136.15 97.7221C135.858 97.8779 135.48 97.9558 135.016 97.9558ZM135.344 96.688C135.772 96.688 136.133 96.5753 136.428 96.35C136.726 96.1213 136.952 95.8047 137.104 95.4004C137.26 94.996 137.338 94.5254 137.338 93.9885C137.338 93.4582 137.262 92.9941 137.109 92.5964C136.957 92.1987 136.733 91.8888 136.438 91.6667C136.143 91.4447 135.778 91.3336 135.344 91.3336C134.897 91.3336 134.524 91.4496 134.226 91.6816C133.927 91.9136 133.702 92.2302 133.55 92.6312C133.4 93.0323 133.326 93.4847 133.326 93.9885C133.326 94.4989 133.402 94.9579 133.555 95.3656C133.707 95.7733 133.932 96.0964 134.231 96.335C134.532 96.5704 134.903 96.688 135.344 96.688Z" fill="#1E293B"/>
<g style="mix-blend-mode:multiply">
<rect x="256.5" y="81.8066" width="76" height="22" rx="11" fill="#F9FAFB"/>
<path d="M268.809 88.0794V96.8066H267.488V89.4004H267.437L265.349 90.764V89.5027L267.526 88.0794H268.809ZM275.637 92.9203V96.8066H274.362V88.0794H275.619V91.3265H275.7C275.854 90.9743 276.088 90.6944 276.404 90.487C276.719 90.2797 277.131 90.176 277.639 90.176C278.088 90.176 278.48 90.2683 278.816 90.4529C279.154 90.6376 279.415 90.9132 279.6 91.2797C279.787 91.6433 279.881 92.0978 279.881 92.6433V96.8066H278.607V92.7967C278.607 92.3166 278.483 91.9444 278.236 91.6802C277.989 91.4132 277.645 91.2797 277.205 91.2797C276.904 91.2797 276.634 91.3436 276.395 91.4714C276.159 91.5993 275.973 91.7868 275.837 92.0339C275.703 92.2782 275.637 92.5737 275.637 92.9203ZM284.338 96.9387C283.725 96.9387 283.189 96.7981 282.732 96.5169C282.274 96.2356 281.919 95.8422 281.666 95.3365C281.414 94.8308 281.287 94.2399 281.287 93.5637C281.287 92.8848 281.414 92.291 281.666 91.7825C281.919 91.274 282.274 90.8791 282.732 90.5978C283.189 90.3166 283.725 90.176 284.338 90.176C284.952 90.176 285.487 90.3166 285.945 90.5978C286.402 90.8791 286.757 91.274 287.01 91.7825C287.263 92.291 287.389 92.8848 287.389 93.5637C287.389 94.2399 287.263 94.8308 287.01 95.3365C286.757 95.8422 286.402 96.2356 285.945 96.5169C285.487 96.7981 284.952 96.9387 284.338 96.9387ZM284.343 95.8691C284.74 95.8691 285.07 95.764 285.331 95.5538C285.593 95.3436 285.786 95.0637 285.911 94.7143C286.039 94.3649 286.102 93.9799 286.102 93.5595C286.102 93.1419 286.039 92.7583 285.911 92.4089C285.786 92.0566 285.593 91.774 285.331 91.5609C285.07 91.3478 284.74 91.2413 284.343 91.2413C283.942 91.2413 283.61 91.3478 283.345 91.5609C283.084 91.774 282.889 92.0566 282.762 92.4089C282.637 92.7583 282.574 93.1419 282.574 93.5595C282.574 93.9799 282.637 94.3649 282.762 94.7143C282.889 95.0637 283.084 95.3436 283.345 95.5538C283.61 95.764 283.942 95.8691 284.343 95.8691ZM292.958 94.0922V90.2612H294.236V96.8066H292.983V95.6731H292.915C292.765 96.0225 292.523 96.3137 292.191 96.5467C291.861 96.7768 291.451 96.8919 290.959 96.8919C290.539 96.8919 290.167 96.7995 289.843 96.6149C289.522 96.4274 289.269 96.1504 289.084 95.7839C288.903 95.4174 288.812 94.9643 288.812 94.4245V90.2612H290.086V94.2711C290.086 94.7172 290.209 95.0723 290.456 95.3365C290.704 95.6007 291.025 95.7328 291.42 95.7328C291.658 95.7328 291.895 95.6731 292.131 95.5538C292.37 95.4345 292.567 95.2541 292.724 95.0126C292.883 94.7711 292.961 94.4643 292.958 94.0922ZM295.948 96.8066V90.2612H297.18V91.301H297.248C297.367 90.9487 297.578 90.6717 297.879 90.47C298.183 90.2654 298.526 90.1632 298.91 90.1632C298.99 90.1632 299.083 90.166 299.191 90.1717C299.302 90.1774 299.389 90.1845 299.451 90.193V91.4118C299.4 91.3975 299.309 91.3819 299.178 91.3649C299.048 91.345 298.917 91.335 298.786 91.335C298.485 91.335 298.217 91.399 297.981 91.5268C297.748 91.6518 297.563 91.8265 297.427 92.051C297.291 92.2725 297.222 92.5254 297.222 92.8095V96.8066H295.948ZM305.634 96.9515C305.22 96.9515 304.845 96.8748 304.509 96.7214C304.174 96.5652 303.909 96.3393 303.713 96.0439C303.519 95.7484 303.423 95.3862 303.423 94.9572C303.423 94.5879 303.494 94.2839 303.636 94.0453C303.778 93.8066 303.97 93.6177 304.211 93.4785C304.453 93.3393 304.722 93.2342 305.021 93.1632C305.319 93.0922 305.623 93.0382 305.933 93.0012C306.325 92.9558 306.643 92.9189 306.887 92.8904C307.132 92.8592 307.309 92.8095 307.42 92.7413C307.531 92.6731 307.586 92.5623 307.586 92.4089V92.3791C307.586 92.0069 307.481 91.7186 307.271 91.514C307.063 91.3095 306.754 91.2072 306.342 91.2072C305.913 91.2072 305.575 91.3024 305.328 91.4927C305.083 91.6802 304.914 91.889 304.82 92.1191L303.623 91.8464C303.765 91.4487 303.972 91.1277 304.245 90.8833C304.521 90.6362 304.838 90.4572 305.195 90.3464C305.553 90.2328 305.93 90.176 306.325 90.176C306.586 90.176 306.863 90.2072 307.156 90.2697C307.451 90.3294 307.727 90.4402 307.982 90.6021C308.241 90.764 308.453 90.9956 308.617 91.2967C308.782 91.595 308.865 91.9828 308.865 92.46V96.8066H307.62V95.9118H307.569C307.487 96.0765 307.363 96.2385 307.198 96.3975C307.034 96.5566 306.822 96.6887 306.563 96.7939C306.305 96.899 305.995 96.9515 305.634 96.9515ZM305.911 95.9288C306.264 95.9288 306.565 95.8592 306.815 95.72C307.068 95.5808 307.259 95.399 307.39 95.1745C307.524 94.9473 307.59 94.7044 307.59 94.4458V93.6021C307.545 93.6475 307.457 93.6902 307.326 93.7299C307.198 93.7669 307.052 93.7995 306.887 93.8279C306.722 93.8535 306.562 93.8777 306.406 93.9004C306.249 93.9203 306.119 93.9373 306.014 93.9515C305.767 93.9828 305.541 94.0353 305.336 94.1092C305.134 94.1831 304.972 94.2896 304.85 94.4288C304.731 94.5652 304.671 94.747 304.671 94.9743C304.671 95.2896 304.788 95.5282 305.021 95.6902C305.254 95.8493 305.551 95.9288 305.911 95.9288ZM313.306 99.3975C312.786 99.3975 312.339 99.3294 311.964 99.193C311.591 99.0566 311.287 98.8762 311.052 98.6518C310.816 98.4274 310.64 98.1816 310.523 97.9146L311.618 97.4629C311.695 97.5879 311.797 97.72 311.925 97.8592C312.056 98.0012 312.232 98.122 312.454 98.2214C312.678 98.3208 312.966 98.3706 313.319 98.3706C313.802 98.3706 314.201 98.2527 314.516 98.0169C314.831 97.7839 314.989 97.4118 314.989 96.9004V95.6135H314.908C314.831 95.7527 314.721 95.9075 314.576 96.0779C314.434 96.2484 314.238 96.3961 313.988 96.5211C313.738 96.6461 313.412 96.7086 313.012 96.7086C312.495 96.7086 312.029 96.5879 311.614 96.3464C311.202 96.1021 310.876 95.7427 310.634 95.2683C310.395 94.791 310.276 94.2044 310.276 93.5083C310.276 92.8123 310.394 92.2157 310.63 91.7186C310.868 91.2214 311.195 90.8407 311.61 90.5765C312.025 90.3095 312.495 90.176 313.02 90.176C313.427 90.176 313.755 90.2441 314.005 90.3805C314.255 90.514 314.449 90.6703 314.589 90.8493C314.731 91.0282 314.84 91.1859 314.917 91.3223H315.01V90.2612H316.259V96.9515C316.259 97.514 316.128 97.9757 315.867 98.3365C315.606 98.6973 315.252 98.9643 314.806 99.1376C314.363 99.3109 313.863 99.3975 313.306 99.3975ZM313.293 95.6518C313.66 95.6518 313.969 95.5666 314.222 95.3961C314.478 95.2228 314.671 94.9757 314.802 94.6547C314.935 94.3308 315.002 93.943 315.002 93.4913C315.002 93.051 314.937 92.6632 314.806 92.3279C314.675 91.9927 314.483 91.7314 314.231 91.5439C313.978 91.3535 313.665 91.2583 313.293 91.2583C312.91 91.2583 312.59 91.3578 312.334 91.5566C312.079 91.7527 311.885 92.0197 311.755 92.3578C311.627 92.6958 311.563 93.0737 311.563 93.4913C311.563 93.9203 311.628 94.2967 311.759 94.6206C311.89 94.9444 312.083 95.1973 312.339 95.3791C312.597 95.5609 312.915 95.6518 313.293 95.6518ZM320.725 96.9387C320.111 96.9387 319.576 96.7981 319.118 96.5169C318.661 96.2356 318.306 95.8422 318.053 95.3365C317.8 94.8308 317.674 94.2399 317.674 93.5637C317.674 92.8848 317.8 92.291 318.053 91.7825C318.306 91.274 318.661 90.8791 319.118 90.5978C319.576 90.3166 320.111 90.176 320.725 90.176C321.339 90.176 321.874 90.3166 322.331 90.5978C322.789 90.8791 323.144 91.274 323.397 91.7825C323.65 92.291 323.776 92.8848 323.776 93.5637C323.776 94.2399 323.65 94.8308 323.397 95.3365C323.144 95.8422 322.789 96.2356 322.331 96.5169C321.874 96.7981 321.339 96.9387 320.725 96.9387ZM320.729 95.8691C321.127 95.8691 321.456 95.764 321.718 95.5538C321.979 95.3436 322.172 95.0637 322.297 94.7143C322.425 94.3649 322.489 93.9799 322.489 93.5595C322.489 93.1419 322.425 92.7583 322.297 92.4089C322.172 92.0566 321.979 91.774 321.718 91.5609C321.456 91.3478 321.127 91.2413 320.729 91.2413C320.329 91.2413 319.996 91.3478 319.732 91.5609C319.471 91.774 319.276 92.0566 319.148 92.4089C319.023 92.7583 318.961 93.1419 318.961 93.5595C318.961 93.9799 319.023 94.3649 319.148 94.7143C319.276 95.0637 319.471 95.3436 319.732 95.5538C319.996 95.764 320.329 95.8691 320.729 95.8691Z" fill="#64748B"/>
</g>
</g>
<g filter="url(#filter2_dddd_104_1207)">
<rect x="49.5" y="128.807" width="280" height="44" rx="6" fill="white"/>
<path d="M70.3622 152.506H71.8736L72.9375 153.893L73.4396 154.509L75.1349 156.721H73.5639L72.4304 155.245L72.0426 154.708L70.3622 152.506ZM75.4631 150.716C75.4631 151.803 75.2642 152.738 74.8665 153.52C74.4688 154.299 73.9235 154.898 73.2308 155.319C72.5414 155.737 71.7576 155.946 70.8793 155.946C69.9976 155.946 69.2105 155.737 68.5178 155.319C67.8284 154.898 67.2848 154.297 66.8871 153.515C66.4893 152.733 66.2905 151.8 66.2905 150.716C66.2905 149.629 66.4893 148.696 66.8871 147.917C67.2848 147.135 67.8284 146.535 68.5178 146.117C69.2105 145.696 69.9976 145.486 70.8793 145.486C71.7576 145.486 72.5414 145.696 73.2308 146.117C73.9235 146.535 74.4688 147.135 74.8665 147.917C75.2642 148.696 75.4631 149.629 75.4631 150.716ZM73.9418 150.716C73.9418 149.887 73.8075 149.189 73.5391 148.623C73.2739 148.053 72.9093 147.622 72.4453 147.33C71.9846 147.035 71.4626 146.888 70.8793 146.888C70.2926 146.888 69.7689 147.035 69.3082 147.33C68.8475 147.622 68.483 148.053 68.2145 148.623C67.9493 149.189 67.8168 149.887 67.8168 150.716C67.8168 151.544 67.9493 152.244 68.2145 152.814C68.483 153.381 68.8475 153.811 69.3082 154.106C69.7689 154.398 70.2926 154.544 70.8793 154.544C71.4626 154.544 71.9846 154.398 72.4453 154.106C72.9093 153.811 73.2739 153.381 73.5391 152.814C73.8075 152.244 73.9418 151.544 73.9418 150.716ZM82.0964 152.64V148.17H83.5879V155.807H82.1262V154.484H82.0467C81.871 154.892 81.5893 155.232 81.2015 155.503C80.8171 155.772 80.3381 155.906 79.7647 155.906C79.2742 155.906 78.84 155.798 78.4622 155.583C78.0877 155.364 77.7927 155.041 77.5772 154.613C77.3651 154.186 77.2591 153.657 77.2591 153.028V148.17H78.7456V152.849C78.7456 153.369 78.8897 153.783 79.1781 154.091C79.4664 154.4 79.841 154.554 80.3017 154.554C80.5801 154.554 80.8568 154.484 81.1319 154.345C81.4103 154.206 81.6407 153.995 81.823 153.714C82.0086 153.432 82.0997 153.074 82.0964 152.64ZM88.8018 155.961C88.0859 155.961 87.4612 155.797 86.9276 155.469C86.3939 155.14 85.9796 154.681 85.6847 154.091C85.3897 153.501 85.2422 152.812 85.2422 152.023C85.2422 151.231 85.3897 150.538 85.6847 149.945C85.9796 149.352 86.3939 148.891 86.9276 148.563C87.4612 148.235 88.0859 148.071 88.8018 148.071C89.5178 148.071 90.1425 148.235 90.6761 148.563C91.2098 148.891 91.6241 149.352 91.919 149.945C92.214 150.538 92.3615 151.231 92.3615 152.023C92.3615 152.812 92.214 153.501 91.919 154.091C91.6241 154.681 91.2098 155.14 90.6761 155.469C90.1425 155.797 89.5178 155.961 88.8018 155.961ZM88.8068 154.713C89.2708 154.713 89.6553 154.59 89.9602 154.345C90.2652 154.1 90.4905 153.773 90.6364 153.366C90.7855 152.958 90.8601 152.509 90.8601 152.018C90.8601 151.531 90.7855 151.084 90.6364 150.676C90.4905 150.265 90.2652 149.935 89.9602 149.687C89.6553 149.438 89.2708 149.314 88.8068 149.314C88.3395 149.314 87.9517 149.438 87.6435 149.687C87.3385 149.935 87.1115 150.265 86.9624 150.676C86.8165 151.084 86.7436 151.531 86.7436 152.018C86.7436 152.509 86.8165 152.958 86.9624 153.366C87.1115 153.773 87.3385 154.1 87.6435 154.345C87.9517 154.59 88.3395 154.713 88.8068 154.713ZM97.5854 148.17V149.363H93.4142V148.17H97.5854ZM94.5328 146.341H96.0194V153.564C96.0194 153.853 96.0624 154.07 96.1486 154.216C96.2348 154.358 96.3458 154.456 96.4817 154.509C96.6209 154.559 96.7717 154.584 96.9341 154.584C97.0534 154.584 97.1578 154.575 97.2473 154.559C97.3368 154.542 97.4064 154.529 97.4561 154.519L97.7246 155.747C97.6384 155.78 97.5158 155.813 97.3567 155.846C97.1976 155.883 96.9988 155.903 96.7601 155.906C96.369 155.913 96.0044 155.843 95.6664 155.697C95.3283 155.551 95.0549 155.326 94.8461 155.021C94.6373 154.716 94.5328 154.333 94.5328 153.873V146.341ZM102.439 155.961C101.687 155.961 101.039 155.8 100.495 155.479C99.9548 155.154 99.5372 154.698 99.2422 154.111C98.9505 153.521 98.8047 152.83 98.8047 152.038C98.8047 151.256 98.9505 150.567 99.2422 149.97C99.5372 149.373 99.9482 148.908 100.475 148.573C101.005 148.238 101.625 148.071 102.335 148.071C102.765 148.071 103.183 148.142 103.587 148.285C103.992 148.427 104.355 148.651 104.676 148.956C104.998 149.261 105.251 149.657 105.437 150.144C105.622 150.628 105.715 151.216 105.715 151.909V152.436H99.6449V151.322H104.259C104.259 150.931 104.179 150.585 104.02 150.283C103.861 149.978 103.637 149.738 103.349 149.562C103.064 149.387 102.729 149.299 102.344 149.299C101.927 149.299 101.562 149.402 101.251 149.607C100.942 149.809 100.704 150.074 100.535 150.403C100.369 150.727 100.286 151.08 100.286 151.461V152.331C100.286 152.842 100.376 153.276 100.555 153.634C100.737 153.992 100.991 154.265 101.315 154.454C101.64 154.64 102.02 154.733 102.454 154.733C102.736 154.733 102.992 154.693 103.224 154.613C103.456 154.531 103.657 154.408 103.826 154.246C103.995 154.083 104.124 153.883 104.214 153.644L105.621 153.898C105.508 154.312 105.306 154.675 105.014 154.986C104.726 155.295 104.363 155.535 103.925 155.707C103.491 155.876 102.996 155.961 102.439 155.961ZM112.049 155.807H110.418L114.082 145.625H115.857L119.521 155.807H117.891L115.012 147.474H114.933L112.049 155.807ZM112.322 151.819H117.612V153.112H112.322V151.819ZM120.872 158.67V148.17H122.324V149.408H122.448C122.535 149.249 122.659 149.065 122.821 148.856C122.984 148.648 123.209 148.465 123.497 148.309C123.786 148.15 124.167 148.071 124.641 148.071C125.257 148.071 125.807 148.227 126.291 148.538C126.775 148.85 127.155 149.299 127.43 149.885C127.708 150.472 127.847 151.178 127.847 152.003C127.847 152.829 127.71 153.536 127.435 154.126C127.16 154.713 126.782 155.165 126.301 155.483C125.821 155.798 125.272 155.956 124.656 155.956C124.192 155.956 123.812 155.878 123.517 155.722C123.226 155.566 122.997 155.384 122.831 155.175C122.665 154.966 122.538 154.781 122.448 154.618H122.359V158.67H120.872ZM122.329 151.988C122.329 152.525 122.407 152.996 122.563 153.4C122.718 153.805 122.944 154.121 123.239 154.35C123.534 154.575 123.895 154.688 124.323 154.688C124.767 154.688 125.138 154.57 125.436 154.335C125.735 154.096 125.96 153.773 126.112 153.366C126.268 152.958 126.346 152.499 126.346 151.988C126.346 151.485 126.27 151.032 126.117 150.631C125.968 150.23 125.743 149.914 125.441 149.682C125.143 149.45 124.77 149.334 124.323 149.334C123.892 149.334 123.527 149.445 123.229 149.667C122.934 149.889 122.71 150.199 122.558 150.596C122.405 150.994 122.329 151.458 122.329 151.988ZM129.513 158.67V148.17H130.965V149.408H131.089C131.175 149.249 131.299 149.065 131.462 148.856C131.624 148.648 131.85 148.465 132.138 148.309C132.426 148.15 132.807 148.071 133.281 148.071C133.898 148.071 134.448 148.227 134.932 148.538C135.416 148.85 135.795 149.299 136.07 149.885C136.349 150.472 136.488 151.178 136.488 152.003C136.488 152.829 136.351 153.536 136.075 154.126C135.8 154.713 135.423 155.165 134.942 155.483C134.461 155.798 133.913 155.956 133.296 155.956C132.832 155.956 132.453 155.878 132.158 155.722C131.866 155.566 131.637 155.384 131.472 155.175C131.306 154.966 131.178 154.781 131.089 154.618H130.999V158.67H129.513ZM130.97 151.988C130.97 152.525 131.048 152.996 131.203 153.4C131.359 153.805 131.584 154.121 131.879 154.35C132.174 154.575 132.536 154.688 132.963 154.688C133.407 154.688 133.779 154.57 134.077 154.335C134.375 154.096 134.601 153.773 134.753 153.366C134.909 152.958 134.987 152.499 134.987 151.988C134.987 151.485 134.91 151.032 134.758 150.631C134.609 150.23 134.383 149.914 134.082 149.682C133.784 149.45 133.411 149.334 132.963 149.334C132.532 149.334 132.168 149.445 131.869 149.667C131.575 149.889 131.351 150.199 131.198 150.596C131.046 150.994 130.97 151.458 130.97 151.988ZM138.154 155.807V148.17H139.59V149.383H139.67C139.809 148.972 140.054 148.649 140.406 148.414C140.76 148.175 141.161 148.056 141.609 148.056C141.702 148.056 141.811 148.059 141.937 148.066C142.066 148.073 142.167 148.081 142.24 148.091V149.513C142.181 149.496 142.075 149.478 141.922 149.458C141.77 149.435 141.617 149.423 141.465 149.423C141.113 149.423 140.8 149.498 140.525 149.647C140.253 149.793 140.038 149.997 139.879 150.258C139.72 150.517 139.64 150.812 139.64 151.143V155.807H138.154ZM146.47 155.961C145.754 155.961 145.129 155.797 144.596 155.469C144.062 155.14 143.648 154.681 143.353 154.091C143.058 153.501 142.91 152.812 142.91 152.023C142.91 151.231 143.058 150.538 143.353 149.945C143.648 149.352 144.062 148.891 144.596 148.563C145.129 148.235 145.754 148.071 146.47 148.071C147.186 148.071 147.81 148.235 148.344 148.563C148.878 148.891 149.292 149.352 149.587 149.945C149.882 150.538 150.029 151.231 150.029 152.023C150.029 152.812 149.882 153.501 149.587 154.091C149.292 154.681 148.878 155.14 148.344 155.469C147.81 155.797 147.186 155.961 146.47 155.961ZM146.475 154.713C146.939 154.713 147.323 154.59 147.628 154.345C147.933 154.1 148.158 153.773 148.304 153.366C148.453 152.958 148.528 152.509 148.528 152.018C148.528 151.531 148.453 151.084 148.304 150.676C148.158 150.265 147.933 149.935 147.628 149.687C147.323 149.438 146.939 149.314 146.475 149.314C146.007 149.314 145.62 149.438 145.311 149.687C145.007 149.935 144.779 150.265 144.63 150.676C144.484 151.084 144.412 151.531 144.412 152.018C144.412 152.509 144.484 152.958 144.63 153.366C144.779 153.773 145.007 154.1 145.311 154.345C145.62 154.59 146.007 154.713 146.475 154.713ZM157.962 148.17L155.192 155.807H153.602L150.827 148.17H152.423L154.357 154.047H154.437L156.366 148.17H157.962ZM162.39 155.961C161.638 155.961 160.99 155.8 160.446 155.479C159.906 155.154 159.488 154.698 159.193 154.111C158.902 153.521 158.756 152.83 158.756 152.038C158.756 151.256 158.902 150.567 159.193 149.97C159.488 149.373 159.899 148.908 160.426 148.573C160.957 148.238 161.576 148.071 162.286 148.071C162.717 148.071 163.134 148.142 163.539 148.285C163.943 148.427 164.306 148.651 164.627 148.956C164.949 149.261 165.202 149.657 165.388 150.144C165.574 150.628 165.666 151.216 165.666 151.909V152.436H159.596V151.322H164.21C164.21 150.931 164.13 150.585 163.971 150.283C163.812 149.978 163.588 149.738 163.3 149.562C163.015 149.387 162.68 149.299 162.296 149.299C161.878 149.299 161.513 149.402 161.202 149.607C160.894 149.809 160.655 150.074 160.486 150.403C160.32 150.727 160.237 151.08 160.237 151.461V152.331C160.237 152.842 160.327 153.276 160.506 153.634C160.688 153.992 160.942 154.265 161.267 154.454C161.591 154.64 161.971 154.733 162.405 154.733C162.687 154.733 162.944 154.693 163.176 154.613C163.408 154.531 163.608 154.408 163.777 154.246C163.946 154.083 164.075 153.883 164.165 153.644L165.572 153.898C165.459 154.312 165.257 154.675 164.965 154.986C164.677 155.295 164.314 155.535 163.877 155.707C163.442 155.876 162.947 155.961 162.39 155.961ZM170.174 155.956C169.558 155.956 169.008 155.798 168.524 155.483C168.043 155.165 167.665 154.713 167.39 154.126C167.118 153.536 166.983 152.829 166.983 152.003C166.983 151.178 167.12 150.472 167.395 149.885C167.674 149.299 168.055 148.85 168.539 148.538C169.023 148.227 169.571 148.071 170.184 148.071C170.658 148.071 171.039 148.15 171.328 148.309C171.619 148.465 171.845 148.648 172.004 148.856C172.166 149.065 172.292 149.249 172.382 149.408H172.471V145.625H173.958V155.807H172.506V154.618H172.382C172.292 154.781 172.163 154.966 171.994 155.175C171.828 155.384 171.6 155.566 171.308 155.722C171.016 155.878 170.638 155.956 170.174 155.956ZM170.502 154.688C170.93 154.688 171.291 154.575 171.586 154.35C171.885 154.121 172.11 153.805 172.262 153.4C172.418 152.996 172.496 152.525 172.496 151.988C172.496 151.458 172.42 150.994 172.267 150.596C172.115 150.199 171.891 149.889 171.596 149.667C171.301 149.445 170.937 149.334 170.502 149.334C170.055 149.334 169.682 149.45 169.384 149.682C169.086 149.914 168.86 150.23 168.708 150.631C168.559 151.032 168.484 151.485 168.484 151.988C168.484 152.499 168.56 152.958 168.713 153.366C168.865 153.773 169.091 154.096 169.389 154.335C169.69 154.57 170.062 154.688 170.502 154.688ZM182.748 155.951C182.065 155.951 181.476 155.827 180.983 155.578C180.492 155.329 180.114 154.991 179.849 154.564C179.584 154.133 179.451 153.646 179.451 153.102C179.451 152.688 179.538 152.32 179.71 151.998C179.882 151.674 180.123 151.374 180.431 151.099C180.739 150.823 181.095 150.547 181.5 150.268L183.14 149.11C183.419 148.928 183.636 148.735 183.792 148.533C183.947 148.328 184.025 148.074 184.025 147.773C184.025 147.534 183.922 147.305 183.717 147.086C183.511 146.868 183.236 146.758 182.892 146.758C182.653 146.758 182.443 146.816 182.26 146.932C182.081 147.048 181.94 147.198 181.838 147.38C181.738 147.559 181.689 147.748 181.689 147.947C181.689 148.179 181.752 148.412 181.877 148.648C182.007 148.883 182.172 149.126 182.375 149.378C182.577 149.627 182.789 149.885 183.011 150.154L187.739 155.807H186.059L182.146 151.208C181.818 150.82 181.513 150.456 181.231 150.114C180.949 149.769 180.721 149.421 180.545 149.07C180.373 148.715 180.287 148.333 180.287 147.922C180.287 147.454 180.393 147.04 180.605 146.679C180.82 146.314 181.12 146.029 181.505 145.824C181.889 145.618 182.34 145.515 182.857 145.515C183.381 145.515 183.83 145.618 184.204 145.824C184.582 146.026 184.872 146.296 185.074 146.634C185.28 146.969 185.382 147.335 185.382 147.733C185.382 148.217 185.261 148.644 185.02 149.015C184.781 149.383 184.451 149.721 184.03 150.03L181.987 151.536C181.589 151.828 181.312 152.116 181.157 152.401C181.004 152.683 180.928 152.903 180.928 153.062C180.928 153.354 181.002 153.624 181.152 153.873C181.304 154.121 181.516 154.32 181.788 154.469C182.063 154.618 182.385 154.693 182.752 154.693C183.13 154.693 183.498 154.612 183.856 154.449C184.217 154.284 184.544 154.047 184.836 153.738C185.131 153.43 185.364 153.061 185.537 152.63C185.709 152.199 185.795 151.717 185.795 151.183H187.137C187.137 151.839 187.063 152.394 186.914 152.849C186.765 153.299 186.584 153.667 186.372 153.952C186.163 154.234 185.966 154.454 185.78 154.613C185.721 154.666 185.664 154.72 185.611 154.773C185.558 154.826 185.502 154.879 185.442 154.932C185.097 155.28 184.68 155.537 184.189 155.702C183.702 155.868 183.221 155.951 182.748 155.951ZM198.281 148.3C198.228 147.829 198.009 147.464 197.625 147.206C197.241 146.944 196.757 146.813 196.173 146.813C195.756 146.813 195.394 146.879 195.089 147.012C194.785 147.141 194.548 147.32 194.379 147.549C194.213 147.774 194.13 148.031 194.13 148.319C194.13 148.561 194.186 148.77 194.299 148.946C194.415 149.122 194.566 149.269 194.751 149.388C194.94 149.504 195.143 149.602 195.358 149.682C195.573 149.758 195.781 149.821 195.979 149.871L196.974 150.129C197.299 150.209 197.632 150.316 197.973 150.452C198.314 150.588 198.631 150.767 198.923 150.989C199.214 151.211 199.45 151.486 199.629 151.814C199.811 152.143 199.902 152.535 199.902 152.993C199.902 153.569 199.753 154.081 199.455 154.529C199.16 154.976 198.73 155.329 198.167 155.588C197.607 155.846 196.929 155.976 196.134 155.976C195.371 155.976 194.712 155.855 194.155 155.613C193.598 155.371 193.162 155.028 192.847 154.584C192.532 154.136 192.358 153.606 192.325 152.993H193.866C193.896 153.361 194.016 153.667 194.224 153.912C194.437 154.154 194.707 154.335 195.035 154.454C195.366 154.57 195.729 154.628 196.124 154.628C196.558 154.628 196.944 154.56 197.282 154.425C197.623 154.285 197.892 154.093 198.087 153.848C198.283 153.599 198.381 153.309 198.381 152.978C198.381 152.676 198.295 152.429 198.122 152.237C197.953 152.045 197.723 151.886 197.431 151.76C197.143 151.634 196.816 151.523 196.452 151.427L195.249 151.099C194.433 150.876 193.787 150.55 193.31 150.119C192.836 149.688 192.599 149.118 192.599 148.409C192.599 147.822 192.758 147.31 193.076 146.873C193.394 146.435 193.825 146.095 194.369 145.854C194.912 145.608 195.525 145.486 196.208 145.486C196.897 145.486 197.506 145.607 198.033 145.849C198.563 146.09 198.981 146.424 199.286 146.848C199.59 147.269 199.75 147.753 199.763 148.3H198.281ZM201.618 155.807V148.17H203.105V155.807H201.618ZM202.369 146.992C202.111 146.992 201.889 146.906 201.703 146.733C201.521 146.558 201.43 146.349 201.43 146.107C201.43 145.862 201.521 145.653 201.703 145.481C201.889 145.305 202.111 145.217 202.369 145.217C202.628 145.217 202.848 145.305 203.03 145.481C203.216 145.653 203.309 145.862 203.309 146.107C203.309 146.349 203.216 146.558 203.03 146.733C202.848 146.906 202.628 146.992 202.369 146.992ZM208.306 158.829C207.7 158.829 207.178 158.75 206.74 158.591C206.306 158.432 205.952 158.221 205.676 157.959C205.401 157.698 205.196 157.411 205.06 157.099L206.338 156.572C206.427 156.718 206.547 156.872 206.696 157.035C206.848 157.2 207.054 157.341 207.312 157.457C207.574 157.573 207.91 157.631 208.321 157.631C208.885 157.631 209.35 157.494 209.718 157.219C210.086 156.947 210.27 156.513 210.27 155.916V154.415H210.176C210.086 154.577 209.957 154.758 209.788 154.956C209.622 155.155 209.394 155.328 209.102 155.474C208.81 155.619 208.431 155.692 207.963 155.692C207.36 155.692 206.817 155.551 206.333 155.27C205.852 154.985 205.471 154.565 205.189 154.012C204.911 153.455 204.772 152.771 204.772 151.959C204.772 151.147 204.909 150.451 205.184 149.871C205.463 149.291 205.844 148.846 206.328 148.538C206.812 148.227 207.36 148.071 207.973 148.071C208.447 148.071 208.83 148.15 209.122 148.309C209.413 148.465 209.641 148.648 209.803 148.856C209.969 149.065 210.096 149.249 210.186 149.408H210.295V148.17H211.752V155.976C211.752 156.632 211.599 157.171 211.294 157.591C210.989 158.012 210.577 158.324 210.056 158.526C209.539 158.728 208.956 158.829 208.306 158.829ZM208.292 154.459C208.719 154.459 209.08 154.36 209.375 154.161C209.674 153.959 209.899 153.671 210.051 153.296C210.207 152.918 210.285 152.466 210.285 151.939C210.285 151.425 210.209 150.973 210.056 150.581C209.904 150.19 209.68 149.885 209.385 149.667C209.09 149.445 208.726 149.334 208.292 149.334C207.844 149.334 207.471 149.45 207.173 149.682C206.875 149.91 206.649 150.222 206.497 150.616C206.348 151.011 206.273 151.452 206.273 151.939C206.273 152.439 206.349 152.878 206.502 153.256C206.654 153.634 206.88 153.929 207.178 154.141C207.48 154.353 207.851 154.459 208.292 154.459ZM215.232 151.273V155.807H213.745V148.17H215.172V149.413H215.267C215.442 149.009 215.717 148.684 216.092 148.439C216.47 148.193 216.945 148.071 217.519 148.071C218.039 148.071 218.495 148.18 218.886 148.399C219.277 148.614 219.58 148.936 219.796 149.363C220.011 149.791 220.119 150.32 220.119 150.949V155.807H218.632V151.128C218.632 150.575 218.488 150.142 218.2 149.831C217.912 149.516 217.516 149.358 217.012 149.358C216.667 149.358 216.36 149.433 216.092 149.582C215.827 149.731 215.616 149.95 215.461 150.238C215.308 150.523 215.232 150.868 215.232 151.273ZM225.404 155.961C224.651 155.961 224.003 155.8 223.46 155.479C222.92 155.154 222.502 154.698 222.207 154.111C221.915 153.521 221.77 152.83 221.77 152.038C221.77 151.256 221.915 150.567 222.207 149.97C222.502 149.373 222.913 148.908 223.44 148.573C223.97 148.238 224.59 148.071 225.299 148.071C225.73 148.071 226.148 148.142 226.552 148.285C226.957 148.427 227.319 148.651 227.641 148.956C227.962 149.261 228.216 149.657 228.402 150.144C228.587 150.628 228.68 151.216 228.68 151.909V152.436H222.61V151.322H227.223C227.223 150.931 227.144 150.585 226.985 150.283C226.826 149.978 226.602 149.738 226.314 149.562C226.029 149.387 225.694 149.299 225.309 149.299C224.892 149.299 224.527 149.402 224.216 149.607C223.907 149.809 223.669 150.074 223.5 150.403C223.334 150.727 223.251 151.08 223.251 151.461V152.331C223.251 152.842 223.341 153.276 223.52 153.634C223.702 153.992 223.955 154.265 224.28 154.454C224.605 154.64 224.984 154.733 225.419 154.733C225.7 154.733 225.957 154.693 226.189 154.613C226.421 154.531 226.622 154.408 226.791 154.246C226.96 154.083 227.089 153.883 227.179 153.644L228.586 153.898C228.473 154.312 228.271 154.675 227.979 154.986C227.691 155.295 227.328 155.535 226.89 155.707C226.456 155.876 225.961 155.961 225.404 155.961ZM233.188 155.956C232.572 155.956 232.021 155.798 231.537 155.483C231.057 155.165 230.679 154.713 230.404 154.126C230.132 153.536 229.996 152.829 229.996 152.003C229.996 151.178 230.134 150.472 230.409 149.885C230.687 149.299 231.068 148.85 231.552 148.538C232.036 148.227 232.585 148.071 233.198 148.071C233.672 148.071 234.053 148.15 234.341 148.309C234.633 148.465 234.858 148.648 235.018 148.856C235.18 149.065 235.306 149.249 235.395 149.408H235.485V145.625H236.971V155.807H235.52V154.618H235.395C235.306 154.781 235.177 154.966 235.008 155.175C234.842 155.384 234.613 155.566 234.322 155.722C234.03 155.878 233.652 155.956 233.188 155.956ZM233.516 154.688C233.944 154.688 234.305 154.575 234.6 154.35C234.898 154.121 235.124 153.805 235.276 153.4C235.432 152.996 235.51 152.525 235.51 151.988C235.51 151.458 235.434 150.994 235.281 150.596C235.129 150.199 234.905 149.889 234.61 149.667C234.315 149.445 233.95 149.334 233.516 149.334C233.069 149.334 232.696 149.45 232.398 149.682C232.099 149.914 231.874 150.23 231.721 150.631C231.572 151.032 231.498 151.485 231.498 151.988C231.498 152.499 231.574 152.958 231.726 153.366C231.879 153.773 232.104 154.096 232.403 154.335C232.704 154.57 233.075 154.688 233.516 154.688Z" fill="#1E293B"/>
<g style="mix-blend-mode:multiply">
<rect x="273.5" y="136.807" width="40" height="28" rx="14" fill="#F7FEE7"/>
<path d="M284.5 152.14C284.5 152.14 286 152.807 288 155.807C288 155.807 288.285 155.326 288.821 154.559M298.5 144.807C296.208 145.952 293.812 148.358 291.888 150.629" stroke="#84CC16" stroke-width="1.5" stroke-linecap="round" stroke-linejoin="round"/>
<path d="M289.5 152.14C289.5 152.14 291 152.807 293 155.807C293 155.807 298.5 147.307 303.5 144.807" stroke="#84CC16" stroke-width="1.5" stroke-linecap="round" stroke-linejoin="round"/>
</g>
</g>
<defs>
<filter id="filter0_dddd_104_1207" x="0.5" y="0.806641" width="379" height="100" filterUnits="userSpaceOnUse" color-interpolation-filters="sRGB">
<feFlood flood-opacity="0" result="BackgroundImageFix"/>
<feColorMatrix in="SourceAlpha" type="matrix" values="0 0 0 0 0 0 0 0 0 0 0 0 0 0 0 0 0 0 127 0" result="hardAlpha"/>
<feMorphology radius="1" operator="dilate" in="SourceAlpha" result="effect1_dropShadow_104_1207"/>
<feOffset/>
<feComposite in2="hardAlpha" operator="out"/>
<feColorMatrix type="matrix" values="0 0 0 0 0.411765 0 0 0 0 0.678431 0 0 0 0 0.396078 0 0 0 0.12 0"/>
<feBlend mode="normal" in2="BackgroundImageFix" result="effect1_dropShadow_104_1207"/>
<feColorMatrix in="SourceAlpha" type="matrix" values="0 0 0 0 0 0 0 0 0 0 0 0 0 0 0 0 0 0 127 0" result="hardAlpha"/>
<feOffset dy="1"/>
<feGaussianBlur stdDeviation="0.5"/>
<feComposite in2="hardAlpha" operator="out"/>
<feColorMatrix type="matrix" values="0 0 0 0 0.396078 0 0 0 0 0.639216 0 0 0 0 0.0509804 0 0 0 0.04 0"/>
<feBlend mode="normal" in2="effect1_dropShadow_104_1207" result="effect2_dropShadow_104_1207"/>
<feColorMatrix in="SourceAlpha" type="matrix" values="0 0 0 0 0 0 0 0 0 0 0 0 0 0 0 0 0 0 127 0" result="hardAlpha"/>
<feOffset dy="6"/>
<feGaussianBlur stdDeviation="2"/>
<feComposite in2="hardAlpha" operator="out"/>
<feColorMatrix type="matrix" values="0 0 0 0 0.396078 0 0 0 0 0.639216 0 0 0 0 0.0509804 0 0 0 0.06 0"/>
<feBlend mode="normal" in2="effect2_dropShadow_104_1207" result="effect3_dropShadow_104_1207"/>
<feColorMatrix in="SourceAlpha" type="matrix" values="0 0 0 0 0 0 0 0 0 0 0 0 0 0 0 0 0 0 127 0" result="hardAlpha"/>
<feMorphology radius="12" operator="erode" in="SourceAlpha" result="effect4_dropShadow_104_1207"/>
<feOffset dy="32"/>
<feGaussianBlur stdDeviation="12"/>
<feComposite in2="hardAlpha" operator="out"/>
<feColorMatrix type="matrix" values="0 0 0 0 0.396078 0 0 0 0 0.639216 0 0 0 0 0.0509804 0 0 0 0.04 0"/>
<feBlend mode="normal" in2="effect3_dropShadow_104_1207" result="effect4_dropShadow_104_1207"/>
<feBlend mode="normal" in="SourceGraphic" in2="effect4_dropShadow_104_1207" result="shape"/>
</filter>
<filter id="filter1_dddd_104_1207" x="19.5" y="71.8066" width="341" height="85" filterUnits="userSpaceOnUse" color-interpolation-filters="sRGB">
<feFlood flood-opacity="0" result="BackgroundImageFix"/>
<feColorMatrix in="SourceAlpha" type="matrix" values="0 0 0 0 0 0 0 0 0 0 0 0 0 0 0 0 0 0 127 0" result="hardAlpha"/>
<feMorphology radius="1" operator="dilate" in="SourceAlpha" result="effect1_dropShadow_104_1207"/>
<feOffset/>
<feComposite in2="hardAlpha" operator="out"/>
<feColorMatrix type="matrix" values="0 0 0 0 0.411765 0 0 0 0 0.678431 0 0 0 0 0.396078 0 0 0 0.12 0"/>
<feBlend mode="normal" in2="BackgroundImageFix" result="effect1_dropShadow_104_1207"/>
<feColorMatrix in="SourceAlpha" type="matrix" values="0 0 0 0 0 0 0 0 0 0 0 0 0 0 0 0 0 0 127 0" result="hardAlpha"/>
<feOffset dy="1"/>
<feGaussianBlur stdDeviation="0.5"/>
<feComposite in2="hardAlpha" operator="out"/>
<feColorMatrix type="matrix" values="0 0 0 0 0.396078 0 0 0 0 0.639216 0 0 0 0 0.0509804 0 0 0 0.04 0"/>
<feBlend mode="normal" in2="effect1_dropShadow_104_1207" result="effect2_dropShadow_104_1207"/>
<feColorMatrix in="SourceAlpha" type="matrix" values="0 0 0 0 0 0 0 0 0 0 0 0 0 0 0 0 0 0 127 0" result="hardAlpha"/>
<feOffset dy="6"/>
<feGaussianBlur stdDeviation="2"/>
<feComposite in2="hardAlpha" operator="out"/>
<feColorMatrix type="matrix" values="0 0 0 0 0.396078 0 0 0 0 0.639216 0 0 0 0 0.0509804 0 0 0 0.06 0"/>
<feBlend mode="normal" in2="effect2_dropShadow_104_1207" result="effect3_dropShadow_104_1207"/>
<feColorMatrix in="SourceAlpha" type="matrix" values="0 0 0 0 0 0 0 0 0 0 0 0 0 0 0 0 0 0 127 0" result="hardAlpha"/>
<feMorphology radius="12" operator="erode" in="SourceAlpha" result="effect4_dropShadow_104_1207"/>
<feOffset dy="32"/>
<feGaussianBlur stdDeviation="12"/>
<feComposite in2="hardAlpha" operator="out"/>
<feColorMatrix type="matrix" values="0 0 0 0 0.396078 0 0 0 0 0.639216 0 0 0 0 0.0509804 0 0 0 0.04 0"/>
<feBlend mode="normal" in2="effect3_dropShadow_104_1207" result="effect4_dropShadow_104_1207"/>
<feBlend mode="normal" in="SourceGraphic" in2="effect4_dropShadow_104_1207" result="shape"/>
</filter>
<filter id="filter2_dddd_104_1207" x="37.5" y="127.807" width="304" height="89" filterUnits="userSpaceOnUse" color-interpolation-filters="sRGB">
<feFlood flood-opacity="0" result="BackgroundImageFix"/>
<feColorMatrix in="SourceAlpha" type="matrix" values="0 0 0 0 0 0 0 0 0 0 0 0 0 0 0 0 0 0 127 0" result="hardAlpha"/>
<feMorphology radius="1" operator="dilate" in="SourceAlpha" result="effect1_dropShadow_104_1207"/>
<feOffset/>
<feComposite in2="hardAlpha" operator="out"/>
<feColorMatrix type="matrix" values="0 0 0 0 0.411765 0 0 0 0 0.678431 0 0 0 0 0.396078 0 0 0 0.12 0"/>
<feBlend mode="normal" in2="BackgroundImageFix" result="effect1_dropShadow_104_1207"/>
<feColorMatrix in="SourceAlpha" type="matrix" values="0 0 0 0 0 0 0 0 0 0 0 0 0 0 0 0 0 0 127 0" result="hardAlpha"/>
<feOffset dy="1"/>
<feGaussianBlur stdDeviation="0.5"/>
<feComposite in2="hardAlpha" operator="out"/>
<feColorMatrix type="matrix" values="0 0 0 0 0.396078 0 0 0 0 0.639216 0 0 0 0 0.0509804 0 0 0 0.04 0"/>
<feBlend mode="normal" in2="effect1_dropShadow_104_1207" result="effect2_dropShadow_104_1207"/>
<feColorMatrix in="SourceAlpha" type="matrix" values="0 0 0 0 0 0 0 0 0 0 0 0 0 0 0 0 0 0 127 0" result="hardAlpha"/>
<feOffset dy="6"/>
<feGaussianBlur stdDeviation="2"/>
<feComposite in2="hardAlpha" operator="out"/>
<feColorMatrix type="matrix" values="0 0 0 0 0.396078 0 0 0 0 0.639216 0 0 0 0 0.0509804 0 0 0 0.06 0"/>
<feBlend mode="normal" in2="effect2_dropShadow_104_1207" result="effect3_dropShadow_104_1207"/>
<feColorMatrix in="SourceAlpha" type="matrix" values="0 0 0 0 0 0 0 0 0 0 0 0 0 0 0 0 0 0 127 0" result="hardAlpha"/>
<feMorphology radius="12" operator="erode" in="SourceAlpha" result="effect4_dropShadow_104_1207"/>
<feOffset dy="32"/>
<feGaussianBlur stdDeviation="12"/>
<feComposite in2="hardAlpha" operator="out"/>
<feColorMatrix type="matrix" values="0 0 0 0 0.396078 0 0 0 0 0.639216 0 0 0 0 0.0509804 0 0 0 0.04 0"/>
<feBlend mode="normal" in2="effect3_dropShadow_104_1207" result="effect4_dropShadow_104_1207"/>
<feBlend mode="normal" in="SourceGraphic" in2="effect4_dropShadow_104_1207" result="shape"/>
</filter>
</defs>
</svg>
