<svg xmlns="http://www.w3.org/2000/svg" width="20" height="21" viewBox="0 0 20 21" fill="none">
  <g clip-path="url(#clip0_104_1468)">
    <path d="M9.07668 3.02657C9.41827 2.20528 10.5817 2.20528 10.9233 3.02657L12.4105 6.6021C12.5545 6.94834 12.8801 7.18491 13.2539 7.21487L17.114 7.52434C18.0006 7.59542 18.3601 8.70193 17.6846 9.2806L14.7436 11.7999C14.4588 12.0438 14.3345 12.4266 14.4215 12.7913L15.32 16.5581C15.5264 17.4234 14.5851 18.1072 13.826 17.6436L10.5213 15.625C10.2012 15.4296 9.79876 15.4296 9.47875 15.625L6.17397 17.6436C5.41487 18.1072 4.47362 17.4234 4.68001 16.5581L5.57852 12.7913C5.66553 12.4266 5.54116 12.0438 5.25637 11.7999L2.31539 9.2806C1.63985 8.70193 1.99938 7.59542 2.88603 7.52434L6.74612 7.21487C7.11991 7.18491 7.44552 6.94834 7.58953 6.6021L9.07668 3.02657Z" fill="#020617"/>
  </g>
  <defs>
    <clipPath id="clip0_104_1468">
      <rect width="20" height="20" fill="white" transform="translate(0 0.306641)"/>
    </clipPath>
  </defs>
</svg>